<svg width="40" height="40" viewBox="0 0 40 40" fill="none" xmlns="http://www.w3.org/2000/svg">
<path d="M7.57586 19.3181C7.63192 19.29 7.688 19.2634 7.74265 19.2382C8.6928 18.7981 9.65556 18.3861 10.6169 17.9741C10.6688 17.9741 10.7556 17.9139 10.8047 17.8942C10.879 17.862 10.9532 17.8312 11.0275 17.799C11.1705 17.7373 11.3134 17.677 11.4549 17.6154C11.7408 17.4935 12.0253 17.3715 12.3112 17.2496L14.0223 16.5167C15.163 16.029 16.3052 15.5399 17.4459 15.0522C18.5866 14.5645 19.7288 14.0754 20.8695 13.5878C22.0102 13.1001 23.1524 12.611 24.2931 12.1233C25.4338 11.6356 26.576 11.1465 27.7167 10.6589C27.9704 10.5495 28.2451 10.387 28.5169 10.3393C28.7454 10.2987 28.9682 10.2202 29.198 10.1768C29.6338 10.0941 30.1145 10.0605 30.5321 10.2412C30.6765 10.3043 30.8096 10.3926 30.9203 10.5033C31.45 11.0274 31.3758 11.8879 31.2636 12.625C30.4831 17.7625 29.7025 22.9014 28.9205 28.0389C28.814 28.7438 28.6683 29.5174 28.1119 29.9631C27.641 30.34 26.9712 30.3821 26.3896 30.2223C25.808 30.0612 25.2951 29.7234 24.792 29.3913C22.7053 28.0095 20.6173 26.6277 18.5306 25.246C18.0345 24.918 17.4824 24.4892 17.488 23.8936C17.4908 23.5349 17.7052 23.2153 17.9238 22.9309C19.7372 20.5653 22.3536 18.9397 24.3001 16.6834C24.5748 16.3653 24.7906 15.7908 24.4136 15.6072C24.1894 15.4979 23.9315 15.6464 23.7269 15.788C21.154 17.5747 18.5824 19.3629 16.0095 21.1497C15.17 21.7327 14.29 22.3325 13.2782 22.4754C12.3729 22.6043 11.462 22.3521 10.5861 22.0942C9.85176 21.8784 9.1188 21.657 8.38868 21.4286C8.00049 21.308 7.59969 21.1777 7.29979 20.9044C6.99989 20.6312 6.82754 20.1715 7.00832 19.8071C7.12184 19.5787 7.34186 19.4344 7.57309 19.3167L7.57586 19.3181Z" fill="#FEFFFC"/>
</svg>
