<svg width="82" height="125" viewBox="0 0 82 125" fill="none" xmlns="http://www.w3.org/2000/svg">
<path d="M60.0201 3.80003C67.7401 3.80003 71.8701 4.54004 76.6901 10.71C81.2001 16.48 79.2701 25.39 79.4701 32.76C79.6569 38.5816 80.4037 44.3716 81.7001 50.05C81.7001 56.33 58.6201 56.33 58.6201 50.05L60.0201 3.80003Z" fill="#034694"/>
<path d="M58.8802 41.46C59.4584 42.0273 60.107 42.518 60.8102 42.92C65.7102 45.75 73.6502 45.75 78.5502 42.92C79.1427 42.5811 79.699 42.1823 80.2102 41.73C80.4102 43.22 80.6202 44.57 80.8202 45.73C80.1645 46.4474 79.3982 47.0551 78.5502 47.53C73.6502 50.36 65.7102 50.36 60.8102 47.53C60.0502 47.098 59.3536 46.5629 58.7402 45.94L58.8802 41.46Z" fill="white"/>
<path opacity="0.2" d="M75.0901 41.46C75.1968 45.6868 75.7328 49.8917 76.6901 54.01C69.9001 55.76 58.6201 54.44 58.6201 50.01L59.3201 26.84H71.7701C74.7501 33.16 74.9201 36.42 75.0901 41.46Z" fill="white"/>
<path d="M11.2138 107.936C11.3313 112.616 14.1573 117.22 20.6227 120.487L20.6229 120.487C26.1042 123.262 34.2503 124.665 42.4238 124.668C50.5973 124.67 58.7508 123.272 64.247 120.487C67.5534 118.809 69.85 116.947 71.3199 114.915C72.7872 112.886 73.44 110.676 73.44 108.28C73.44 103.964 72.9795 99.3415 72.4604 94.1308C72.3314 92.8354 72.1987 91.5036 72.0686 90.1311C71.4157 83.2442 70.8296 75.3527 71.1001 65.9429C71.1001 65.9429 71.1001 65.9429 71.1001 65.9428L71.35 65.95C71.4949 60.8539 71.8032 56.7577 72.0867 52.9926C72.7226 44.5452 73.2331 37.7651 71.49 25.1C68.97 6.79001 59.97 3.79001 59.97 3.79001L11.2138 107.936ZM11.2138 107.936L11.2322 107.939L11.2588 107.664C11.3565 106.654 11.4473 105.721 11.5322 104.848C12.2294 97.6806 12.5322 94.5675 13.0495 86.4159L13.0495 86.4157C13.2429 83.3425 13.3595 80.9857 13.4504 79.1473C13.4864 78.4188 13.5184 77.7717 13.5496 77.1938M11.2138 107.936L59.9263 4.04001H54.79H54.6425L54.5712 3.91099C53.4432 1.8713 49.069 -0.980387 41.3178 0.863241C34.3546 2.51946 30.3205 6.68598 28.1093 8.96984C27.8628 9.22438 27.639 9.45554 27.4363 9.65723L27.4147 9.67868C25.3955 11.688 23.0363 14.0354 14.8964 17.858C13.8283 19.3983 13.1273 21.8334 12.6961 24.7883C12.2611 27.7692 12.105 31.2445 12.105 34.79C12.105 40.407 12.4964 46.1785 12.7836 50.4148C12.8591 51.5277 12.9274 52.5347 12.9795 53.405C13.0033 53.8015 13.0279 54.2066 13.0529 54.6198C13.4483 61.1424 13.9643 69.6539 13.5496 77.1938M13.5496 77.1938L13.3 77.18M13.5496 77.1938C13.5496 77.1937 13.5496 77.1936 13.5496 77.1935L13.3 77.18M13.3 77.18C13.2687 77.7595 13.2367 78.4076 13.2006 79.1368C13.1097 80.9748 12.9933 83.3286 12.8 86.4L14.73 17.66C10.6975 23.3502 11.8845 40.8524 12.5345 50.4363C12.6099 51.5476 12.678 52.5524 12.73 53.42C12.7537 53.8156 12.7782 54.2199 12.8032 54.632C13.1987 61.1573 13.7138 69.6552 13.3 77.18Z" fill="#034694" stroke="white" stroke-width="0.5"/>
<path d="M46.1 0.860031C50.98 0.860031 53.44 2.96003 54.1 4.20003L54.34 4.62004H59.84C60.84 5.05004 68.46 8.83002 70.71 25.22C72.44 37.79 71.93 44.47 71.3 52.93C71.02 56.63 70.7 60.82 70.56 65.93C70.3732 75.3633 70.8276 84.7984 71.92 94.17C72.45 99.43 72.92 103.98 72.92 108.28C72.92 113.19 70.1 116.91 64.04 119.98C58.87 122.6 51.04 124.1 42.48 124.1C33.92 124.1 26.1 122.6 20.93 119.99C15.08 116.99 11.85 112.66 11.83 107.68L12.12 104.68C12.8 97.68 13.12 94.53 13.61 86.46C13.8 83.46 13.92 81.21 14.01 79.38C14.01 78.57 14.08 77.86 14.12 77.23C14.3757 69.6968 14.2121 62.1551 13.63 54.64L13.55 53.39C13.55 52.52 13.43 51.51 13.35 50.39C12.72 41.12 11.56 23.96 15.29 18.32C23.44 14.47 25.78 12.13 27.85 10.07L28.51 9.39003C31.9282 5.46246 36.4635 2.67151 41.51 1.39003C43.0198 1.02426 44.5666 0.833005 46.12 0.820023M46.12 1.52588e-05C44.4909 0.0279904 42.8703 0.242741 41.29 0.64003C33.43 2.48003 29.29 7.49002 27.29 9.50002C25.29 11.51 22.95 13.84 14.76 17.68C10.25 24.03 12.25 45.09 12.76 53.44C13.16 60.1 13.76 69.2 13.33 77.2C13.22 79.2 13.1 82.13 12.83 86.42C12.25 95.56 11.94 98.36 11.04 107.66C11.04 112.56 13.92 117.37 20.59 120.74C26.12 123.53 34.32 124.94 42.51 124.94C50.7 124.94 58.9 123.54 64.44 120.73C71.1 117.35 73.77 113.19 73.77 108.3C73.77 97.49 70.89 84.76 71.43 65.97C71.9 49.44 74.09 43.42 71.57 25.12C69.05 6.82004 60.05 3.81004 60.05 3.81004H54.84C53.91 2.13004 51.01 0.0500336 46.1 0.0500336L46.12 1.52588e-05Z" fill="white"/>
<path d="M16.8202 59.18C22.8202 64.71 31.5002 64.86 37.3802 64.62C40.0602 64.5 48.9002 62.62 48.2202 61.69C47.5402 60.76 42.3402 61.53 35.3202 61.41C28.3002 61.29 21.8002 56.41 19.7402 53.06C19.7402 53.06 10.7902 53.64 16.8202 59.18ZM62.2802 58.87C64.1202 59.15 69.2802 57.68 72.0602 53.96C72.2402 51.51 72.4202 49.21 72.5502 46.9C71.0202 51.8 69.7802 53.06 65.4602 55.9C63.4002 57.2 60.2902 58.57 62.2902 58.87H62.2802Z" fill="white"/>
<path d="M58.5 12.5C58.5 7.49998 58.68 -0.170023 63.5 5.99998C70 8.49998 69.8 6.12998 70 13.5C70.1868 19.3215 73.7035 34.8216 75 40.5C75 46.78 66 49.5 62 48.25L58.5 12.5Z" fill="#034694"/>
<path opacity="0.2" d="M13.29 77.19C13.73 69.19 13.12 60.09 12.72 53.43C12.56 50.76 12.25 46.78 12.04 42.43H24.89C22.74 45.96 26.01 70.61 26.01 70.61C26.01 73.14 22.09 77.44 13.29 77.19Z" fill="white"/>
<path d="M19.79 15.1C26.2 18.83 29.79 30.21 24.09 44.58C22.76 48.58 22.81 64.63 23.09 67.63C23.09 73.92 0 73.92 0 67.63C0 67.63 1 62.77 1.84 55.43C2.68 48.09 0.840001 38.99 2.72 31.5C4.32 25.06 7.56 21.26 13.21 18.4L19.79 15.1Z" fill="#034694"/>
<path d="M0.850098 62.98C1.0401 61.8 1.2401 60.44 1.4401 58.91C1.87756 59.2824 2.34592 59.617 2.8401 59.91C7.7401 62.74 15.6801 62.74 20.5801 59.91C21.4787 59.4045 22.2837 58.7482 22.9601 57.97C22.9601 59.61 22.9601 61.19 22.9601 62.6C22.282 63.367 21.4811 64.0159 20.5901 64.52C15.6901 67.35 7.7501 67.35 2.8501 64.52C2.1175 64.0985 1.44482 63.5806 0.850098 62.98Z" fill="white"/>
<path d="M27.7998 11.87C27.5092 11.2761 27.4174 10.6044 27.538 9.95427C27.6587 9.30415 27.9854 8.71013 28.4698 8.26003C31.8941 4.50635 36.356 1.85423 41.2898 0.640035C49.1398 -1.19997 53.6198 1.64005 54.8198 3.81005C57.2298 7.05005 57.3198 14.81 55.3498 18.61C53.1798 22.75 47.7998 23.69 44.1998 22.61C38.5298 20.88 34.6098 16.25 32.4098 14.67C30.2098 13.09 28.2898 12.81 27.7998 11.87Z" fill="white"/>
<path opacity="0.3" d="M28.4702 8.26003C31.8945 4.50636 36.3565 1.85424 41.2902 0.64004C44.2585 -0.17638 47.392 -0.17638 50.3602 0.64004C51.6244 2.09452 52.6169 3.7644 53.2902 5.57003C53.2902 5.57003 32.6602 12.3001 30.5702 11.3101C29.5194 10.7889 28.5629 10.0961 27.7402 9.26003C27.9172 8.883 28.1651 8.54351 28.4702 8.26003Z" fill="white"/>
<path d="M30.5998 11.3101C32.198 11.9354 33.6943 12.7948 35.0398 13.86C37.4898 15.96 39.7798 18.54 44.0398 20.02C50.0398 22.12 53.9498 18.23 54.4698 14.22C54.9898 10.21 54.2898 3.92004 50.0898 2.64004C45.0898 1.17004 39.8398 2.59004 36.2498 4.64004C32.8598 6.64004 28.3998 10.3501 30.5998 11.3101Z" fill="#263238"/>
<path d="M7.34008 39.24C7.33318 39.3071 7.33964 39.3748 7.35907 39.4393C7.37851 39.5038 7.41054 39.5639 7.45331 39.616C7.49609 39.668 7.54875 39.7111 7.60827 39.7427C7.66779 39.7743 7.73298 39.7938 7.80008 39.8H7.86008C7.98802 39.7982 8.11079 39.7492 8.20488 39.6625C8.29897 39.5757 8.35779 39.4574 8.37008 39.33C8.43008 38.79 8.47008 38.22 8.51008 37.62C8.79008 33.7 9.14008 28.83 14.1301 25.32C18.7701 22.05 21.6001 20.32 24.3401 18.7L26.7201 17.26C29.2965 15.5862 30.4475 15.1762 32.4761 12.8688C32.5509 12.7626 32.5834 12.6323 32.5669 12.5034C32.5505 12.3746 32.4865 12.2566 32.3875 12.1726C32.2884 12.0886 32.1615 12.0446 32.0317 12.0495C31.9019 12.0543 31.7786 12.1076 31.6861 12.1988C29.7253 14.4195 28.6592 14.7582 26.1801 16.38C25.3701 16.88 24.5901 17.38 23.8001 17.81C21.0501 19.47 18.2001 21.18 13.5301 24.47C8.15008 28.26 7.76008 33.63 7.48008 37.54C7.44008 38.14 7.40008 38.71 7.34008 39.24ZM11.2001 38.96C11.1401 39.55 11.0901 40.12 11.0201 40.64C11.0102 40.7071 11.0139 40.7755 11.0307 40.8411C11.0476 40.9068 11.0774 40.9684 11.1184 41.0224C11.1593 41.0764 11.2106 41.1217 11.2693 41.1556C11.328 41.1895 11.3928 41.2114 11.4601 41.22H11.5301C11.6556 41.2209 11.777 41.1755 11.871 41.0925C11.9651 41.0094 12.0253 40.8946 12.0401 40.77C12.1101 40.23 12.1701 39.66 12.2301 39.06C12.6201 35.15 13.1001 30.28 18.1701 26.91C22.9101 23.76 25.7801 22.14 28.5701 20.56L30.9801 19.19C33.5937 17.5847 33.3467 17.7437 35.4382 15.5C35.4936 15.4521 35.5384 15.393 35.5694 15.3266C35.6004 15.2602 35.617 15.188 35.6182 15.1148C35.6194 15.0415 35.605 14.9688 35.5762 14.9014C35.5473 14.8341 35.5045 14.7736 35.4506 14.724C35.3967 14.6743 35.3329 14.6367 35.2634 14.6134C35.1939 14.5901 35.1203 14.5818 35.0474 14.589C34.9744 14.5961 34.9038 14.6186 34.8402 14.655C34.7766 14.6914 34.7214 14.7408 34.6782 14.8C32.6518 16.9634 32.9805 16.7398 30.4601 18.3L28.0601 19.64C25.2601 21.23 22.3601 22.86 17.6001 26.03C12.1201 29.7 11.5901 35.06 11.2001 38.96ZM54.7701 8.64003L54.4001 9.64003C56.1578 10.1714 58.0003 10.3649 59.8301 10.21C61.0401 10.21 62.3201 10.08 63.6301 9.99004C65.8664 9.77132 68.1134 9.68115 70.3601 9.72002C72.5775 9.72197 74.774 10.1497 76.8301 10.98L76.6901 10.78C76.3101 10.3 75.9401 9.85002 75.5701 9.44002C73.8854 8.98874 72.1535 8.73701 70.4101 8.69002C68.1235 8.65563 65.8368 8.74578 63.5601 8.96004C62.2901 9.06004 61.0401 9.15002 59.8701 9.19002C58.1506 9.33063 56.4201 9.14401 54.7701 8.64003ZM54.1301 5.29002L53.7601 6.29002C55.7587 6.88718 57.8574 7.07428 59.9301 6.84004C60.9301 6.84004 61.9301 6.72004 62.9901 6.65004C65.2267 6.4359 67.4735 6.34574 69.7201 6.38002C70.6414 6.40093 71.5601 6.48446 72.4701 6.63002C71.7782 6.1277 71.0338 5.70189 70.2501 5.36003H69.7601C67.4737 5.33535 65.1875 5.42545 62.9101 5.63002C61.9101 5.70002 60.9101 5.78003 59.9101 5.83003C57.9634 6.00066 56.0021 5.80046 54.1301 5.24004V5.29002Z" fill="white"/>
</svg>
