<svg width="678" height="585" viewBox="0 0 678 585" fill="none" xmlns="http://www.w3.org/2000/svg">
<g filter="url(#filter0_d_189_1512)">
<path d="M95.1858 167.023H78.89C52.2887 167.023 33.5562 163.317 22.6923 155.905C11.8284 148.493 6.39649 135.142 6.39649 115.851V108.389C6.39649 89.3006 11.8284 76.0507 22.6923 68.6389C33.5562 61.1256 52.2887 57.3689 78.89 57.3689H95.1858C117.624 57.3689 134.072 59.9072 144.53 64.9838C155.089 69.9588 162.298 78.6398 166.156 91.0266H124.579C121.736 88.1837 118.03 86.3054 113.461 85.3916C108.893 84.3763 100.719 83.8686 88.9416 83.8686H83.1543C72.1889 83.8686 63.9649 84.7824 58.4822 86.61C52.9995 88.336 49.3443 90.9758 47.5168 94.5295C45.7907 97.9815 44.9277 103.16 44.9277 110.064V114.328C44.9277 121.232 45.7907 126.461 47.5168 130.015C49.3443 133.467 52.9995 136.056 58.4822 137.782C63.9649 139.508 72.1889 140.371 83.1543 140.371H88.9416C102.953 140.371 112.852 139.356 118.64 137.325C124.427 135.294 127.625 131.385 128.234 125.598H80.5653V101.231H166.613V119.811C166.613 137.68 160.978 150.016 149.708 156.819C138.54 163.622 120.366 167.023 95.1858 167.023Z" fill="white" fill-opacity="0.1"/>
<path d="M267.358 152.192H254.605C233.786 152.192 219.126 149.252 210.624 143.372C202.122 137.492 197.871 127.003 197.871 111.906V106.662C197.871 91.5643 202.122 81.0757 210.624 75.1957C219.126 69.3157 233.786 66.3757 254.605 66.3757H267.358C288.176 66.3757 302.837 69.3157 311.339 75.1957C319.92 81.0757 324.211 91.5643 324.211 106.662V111.906C324.211 127.003 319.92 137.492 311.339 143.372C302.837 149.252 288.176 152.192 267.358 152.192ZM259.015 131.453H262.948C271.847 131.453 278.522 130.738 282.972 129.308C287.501 127.877 290.481 125.811 291.911 123.11C293.341 120.329 294.056 116.197 294.056 110.714V107.973C294.056 103.841 293.699 100.583 292.984 98.1992C292.269 95.7359 290.799 93.6303 288.574 91.8822C286.349 90.0546 283.21 88.823 279.158 88.1873C275.105 87.4722 269.702 87.1146 262.948 87.1146H259.015C253.612 87.1146 249.082 87.353 245.427 87.8297C241.772 88.3065 238.792 89.0216 236.488 89.9751C234.184 90.8492 232.396 92.2 231.124 94.0276C229.933 95.7757 229.098 97.7224 228.622 99.8678C228.224 101.934 228.026 104.635 228.026 107.973V110.714C228.026 116.197 228.701 120.329 230.052 123.11C231.482 125.811 234.422 127.877 238.872 129.308C243.401 130.738 250.115 131.453 259.015 131.453Z" fill="white" fill-opacity="0.1"/>
<path d="M423.428 74.1081L461.344 139H435.109L427.692 126.114H383.01L375.686 139H350.286L388.201 74.1081H423.428ZM405.815 87.8281H404.98L391.724 110.818H418.978L405.815 87.8281Z" fill="white" fill-opacity="0.1"/>
<path d="M539.408 114.618V127H486.833V80.6486H503.254V114.618H539.408Z" fill="white" fill-opacity="0.1"/>
<path d="M566.889 102.6V63.7973H605.03V102.6L597.216 122.465H574.703L566.889 102.6ZM602.381 156.5H569.405V131.735H602.381V156.5Z" fill="white" fill-opacity="0.1"/>
</g>
<path d="M167.528 186.594H155.223C135.136 186.594 120.991 183.796 112.788 178.199C104.584 172.602 100.483 162.521 100.483 147.954V142.319C100.483 127.906 104.584 117.901 112.788 112.304C120.991 106.631 135.136 103.794 155.223 103.794H167.528C184.471 103.794 196.891 105.711 204.788 109.544C212.761 113.301 218.205 119.856 221.118 129.209H189.723C187.576 127.062 184.778 125.644 181.328 124.954C177.878 124.187 171.706 123.804 162.813 123.804H158.443C150.163 123.804 143.953 124.494 139.813 125.874C135.673 127.177 132.913 129.171 131.533 131.854C130.23 134.461 129.578 138.371 129.578 143.584V146.804C129.578 152.017 130.23 155.966 131.533 158.649C132.913 161.256 135.673 163.211 139.813 164.514C143.953 165.817 150.163 166.469 158.443 166.469H162.813C173.393 166.469 180.868 165.702 185.238 164.169C189.608 162.636 192.023 159.684 192.483 155.314H156.488V136.914H221.463V150.944C221.463 164.437 217.208 173.752 208.698 178.889C200.265 184.026 186.541 186.594 167.528 186.594Z" fill="white"/>
<path d="M297.903 175.344H288.273C272.553 175.344 261.483 173.124 255.063 168.684C248.643 164.244 245.433 156.324 245.433 144.924V140.964C245.433 129.564 248.643 121.644 255.063 117.204C261.483 112.764 272.553 110.544 288.273 110.544H297.903C313.623 110.544 324.693 112.764 331.113 117.204C337.593 121.644 340.833 129.564 340.833 140.964V144.924C340.833 156.324 337.593 164.244 331.113 168.684C324.693 173.124 313.623 175.344 297.903 175.344ZM291.603 159.684H294.573C301.293 159.684 306.333 159.144 309.693 158.064C313.113 156.984 315.363 155.424 316.443 153.384C317.523 151.284 318.063 148.164 318.063 144.024V141.954C318.063 138.834 317.793 136.374 317.253 134.574C316.713 132.714 315.603 131.124 313.923 129.804C312.243 128.424 309.873 127.494 306.813 127.014C303.753 126.474 299.673 126.204 294.573 126.204H291.603C287.523 126.204 284.103 126.384 281.343 126.744C278.583 127.104 276.333 127.644 274.593 128.364C272.853 129.024 271.503 130.044 270.543 131.424C269.643 132.744 269.013 134.214 268.653 135.834C268.353 137.394 268.203 139.434 268.203 141.954V144.024C268.203 148.164 268.713 151.284 269.733 153.384C270.813 155.424 273.033 156.984 276.393 158.064C279.813 159.144 284.883 159.684 291.603 159.684Z" fill="white"/>
<path d="M415.303 117.444L443.933 166.444H424.123L418.523 156.714H384.783L379.253 166.444H360.073L388.703 117.444H415.303ZM402.003 127.804H401.373L391.363 145.164H411.943L402.003 127.804Z" fill="white"/>
<path d="M502.553 148.094V157.444H462.853V122.444H475.253V148.094H502.553Z" fill="white"/>
<path d="M523.753 138.244V108.944H552.553V138.244L546.653 153.244H529.653L523.753 138.244ZM550.553 178.944H525.653V160.244H550.553V178.944Z" fill="white"/>
<path d="M454.642 423.058C454.642 423.058 450.579 433.828 447.458 440.153C444.337 446.478 439.023 473.43 437.757 486.735C436.492 500.04 434.636 516.835 434.636 516.835C434.636 516.835 427.438 530.14 424.008 535.211C420.578 540.283 415.573 543.132 418.385 546.608C421.196 550.083 428.085 545.34 433.09 542.491C438.095 539.642 438.713 534.57 441.525 533.303C444.337 532.035 450.284 532.975 449.342 524.755C448.4 516.536 444.028 512.405 444.97 510.182C445.911 507.96 452.463 486.108 455.275 480.41C458.086 474.712 464.342 468.045 466.845 459.184C468.414 452.867 469.151 446.367 469.038 439.854C469.038 439.854 474.971 427.816 475.913 427.175C476.854 426.534 458.086 425.594 454.642 423.058Z" fill="white"/>
<mask id="mask0_189_1512" style="mask-type:luminance" maskUnits="userSpaceOnUse" x="417" y="423" width="59" height="125">
<path d="M454.65 423.058C454.65 423.058 450.587 433.828 447.466 440.153C444.345 446.478 439.031 473.43 437.766 486.735C436.501 500.04 434.645 516.835 434.645 516.835C434.645 516.835 427.447 530.14 424.016 535.211C420.586 540.283 415.581 543.132 418.393 546.608C421.205 550.083 428.093 545.34 433.098 542.491C438.103 539.642 438.722 534.57 441.533 533.303C444.345 532.035 450.292 532.975 449.35 524.755C448.408 516.536 444.036 512.405 444.978 510.182C445.92 507.96 452.471 486.108 455.283 480.41C458.095 474.712 464.351 468.045 466.853 459.184C468.422 452.867 469.16 446.367 469.046 439.854C469.046 439.854 474.979 427.816 475.921 427.175C476.863 426.534 458.095 425.594 454.65 423.058Z" fill="white"/>
</mask>
<g mask="url(#mask0_189_1512)">
<path d="M454.65 423.058C454.65 423.058 450.587 433.828 447.466 440.153C444.345 446.478 439.031 473.43 437.766 486.735C436.501 500.04 434.645 516.835 434.645 516.835C434.645 516.835 427.447 530.14 424.016 535.211C420.586 540.283 415.581 543.132 418.393 546.608C421.205 550.083 428.093 545.34 433.098 542.491C438.103 539.642 438.722 534.57 441.533 533.303C444.345 532.035 450.292 532.975 449.35 524.755C448.408 516.536 444.036 512.405 444.978 510.182C445.92 507.96 452.471 486.108 455.283 480.41C458.095 474.712 464.351 468.045 466.853 459.184C468.422 452.867 469.16 446.367 469.046 439.854C469.046 439.854 474.979 427.816 475.921 427.175C476.863 426.534 458.095 425.594 454.65 423.058Z" fill="#C9824B" stroke="#263238" stroke-width="0.25" stroke-linecap="round" stroke-linejoin="round"/>
<path opacity="0.25" d="M450.167 434.212C452.895 435.637 458.125 438.258 461.33 438.258H465.815C465.815 438.258 469.301 446.335 463.326 459.968C457.351 473.601 446.878 489.741 444.389 500.339C442.983 506.251 439.3 524.684 436.292 539.855C438.569 537.206 439.469 534.257 441.521 533.331C444.333 532.063 450.28 533.003 449.338 524.784C448.396 516.564 444.024 512.433 444.966 510.211C445.908 507.989 452.473 486.108 455.285 480.41C458.096 474.712 464.353 468.045 466.855 459.184C468.424 452.867 469.162 446.367 469.048 439.854C469.048 439.854 474.981 427.816 475.923 427.175C476.865 426.534 458.096 425.594 454.652 423.058C454.652 423.058 452.473 428.7 450.167 434.212Z" fill="black"/>
</g>
<path d="M454.642 423.058C454.642 423.058 450.579 433.828 447.458 440.153C444.337 446.478 439.023 473.43 437.757 486.735C436.492 500.04 434.636 516.835 434.636 516.835C434.636 516.835 427.438 530.14 424.008 535.211C420.578 540.283 415.573 543.132 418.385 546.608C421.196 550.083 428.085 545.34 433.09 542.491C438.095 539.642 438.713 534.57 441.525 533.303C444.337 532.035 450.284 532.975 449.342 524.755C448.4 516.536 444.028 512.405 444.97 510.182C445.911 507.96 452.463 486.108 455.275 480.41C458.086 474.712 464.342 468.045 466.845 459.184C468.414 452.867 469.151 446.367 469.038 439.854C469.038 439.854 474.971 427.816 475.913 427.175C476.854 426.534 458.086 425.594 454.642 423.058Z" stroke="#263238" stroke-width="0.25" stroke-linecap="round" stroke-linejoin="round"/>
<path d="M418.37 546.636C421.182 550.126 428.071 545.368 433.076 542.519C438.081 539.67 438.699 534.599 441.511 533.331C444.323 532.063 450.269 533.003 449.328 524.784C448.498 517.462 444.955 513.388 444.829 511.023C444.179 513.352 442.797 515.402 440.892 516.864C436.829 520.354 434.636 516.864 434.636 516.864C434.636 516.864 427.438 530.169 424.008 535.24C420.578 540.311 415.559 543.203 418.37 546.636Z" fill="#263238" stroke="#263238" stroke-width="0.25" stroke-linecap="round" stroke-linejoin="round"/>
<path d="M449.342 524.855C447.823 526.207 446.135 527.351 444.323 528.26C439.009 530.795 437.758 535.539 430.265 541.565C428.556 543.086 426.532 544.198 424.342 544.82C422.152 545.441 419.852 545.556 417.612 545.155C417.753 545.68 418.007 546.166 418.357 546.579C421.169 550.069 428.057 545.311 433.062 542.462C438.067 539.613 438.686 534.542 441.497 533.274C444.309 532.006 450.214 532.989 449.342 524.855Z" fill="white" stroke="#263238" stroke-width="0.25" stroke-linecap="round" stroke-linejoin="round"/>
<path d="M535.324 424.64L542.522 435.737C542.522 435.737 545.643 450.31 550.338 459.811C555.034 469.313 566.604 485.453 572.228 492.447C577.851 499.442 579.735 513.046 579.735 513.046C579.735 513.046 576.923 519.071 578.793 523.502C580.663 527.932 585.991 531.109 586.933 535.226C587.875 539.342 593.498 549.172 597.871 548.531C602.243 547.89 605.069 542.206 601.624 533.958C598.18 525.71 591.614 519.385 589.745 510.823C587.875 502.262 581.928 466.777 576.923 455.694C574.083 449.304 570.736 443.159 566.913 437.318L562.218 418.301C562.218 418.301 544.715 427.816 535.324 424.64Z" fill="white"/>
<mask id="mask1_189_1512" style="mask-type:luminance" maskUnits="userSpaceOnUse" x="535" y="418" width="69" height="131">
<path d="M535.333 424.64L542.531 435.737C542.531 435.737 545.652 450.31 550.347 459.811C555.043 469.313 566.613 485.453 572.236 492.447C577.86 499.442 579.744 513.046 579.744 513.046C579.744 513.046 576.932 519.071 578.802 523.502C580.672 527.932 586 531.109 586.942 535.226C587.884 539.342 593.507 549.172 597.879 548.531C602.252 547.89 605.077 542.206 601.633 533.958C598.189 525.71 591.623 519.385 589.753 510.823C587.884 502.262 581.937 466.777 576.932 455.694C574.092 449.304 570.745 443.159 566.922 437.318L562.227 418.301C562.227 418.301 544.724 427.816 535.333 424.64Z" fill="white"/>
</mask>
<g mask="url(#mask1_189_1512)">
<path d="M535.333 424.64L542.531 435.737C542.531 435.737 545.652 450.31 550.347 459.811C555.043 469.313 566.613 485.453 572.236 492.447C577.86 499.442 579.744 513.046 579.744 513.046C579.744 513.046 576.932 519.071 578.802 523.502C580.672 527.932 586 531.109 586.942 535.226C587.884 539.342 593.507 549.172 597.879 548.531C602.252 547.89 605.077 542.206 601.633 533.958C598.189 525.71 591.623 519.385 589.753 510.823C587.884 502.262 581.937 466.777 576.932 455.694C574.092 449.304 570.745 443.159 566.922 437.318L562.227 418.301C562.227 418.301 544.724 427.816 535.333 424.64Z" fill="#C9824B" stroke="#263238" stroke-width="0.25" stroke-linecap="round" stroke-linejoin="round"/>
<path opacity="0.25" d="M576.932 455.694C574.092 449.304 570.745 443.159 566.922 437.318L562.227 418.301C562.227 418.301 544.724 427.816 535.333 424.64L542.488 435.666C543.711 435.666 545.061 435.737 546.509 435.737C550.451 435.632 554.338 434.777 557.967 433.215C557.967 433.215 569.917 452.389 575.892 468.544C580.039 479.755 585.395 496.778 588.938 506.835C586.506 494.37 581.346 465.495 576.932 455.694Z" fill="black"/>
</g>
<path d="M535.324 424.64L542.522 435.737C542.522 435.737 545.643 450.31 550.338 459.811C555.034 469.313 566.604 485.453 572.228 492.447C577.851 499.442 579.735 513.046 579.735 513.046C579.735 513.046 576.923 519.071 578.793 523.502C580.663 527.932 585.991 531.109 586.933 535.226C587.875 539.342 593.498 549.172 597.871 548.531C602.243 547.89 605.069 542.206 601.624 533.958C598.18 525.71 591.614 519.385 589.745 510.823C587.875 502.262 581.928 466.777 576.923 455.694C574.083 449.304 570.736 443.159 566.913 437.318L562.218 418.301C562.218 418.301 544.715 427.816 535.324 424.64Z" stroke="#263238" stroke-width="0.25" stroke-linecap="round" stroke-linejoin="round"/>
<path d="M601.621 533.958C598.655 526.835 593.369 521.137 590.768 514.257C590.314 515.614 589.531 516.834 588.491 517.804C585.046 520.653 579.732 513.046 579.732 513.046C579.732 513.046 576.92 519.072 578.79 523.502C580.66 527.932 585.988 531.109 586.93 535.226C587.872 539.343 593.495 549.172 597.868 548.531C602.24 547.89 605.066 542.206 601.621 533.958Z" fill="#263238" stroke="#263238" stroke-width="0.25" stroke-linecap="round" stroke-linejoin="round"/>
<path d="M586.93 535.226C587.326 536.712 587.892 538.146 588.617 539.499C588.448 539.139 588.302 538.768 588.182 538.388C586.607 533.317 585.679 526.992 582.235 523.801C580.551 522.121 579.217 520.115 578.312 517.903C577.966 519.774 578.131 521.705 578.79 523.487C580.674 527.946 586.017 531.109 586.93 535.226Z" fill="white" stroke="#263238" stroke-width="0.25" stroke-linecap="round" stroke-linejoin="round"/>
<path d="M602.892 538.032C602.513 540.696 601.74 543.73 600.081 545.368C597.17 548.317 591.8 544.912 589.27 540.71C591.533 544.784 594.991 548.958 597.887 548.531C601.486 548.018 604.031 544.029 602.892 538.032Z" fill="white" stroke="#263238" stroke-width="0.25" stroke-linecap="round" stroke-linejoin="round"/>
<path d="M547.527 325.151C547.527 325.151 548.146 325.778 545.334 327.672C542.522 329.567 535.647 331.162 537.208 333.698C538.768 336.234 540.329 337.501 539.078 338.456C537.827 339.41 535.957 339.41 534.396 340.664C532.836 341.917 528.14 326.732 528.14 326.732C528.14 326.732 539.71 320.977 547.527 325.151Z" fill="white"/>
<mask id="mask2_189_1512" style="mask-type:luminance" maskUnits="userSpaceOnUse" x="528" y="323" width="20" height="18">
<path d="M547.528 325.151C547.528 325.151 548.147 325.778 545.335 327.672C542.524 329.567 535.649 331.162 537.209 333.698C538.77 336.234 540.33 337.501 539.079 338.456C537.828 339.41 535.958 339.41 534.398 340.664C532.837 341.918 528.142 326.732 528.142 326.732C528.142 326.732 539.712 320.977 547.528 325.151Z" fill="white"/>
</mask>
<g mask="url(#mask2_189_1512)">
<path d="M547.528 325.151C547.528 325.151 548.147 325.778 545.335 327.672C542.524 329.567 535.649 331.162 537.209 333.698C538.77 336.234 540.33 337.501 539.079 338.456C537.828 339.41 535.958 339.41 534.398 340.664C532.837 341.918 528.142 326.732 528.142 326.732C528.142 326.732 539.712 320.977 547.528 325.151Z" fill="#034694"/>
<path opacity="0.25" d="M547.528 325.151C547.528 325.151 548.147 325.778 545.335 327.672C542.524 329.567 535.649 331.162 537.209 333.698C538.77 336.234 540.33 337.501 539.079 338.456C537.828 339.41 535.958 339.41 534.398 340.664C532.837 341.918 528.142 326.732 528.142 326.732C528.142 326.732 539.712 320.977 547.528 325.151Z" fill="black"/>
</g>
<path d="M547.527 325.151C547.527 325.151 548.146 325.778 545.334 327.672C542.522 329.567 535.647 331.162 537.208 333.698C538.768 336.234 540.329 337.501 539.078 338.456C537.827 339.41 535.957 339.41 534.396 340.664C532.836 341.917 528.14 326.732 528.14 326.732C528.14 326.732 539.71 320.977 547.527 325.151Z" stroke="#034694" stroke-width="0.25" stroke-linecap="round" stroke-linejoin="round"/>
<path d="M475.914 335.607L473.102 352.074C473.102 352.074 461.532 377.431 457.469 390.423C453.406 403.414 447.459 426.221 447.459 426.221C447.459 426.221 451.832 429.711 464.977 431.919C478.121 434.127 494.64 425.594 494.64 425.594C494.64 425.594 499.645 398.343 501.206 394.853C502.766 391.363 507.138 382.175 507.138 382.175H511.215L521.844 424.013C521.844 424.013 531.53 426.549 537.168 427.489C542.805 428.429 551.226 429.07 558.748 423.685C563.624 419.932 567.67 415.187 570.627 409.753C570.627 409.753 558.748 381.263 553.419 369.511C548.091 357.758 535.916 337.815 535.916 337.815L532.163 324.823L475.914 335.607Z" fill="#263238" stroke="#263238" stroke-width="0.25" stroke-linecap="round" stroke-linejoin="round"/>
<path d="M476.546 358.413L489.677 371.092" stroke="white" stroke-width="0.25" stroke-linecap="round" stroke-linejoin="round"/>
<path d="M492.503 375.18L494.682 376.79" stroke="white" stroke-width="0.25" stroke-linecap="round" stroke-linejoin="round"/>
<path d="M476.852 363.485L490.01 373.314" stroke="white" stroke-width="0.25" stroke-linecap="round" stroke-linejoin="round"/>
<path d="M487.978 424.967C489.848 424.264 491.67 423.436 493.432 422.489" stroke="white" stroke-width="0.25" stroke-linecap="round" stroke-linejoin="round"/>
<path d="M450.905 423.685C460.283 427.639 470.584 428.781 480.583 426.976" stroke="white" stroke-width="0.25" stroke-linecap="round" stroke-linejoin="round"/>
<path d="M523.139 420.836C523.139 420.836 544.719 434.782 568.126 408.158" stroke="white" stroke-width="0.25" stroke-linecap="round" stroke-linejoin="round"/>
<path d="M539.711 349.225L533.455 361.263" stroke="white" stroke-width="0.25" stroke-linecap="round" stroke-linejoin="round"/>
<path d="M488.73 345.108C500.344 346.298 512.051 344.098 522.471 338.769" stroke="white" stroke-width="0.25" stroke-linecap="round" stroke-linejoin="round"/>
<path d="M534.231 331.86L532.206 324.823L475.972 335.607L475.466 338.541C484.664 341.265 494.345 341.883 503.808 340.35C514.225 338.655 524.426 335.808 534.231 331.86Z" fill="white"/>
<mask id="mask3_189_1512" style="mask-type:luminance" maskUnits="userSpaceOnUse" x="475" y="324" width="60" height="18">
<path d="M534.232 331.86L532.207 324.823L475.973 335.607L475.467 338.541C484.665 341.265 494.346 341.883 503.809 340.35C514.226 338.655 524.427 335.808 534.232 331.86Z" fill="white"/>
</mask>
<g mask="url(#mask3_189_1512)">
<path d="M534.232 331.86L532.207 324.823L475.973 335.607L475.467 338.541C484.665 341.265 494.346 341.883 503.809 340.35C514.226 338.655 524.427 335.808 534.232 331.86Z" fill="#DBA111" stroke="#263238" stroke-width="0.25" stroke-linecap="round" stroke-linejoin="round"/>
</g>
<path d="M534.231 331.86L532.206 324.823L475.972 335.607L475.466 338.541C484.664 341.265 494.345 341.883 503.808 340.35C514.225 338.655 524.426 335.808 534.231 331.86Z" stroke="#263238" stroke-width="0.25" stroke-linecap="round" stroke-linejoin="round"/>
<path d="M565.13 210.12C562.05 198.823 557.976 187.829 552.955 177.271C549.145 169.051 545.363 158.752 539.487 151.814C535.733 147.384 528.844 143.894 527.284 144.535C525.723 145.176 518.849 148.011 518.849 151.814C518.849 155.618 521.351 155.618 521.351 155.618C521.351 155.618 520.719 160.376 522.602 162.27C524.486 164.165 534.173 163.538 534.173 163.538C535.903 166.116 537.341 168.883 538.461 171.786C540.33 178.111 541.989 179.379 543.241 190.79C544.478 199.869 546.252 208.864 548.555 217.727C547.349 218.478 546.287 219.444 545.42 220.576C543.55 222.799 531.67 234.822 531.67 234.822C528.234 236.473 524.676 237.849 521.028 238.938C517.828 239.947 514.73 241.264 511.777 242.87C509.851 242.642 507.911 242.429 506.871 242.429C504.678 242.429 489.368 245.278 489.368 245.278C485.829 243.145 482.054 241.443 478.121 240.206C474.473 239.117 470.915 237.74 467.479 236.089C467.479 236.089 455.599 224.052 453.729 221.844C452.862 220.711 451.8 219.746 450.594 218.995C452.897 210.132 454.671 201.136 455.908 192.057C456.921 182.855 459.535 172.399 464.99 164.806C464.99 164.806 474.677 165.447 476.56 163.538C478.444 161.629 477.798 156.886 477.798 156.886C477.798 156.886 480.3 156.886 480.3 153.082C480.3 149.279 473.425 146.43 471.865 145.803C470.304 145.176 463.43 148.652 459.662 153.082C455.894 157.513 456.232 161.957 452.478 168.296C448.724 174.635 435.608 205.334 434.019 211.388C432.43 217.442 430.589 220.89 430.898 223.753C431.207 226.616 446.222 243.07 449.976 247.514C453.729 251.959 468.111 267.158 468.111 267.158C468.111 267.158 473.425 293.768 474.986 303.284C476.546 312.8 475.619 339.083 475.619 339.083C475.619 339.083 492.812 335.279 509.078 333.385C525.344 331.49 543.156 325.151 545.349 325.151H547.542C547.542 325.151 535.34 309.937 535.34 307.715C535.34 305.948 535.747 273.668 535.902 260.705C540.443 255.862 546.868 248.967 549.187 246.218C552.941 241.773 567.956 225.306 568.265 222.457C568.574 219.608 566.69 216.146 565.13 210.12Z" fill="white"/>
<mask id="mask4_189_1512" style="mask-type:luminance" maskUnits="userSpaceOnUse" x="430" y="144" width="139" height="196">
<path d="M565.13 210.12C562.05 198.823 557.976 187.829 552.955 177.271C549.145 169.051 545.363 158.752 539.487 151.814C535.733 147.384 528.844 143.894 527.284 144.535C525.723 145.176 518.849 148.011 518.849 151.814C518.849 155.618 521.351 155.618 521.351 155.618C521.351 155.618 520.719 160.376 522.602 162.27C524.486 164.165 534.173 163.538 534.173 163.538C535.903 166.116 537.341 168.883 538.461 171.786C540.33 178.111 541.989 179.379 543.241 190.79C544.478 199.869 546.252 208.864 548.555 217.727C547.349 218.478 546.287 219.444 545.42 220.576C543.55 222.799 531.67 234.822 531.67 234.822C528.234 236.473 524.676 237.849 521.028 238.938C517.828 239.947 514.73 241.264 511.777 242.87C509.851 242.642 507.911 242.429 506.871 242.429C504.678 242.429 489.368 245.278 489.368 245.278C485.829 243.145 482.054 241.443 478.121 240.206C474.473 239.117 470.915 237.74 467.479 236.089C467.479 236.089 455.599 224.052 453.729 221.844C452.862 220.711 451.8 219.746 450.594 218.995C452.897 210.132 454.671 201.136 455.908 192.057C456.921 182.855 459.535 172.399 464.99 164.806C464.99 164.806 474.677 165.447 476.56 163.538C478.444 161.629 477.798 156.886 477.798 156.886C477.798 156.886 480.3 156.886 480.3 153.082C480.3 149.279 473.425 146.43 471.865 145.803C470.304 145.176 463.43 148.652 459.662 153.082C455.894 157.513 456.232 161.957 452.478 168.296C448.724 174.635 435.608 205.334 434.019 211.388C432.43 217.442 430.589 220.89 430.898 223.753C431.207 226.616 446.222 243.07 449.976 247.514C453.729 251.959 468.111 267.158 468.111 267.158C468.111 267.158 473.425 293.768 474.986 303.284C476.546 312.8 475.619 339.083 475.619 339.083C475.619 339.083 492.812 335.279 509.078 333.385C525.344 331.49 543.156 325.151 545.349 325.151H547.542C547.542 325.151 535.34 309.937 535.34 307.715C535.34 305.948 535.747 273.668 535.902 260.705C540.443 255.862 546.868 248.967 549.187 246.218C552.941 241.773 567.956 225.306 568.265 222.457C568.574 219.608 566.69 216.146 565.13 210.12Z" fill="white"/>
</mask>
<g mask="url(#mask4_189_1512)">
<path d="M565.13 210.12C562.05 198.823 557.976 187.829 552.955 177.271C549.145 169.051 545.363 158.752 539.487 151.814C535.733 147.384 528.844 143.894 527.284 144.535C525.723 145.176 518.849 148.011 518.849 151.814C518.849 155.618 521.351 155.618 521.351 155.618C521.351 155.618 520.719 160.376 522.602 162.27C524.486 164.165 534.173 163.538 534.173 163.538C535.903 166.116 537.341 168.883 538.461 171.786C540.33 178.111 541.989 179.379 543.241 190.79C544.478 199.869 546.252 208.864 548.555 217.727C547.349 218.478 546.287 219.444 545.42 220.576C543.55 222.799 531.67 234.822 531.67 234.822C528.234 236.473 524.676 237.849 521.028 238.938C517.828 239.947 514.73 241.264 511.777 242.87C509.851 242.642 507.911 242.429 506.871 242.429C504.678 242.429 489.368 245.278 489.368 245.278C485.829 243.145 482.054 241.443 478.121 240.206C474.473 239.117 470.915 237.74 467.479 236.089C467.479 236.089 455.599 224.052 453.729 221.844C452.862 220.711 451.8 219.746 450.594 218.995C452.897 210.132 454.671 201.136 455.908 192.057C456.921 182.855 459.535 172.399 464.99 164.806C464.99 164.806 474.677 165.447 476.56 163.538C478.444 161.629 477.798 156.886 477.798 156.886C477.798 156.886 480.3 156.886 480.3 153.082C480.3 149.279 473.425 146.43 471.865 145.803C470.304 145.176 463.43 148.652 459.662 153.082C455.894 157.513 456.232 161.957 452.478 168.296C448.724 174.635 435.608 205.334 434.019 211.388C432.43 217.442 430.589 220.89 430.898 223.753C431.207 226.616 446.222 243.07 449.976 247.514C453.729 251.959 468.111 267.158 468.111 267.158C468.111 267.158 473.425 293.768 474.986 303.284C476.546 312.8 475.619 339.083 475.619 339.083C475.619 339.083 492.812 335.279 509.078 333.385C525.344 331.49 543.156 325.151 545.349 325.151H547.542C547.542 325.151 535.34 309.937 535.34 307.715C535.34 305.948 535.747 273.668 535.902 260.705C540.443 255.862 546.868 248.967 549.187 246.218C552.941 241.773 567.956 225.306 568.265 222.457C568.574 219.608 566.69 216.146 565.13 210.12Z" fill="#C9824B" stroke="#263238" stroke-width="0.25" stroke-linecap="round" stroke-linejoin="round"/>
<path opacity="0.25" d="M476.855 309.581C475.913 305.136 474.662 279.466 473.102 271.232C471.541 262.999 467.787 259.836 465.594 256.346C463.401 252.856 457.159 247.799 449.328 239.252C441.498 230.705 434.328 223.425 435.593 217.086C436.451 212.685 444.886 187.898 449.947 173.211C444.703 184.108 435.326 206.36 434.019 211.388C432.458 217.414 430.588 220.89 430.898 223.753C431.207 226.616 446.222 243.07 449.975 247.514C453.729 251.959 468.111 267.158 468.111 267.158C468.111 267.158 473.425 293.768 474.985 303.284C475.614 308.378 475.91 313.508 475.871 318.641C476.658 314.581 477.165 311.005 476.855 309.581Z" fill="black"/>
<path opacity="0.25" d="M563.526 220.89C563.526 225.648 540.695 242.756 535.409 251.631C530.123 260.506 531.655 282.372 531.655 291.233C531.757 294.83 531.654 298.431 531.346 302.017L535.423 307.031C535.423 301.96 535.816 272.842 535.971 260.734C540.512 255.89 546.937 248.996 549.256 246.246C553.01 241.802 568.025 225.334 568.334 222.485C568.643 219.636 566.773 216.146 565.213 210.12C562.133 198.823 558.059 187.829 553.038 177.271C549.228 169.051 545.447 158.752 539.57 151.815C539.57 151.815 549.481 176.217 555.428 192.371C561.375 208.525 563.526 216.146 563.526 220.89Z" fill="black"/>
</g>
<path d="M565.13 210.12C562.05 198.823 557.976 187.829 552.955 177.271C549.145 169.051 545.363 158.752 539.487 151.814C535.733 147.384 528.844 143.894 527.284 144.535C525.723 145.176 518.849 148.011 518.849 151.814C518.849 155.618 521.351 155.618 521.351 155.618C521.351 155.618 520.719 160.376 522.602 162.27C524.486 164.165 534.173 163.538 534.173 163.538C535.903 166.116 537.341 168.883 538.461 171.786C540.33 178.111 541.989 179.379 543.241 190.79C544.478 199.869 546.252 208.864 548.555 217.727C547.349 218.478 546.287 219.444 545.42 220.576C543.55 222.799 531.67 234.822 531.67 234.822C528.234 236.473 524.676 237.849 521.028 238.938C517.828 239.947 514.73 241.264 511.777 242.87C509.851 242.642 507.911 242.429 506.871 242.429C504.678 242.429 489.368 245.278 489.368 245.278C485.829 243.145 482.054 241.443 478.121 240.206C474.473 239.117 470.915 237.74 467.479 236.089C467.479 236.089 455.599 224.052 453.729 221.844C452.862 220.711 451.8 219.746 450.594 218.995C452.897 210.132 454.671 201.136 455.908 192.057C456.921 182.855 459.535 172.399 464.99 164.806C464.99 164.806 474.677 165.447 476.56 163.538C478.444 161.629 477.798 156.886 477.798 156.886C477.798 156.886 480.3 156.886 480.3 153.082C480.3 149.279 473.425 146.43 471.865 145.803C470.304 145.176 463.43 148.652 459.662 153.082C455.894 157.513 456.232 161.957 452.478 168.296C448.724 174.635 435.608 205.334 434.019 211.388C432.43 217.442 430.589 220.89 430.898 223.753C431.207 226.616 446.222 243.07 449.976 247.514C453.729 251.959 468.111 267.158 468.111 267.158C468.111 267.158 473.425 293.768 474.986 303.284C476.546 312.8 475.619 339.083 475.619 339.083C475.619 339.083 492.812 335.279 509.078 333.385C525.344 331.49 543.156 325.151 545.349 325.151H547.542C547.542 325.151 535.34 309.937 535.34 307.715C535.34 305.948 535.747 273.668 535.902 260.705C540.443 255.862 546.868 248.967 549.187 246.218C552.941 241.773 567.956 225.306 568.265 222.457C568.574 219.608 566.69 216.146 565.13 210.12Z" stroke="#263238" stroke-width="0.25" stroke-linecap="round" stroke-linejoin="round"/>
<path d="M477.769 156.886C477.769 156.886 469.952 150.233 469.334 153.082C468.715 155.931 474.029 159.735 474.029 159.735" stroke="#263238" stroke-width="0.25" stroke-linecap="round" stroke-linejoin="round"/>
<path d="M467.158 156.259C467.241 157.091 467.162 157.931 466.924 158.732C466.687 159.532 466.295 160.278 465.773 160.925C465.251 161.572 464.607 162.108 463.88 162.503C463.152 162.898 462.355 163.143 461.534 163.225" stroke="#263238" stroke-width="0.25" stroke-linecap="round" stroke-linejoin="round"/>
<path d="M471.541 157.84L465.285 154.664L465.594 152.455L467.464 151.501" stroke="#263238" stroke-width="0.25" stroke-linecap="round" stroke-linejoin="round"/>
<path d="M472.148 147.84C472.465 149.596 472.66 151.371 472.732 153.154" stroke="#263238" stroke-width="0.25" stroke-linecap="round" stroke-linejoin="round"/>
<path d="M475.63 148.723C475.98 150.874 475.98 153.068 475.63 155.219" stroke="#263238" stroke-width="0.25" stroke-linecap="round" stroke-linejoin="round"/>
<path d="M478.839 150.205C478.979 151.193 478.864 152.201 478.507 153.132C478.15 154.063 477.562 154.885 476.801 155.518" stroke="#263238" stroke-width="0.25" stroke-linecap="round" stroke-linejoin="round"/>
<path d="M521.348 155.618C521.348 155.618 532.201 152.769 530.641 155.931C529.08 159.094 524.076 160.062 524.076 160.062" stroke="#263238" stroke-width="0.25" stroke-linecap="round" stroke-linejoin="round"/>
<path d="M537.21 160.376C535.846 159.28 534.376 158.325 532.824 157.527C531.263 156.886 530.954 154.678 530.954 154.678C530.954 154.678 534.398 154.051 534.398 152.47C534.398 150.888 531.896 149.621 531.896 149.621L531.573 151.216" stroke="#263238" stroke-width="0.25" stroke-linecap="round" stroke-linejoin="round"/>
<path d="M527.493 147.185C527.493 147.185 526.255 153.467 530.951 154.607" stroke="#263238" stroke-width="0.25" stroke-linecap="round" stroke-linejoin="round"/>
<path d="M523.99 147.541C523.99 147.541 523.118 152.27 526.028 154.664" stroke="#263238" stroke-width="0.25" stroke-linecap="round" stroke-linejoin="round"/>
<path d="M521.351 149.322C521.351 149.322 520.465 153.453 522.503 154.92" stroke="#263238" stroke-width="0.25" stroke-linecap="round" stroke-linejoin="round"/>
<path d="M509.061 333.385C525.327 331.476 543.139 325.151 545.333 325.151H547.526C547.526 325.151 535.323 309.937 535.323 307.715C535.323 305.948 535.731 273.668 535.885 260.705L542.914 253.141C539.47 252.101 535.745 250.292 534.367 247.172C532.652 243.312 533.481 236.631 534.367 231.987L531.555 234.836C528.119 236.487 524.561 237.863 520.913 238.953C517.713 239.961 514.615 241.278 511.662 242.884C509.736 242.656 507.796 242.443 506.756 242.443C504.563 242.443 489.253 245.292 489.253 245.292C485.714 243.159 481.939 241.457 478.006 240.221C474.358 239.131 470.8 237.755 467.363 236.104L466.914 235.648C467.573 240.843 467.723 246.092 467.363 251.318C466.773 256.004 463.061 258.198 460.489 259.167C464.495 263.44 467.996 267.158 467.996 267.158C467.996 267.158 473.31 293.768 474.871 303.284C476.431 312.8 475.503 339.083 475.503 339.083C475.503 339.083 492.796 335.222 509.061 333.385Z" fill="#034694" stroke="#263238" stroke-width="0.25" stroke-linecap="round" stroke-linejoin="round"/>
<path d="M502.256 274.48C500.973 273.082 499.798 271.587 498.741 270.007" stroke="#263238" stroke-width="0.25" stroke-linecap="round" stroke-linejoin="round"/>
<path d="M535.323 307.715C529.282 300.459 522.702 293.682 515.641 287.444C512.028 284.324 509.118 281.617 506.812 279.31" stroke="#263238" stroke-width="0.25" stroke-linecap="round" stroke-linejoin="round"/>
<path d="M483.009 230.847C483.009 230.847 481.308 227.386 477.61 220.477C473.913 213.568 477.034 201.488 490.966 196.872C504.898 192.257 513.699 200.904 515.681 206.659C517.663 212.414 515.962 218.753 514.823 222.215C514.15 224.257 513.771 226.387 513.699 228.539C512.966 227.647 512.103 226.874 511.14 226.246C509.144 224.821 505.741 209.536 501.186 208.397C496.631 207.257 486.987 209.864 486.2 216.987C485.413 224.109 485.286 235.163 483.009 230.847Z" fill="#263238" stroke="#263238" stroke-width="0.25" stroke-linecap="round" stroke-linejoin="round"/>
<path d="M512.566 227.386C512.566 227.386 514.267 222.499 516.544 224.807C518.822 227.115 517.669 231.93 516.249 234.01C514.829 236.089 513.704 234.879 512.847 232.585C512.34 230.9 512.244 229.116 512.566 227.386Z" fill="white"/>
<mask id="mask5_189_1512" style="mask-type:luminance" maskUnits="userSpaceOnUse" x="512" y="224" width="6" height="12">
<path d="M512.566 227.386C512.566 227.386 514.267 222.499 516.544 224.807C518.822 227.115 517.669 231.93 516.249 234.01C514.829 236.089 513.704 234.879 512.847 232.585C512.34 230.9 512.244 229.116 512.566 227.386Z" fill="white"/>
</mask>
<g mask="url(#mask5_189_1512)">
<path d="M512.566 227.386C512.566 227.386 514.267 222.499 516.544 224.807C518.822 227.115 517.669 231.93 516.249 234.01C514.829 236.089 513.704 234.879 512.847 232.585C512.34 230.9 512.244 229.116 512.566 227.386Z" fill="#C9824B" stroke="#263238" stroke-width="0.25" stroke-linecap="round" stroke-linejoin="round"/>
</g>
<path d="M512.566 227.386C512.566 227.386 514.267 222.499 516.544 224.807C518.822 227.115 517.669 231.93 516.249 234.01C514.829 236.089 513.704 234.879 512.847 232.585C512.34 230.9 512.244 229.116 512.566 227.386Z" stroke="#263238" stroke-width="0.25" stroke-linecap="round" stroke-linejoin="round"/>
<path d="M484.307 230.235C484.307 230.235 481.369 225.961 479.795 228.81C478.22 231.659 480.61 236.061 482.522 237.599C484.434 239.138 485.207 237.742 485.418 235.292C485.453 233.54 485.072 231.806 484.307 230.235Z" fill="white"/>
<mask id="mask6_189_1512" style="mask-type:luminance" maskUnits="userSpaceOnUse" x="479" y="227" width="7" height="12">
<path d="M484.307 230.235C484.307 230.235 481.369 225.961 479.795 228.81C478.22 231.659 480.61 236.061 482.522 237.599C484.434 239.138 485.207 237.742 485.418 235.292C485.453 233.54 485.072 231.806 484.307 230.235Z" fill="white"/>
</mask>
<g mask="url(#mask6_189_1512)">
<path d="M484.307 230.235C484.307 230.235 481.369 225.961 479.795 228.81C478.22 231.659 480.61 236.061 482.522 237.599C484.434 239.138 485.207 237.742 485.418 235.292C485.453 233.54 485.072 231.806 484.307 230.235Z" fill="#C9824B" stroke="#263238" stroke-width="0.25" stroke-linecap="round" stroke-linejoin="round"/>
</g>
<path d="M484.307 230.235C484.307 230.235 481.369 225.961 479.795 228.81C478.22 231.659 480.61 236.061 482.522 237.599C484.434 239.138 485.207 237.742 485.418 235.292C485.453 233.54 485.072 231.806 484.307 230.235Z" stroke="#263238" stroke-width="0.25" stroke-linecap="round" stroke-linejoin="round"/>
<path d="M488.126 243.796C487.997 247.941 488.28 252.088 488.969 256.175C489.578 259.876 490.433 263.531 491.528 267.116L501.763 257.329L514.542 264.238C514.542 264.238 516.538 251.004 512.56 245.235C508.581 239.466 495.507 238.91 492.104 240.961C490.627 241.667 489.281 242.626 488.126 243.796Z" fill="white" stroke="#263238" stroke-width="0.25" stroke-linecap="round" stroke-linejoin="round"/>
<path d="M491.829 246.688C491.829 246.688 499.223 266.261 503.202 264.822C507.181 263.383 508.319 246.104 508.319 246.104C508.319 246.104 496.046 248.696 491.829 246.688Z" fill="white"/>
<mask id="mask7_189_1512" style="mask-type:luminance" maskUnits="userSpaceOnUse" x="491" y="246" width="18" height="19">
<path d="M491.829 246.688C491.829 246.688 499.223 266.261 503.202 264.822C507.181 263.383 508.319 246.104 508.319 246.104C508.319 246.104 496.046 248.696 491.829 246.688Z" fill="white"/>
</mask>
<g mask="url(#mask7_189_1512)">
<path d="M491.829 246.688C491.829 246.688 499.223 266.261 503.202 264.822C507.181 263.383 508.319 246.104 508.319 246.104C508.319 246.104 496.046 248.696 491.829 246.688Z" fill="#C9824B" stroke="#263238" stroke-width="0.25" stroke-linecap="round" stroke-linejoin="round"/>
<path opacity="0.25" d="M491.829 246.688C491.829 246.688 499.223 266.261 503.202 264.822C507.181 263.383 508.319 246.104 508.319 246.104C508.319 246.104 496.046 248.696 491.829 246.688Z" fill="black"/>
</g>
<path d="M491.829 246.688C491.829 246.688 499.223 266.261 503.202 264.822C507.181 263.383 508.319 246.104 508.319 246.104C508.319 246.104 496.046 248.696 491.829 246.688Z" stroke="#263238" stroke-width="0.25" stroke-linecap="round" stroke-linejoin="round"/>
<path d="M482.156 222.499C482.156 222.499 483.562 235.163 485.291 240.919C487.02 246.674 493.586 251.902 502.387 250.463C511.187 249.024 514.322 236.032 514.322 235.163C514.322 234.295 513.76 218.753 510.344 212.998C506.927 207.243 500.404 201.773 491.308 206.089C482.212 210.405 481.313 219.337 482.156 222.499Z" fill="white"/>
<mask id="mask8_189_1512" style="mask-type:luminance" maskUnits="userSpaceOnUse" x="481" y="204" width="34" height="47">
<path d="M482.156 222.499C482.156 222.499 483.562 235.163 485.291 240.919C487.02 246.674 493.586 251.902 502.387 250.463C511.187 249.024 514.322 236.032 514.322 235.163C514.322 234.295 513.76 218.753 510.344 212.998C506.927 207.243 500.404 201.773 491.308 206.089C482.212 210.405 481.313 219.337 482.156 222.499Z" fill="white"/>
</mask>
<g mask="url(#mask8_189_1512)">
<path d="M482.156 222.499C482.156 222.499 483.562 235.163 485.291 240.919C487.02 246.674 493.586 251.902 502.387 250.463C511.187 249.024 514.322 236.032 514.322 235.163C514.322 234.295 513.76 218.753 510.344 212.998C506.927 207.243 500.404 201.773 491.308 206.089C482.212 210.405 481.313 219.337 482.156 222.499Z" fill="#C9824B" stroke="#263238" stroke-width="0.25" stroke-linecap="round" stroke-linejoin="round"/>
<path opacity="0.25" d="M514.324 235.163C514.324 234.295 513.761 218.753 510.345 212.998C509.666 211.846 508.884 210.759 508.011 209.75C508.841 213.34 513.143 232.671 509.74 239.266C505.987 246.56 497.861 247.201 490.354 243.397C484.73 240.548 483.184 224.009 482.72 215.619C481.946 217.825 481.771 220.201 482.214 222.499C482.214 222.499 483.62 235.163 485.349 240.919C487.078 246.674 493.643 251.902 502.444 250.463C511.245 249.024 514.324 236.032 514.324 235.163Z" fill="black"/>
</g>
<path d="M482.156 222.499C482.156 222.499 483.562 235.163 485.291 240.919C487.02 246.674 493.586 251.902 502.387 250.463C511.187 249.024 514.322 236.032 514.322 235.163C514.322 234.295 513.76 218.753 510.344 212.998C506.927 207.243 500.404 201.773 491.308 206.089C482.212 210.405 481.313 219.337 482.156 222.499Z" stroke="#263238" stroke-width="0.25" stroke-linecap="round" stroke-linejoin="round"/>
<path d="M490.237 229.907C492.728 230.646 495.368 230.71 497.891 230.092C500.415 229.475 502.734 228.198 504.619 226.388C505.884 226.816 505.406 234.551 498.419 235.676C496.585 235.963 494.712 235.524 493.189 234.45C491.666 233.376 490.609 231.749 490.237 229.907Z" fill="white" stroke="#263238" stroke-width="0.25" stroke-linecap="round" stroke-linejoin="round"/>
<path d="M494.274 223.055C494.274 223.055 492.531 225.519 493.403 226.388C494.274 227.257 497.733 227.443 499.476 225.519C501.219 223.596 498.436 221.83 498.436 221.83" stroke="#263238" stroke-width="0.25" stroke-linecap="round" stroke-linejoin="round"/>
<path d="M487.608 224.223C487.608 224.223 488.465 221.374 493.006 221.374" stroke="#263238" stroke-width="0.25" stroke-linecap="round" stroke-linejoin="round"/>
<path d="M500.908 220.192C501.738 219.263 502.875 218.673 504.104 218.531C505.333 218.39 506.57 218.706 507.586 219.422" stroke="#263238" stroke-width="0.25" stroke-linecap="round" stroke-linejoin="round"/>
<path d="M492.39 215.562C492.39 215.562 485.895 214.251 485.093 220.22" stroke="#263238" stroke-width="0.5" stroke-linecap="round" stroke-linejoin="round"/>
<path d="M499.281 214.821C499.281 214.821 503.864 211.061 508.124 215.092" stroke="#263238" stroke-width="0.5" stroke-linecap="round" stroke-linejoin="round"/>
<defs>
<filter id="filter0_d_189_1512" x="-4" y="0" width="619.459" height="205" filterUnits="userSpaceOnUse" color-interpolation-filters="sRGB">
<feFlood flood-opacity="0" result="BackgroundImageFix"/>
<feColorMatrix in="SourceAlpha" type="matrix" values="0 0 0 0 0 0 0 0 0 0 0 0 0 0 0 0 0 0 127 0" result="hardAlpha"/>
<feOffset dy="4"/>
<feGaussianBlur stdDeviation="2"/>
<feComposite in2="hardAlpha" operator="out"/>
<feColorMatrix type="matrix" values="0 0 0 0 0 0 0 0 0 0 0 0 0 0 0 0 0 0 0.25 0"/>
<feBlend mode="normal" in2="BackgroundImageFix" result="effect1_dropShadow_189_1512"/>
<feBlend mode="normal" in="SourceGraphic" in2="effect1_dropShadow_189_1512" result="shape"/>
</filter>
</defs>
</svg>
