<svg width="809" height="556" viewBox="0 0 809 556" fill="none" xmlns="http://www.w3.org/2000/svg">
<g filter="url(#filter0_d_189_1430)">
<path d="M35.88 126.075V148.5H7.36V68H35.88V100.2H36.915L89.01 68H130.755L77.51 100.545L132.135 148.5H91.425L53.935 115.61H53.015L35.88 126.075ZM136.542 68H162.417V81.8H136.542V68ZM136.542 87.55H162.417V148.5H136.542V87.55ZM216.806 149.65H211.286C196.336 149.65 185.641 147.503 179.201 143.21C172.761 138.917 169.541 131.212 169.541 120.095V115.955C169.541 104.838 172.761 97.1333 179.201 92.84C185.641 88.5467 196.336 86.4 211.286 86.4H216.806C226.619 86.4 234.554 87.3583 240.611 89.275C246.667 91.1917 250.999 93.7983 253.606 97.095C256.289 100.315 258.052 104.532 258.896 109.745H232.676C231.219 107.752 229.302 106.372 226.926 105.605C224.626 104.762 220.792 104.34 215.426 104.34C207.529 104.34 202.201 105.183 199.441 106.87C196.757 108.48 195.416 111.815 195.416 116.875V119.175C195.416 124.312 196.757 127.685 199.441 129.295C202.124 130.905 207.452 131.71 215.426 131.71C220.792 131.71 224.626 131.327 226.926 130.56C229.302 129.717 231.219 128.298 232.676 126.305H258.896C258.052 131.518 256.289 135.773 253.606 139.07C250.999 142.29 246.667 144.858 240.611 146.775C234.554 148.692 226.619 149.65 216.806 149.65ZM291.343 136.08V148.5H265.468V68H291.343V112.505H292.148L322.968 87.55H354.363L322.393 112.275L357.698 148.5H324.233L303.763 126.88H302.958L291.343 136.08ZM431.001 124.235H391.211V105.49H431.001V124.235ZM535.918 149.65H523.613C503.526 149.65 489.381 146.813 481.178 141.14C472.975 135.467 468.873 125.347 468.873 110.78V105.72C468.873 91.1533 472.975 81.0333 481.178 75.36C489.381 69.6867 503.526 66.85 523.613 66.85H535.918C556.005 66.85 570.15 69.6867 578.353 75.36C586.633 81.0333 590.773 91.1533 590.773 105.72V110.78C590.773 125.347 586.633 135.467 578.353 141.14C570.15 146.813 556.005 149.65 535.918 149.65ZM527.868 129.64H531.663C540.25 129.64 546.69 128.95 550.983 127.57C555.353 126.19 558.228 124.197 559.608 121.59C560.988 118.907 561.678 114.92 561.678 109.63V106.985C561.678 102.998 561.333 99.855 560.643 97.555C559.953 95.1783 558.535 93.1467 556.388 91.46C554.241 89.6967 551.213 88.5083 547.303 87.895C543.393 87.205 538.18 86.86 531.663 86.86H527.868C522.655 86.86 518.285 87.09 514.758 87.55C511.231 88.01 508.356 88.7 506.133 89.62C503.91 90.4633 502.185 91.7667 500.958 93.53C499.808 95.2167 499.003 97.095 498.543 99.165C498.16 101.158 497.968 103.765 497.968 106.985V109.63C497.968 114.92 498.62 118.907 499.923 121.59C501.303 124.197 504.14 126.19 508.433 127.57C512.803 128.95 519.281 129.64 527.868 129.64ZM611.12 105.145H596.055V87.55H611.235C611.772 80.1133 614.493 75.015 619.4 72.255C624.307 69.4183 631.59 68 641.25 68H657.465V82.26H647.23C643.473 82.26 640.79 82.605 639.18 83.295C637.647 83.985 636.88 85.2117 636.88 86.975V87.55H663.79C664.327 80.1133 667.048 75.015 671.955 72.255C676.862 69.4183 684.145 68 693.805 68H710.02V82.26H699.785C695.952 82.26 693.268 82.605 691.735 83.295C690.202 83.985 689.435 85.2117 689.435 86.975V87.55H710.02V105.145H689.435V148.5H663.675V105.145H636.88V148.5H611.12V105.145Z" fill="white" fill-opacity="0.1"/>
</g>
<path d="M132.799 163.019V185.444H104.279V104.944H132.799V137.144H133.834L185.929 104.944H227.674L174.429 137.489L229.054 185.444H188.344L150.854 152.554H149.934L132.799 163.019ZM233.461 104.944H259.336V118.744H233.461V104.944ZM233.461 124.494H259.336V185.444H233.461V124.494ZM313.724 186.594H308.204C293.254 186.594 282.559 184.447 276.119 180.154C269.679 175.861 266.459 168.156 266.459 157.039V152.899C266.459 141.782 269.679 134.077 276.119 129.784C282.559 125.491 293.254 123.344 308.204 123.344H313.724C323.538 123.344 331.473 124.302 337.529 126.219C343.586 128.136 347.918 130.742 350.524 134.039C353.208 137.259 354.971 141.476 355.814 146.689H329.594C328.138 144.696 326.221 143.316 323.844 142.549C321.544 141.706 317.711 141.284 312.344 141.284C304.448 141.284 299.119 142.127 296.359 143.814C293.676 145.424 292.334 148.759 292.334 153.819V156.119C292.334 161.256 293.676 164.629 296.359 166.239C299.043 167.849 304.371 168.654 312.344 168.654C317.711 168.654 321.544 168.271 323.844 167.504C326.221 166.661 328.138 165.242 329.594 163.249H355.814C354.971 168.462 353.208 172.717 350.524 176.014C347.918 179.234 343.586 181.802 337.529 183.719C331.473 185.636 323.538 186.594 313.724 186.594ZM388.262 173.024V185.444H362.387V104.944H388.262V149.449H389.067L419.887 124.494H451.282L419.312 149.219L454.617 185.444H421.152L400.682 163.824H399.877L388.262 173.024ZM527.92 161.179H488.13V142.434H527.92V161.179ZM632.837 186.594H620.532C600.445 186.594 586.3 183.757 578.097 178.084C569.894 172.411 565.792 162.291 565.792 147.724V142.664C565.792 128.097 569.894 117.977 578.097 112.304C586.3 106.631 600.445 103.794 620.532 103.794H632.837C652.924 103.794 667.069 106.631 675.272 112.304C683.552 117.977 687.692 128.097 687.692 142.664V147.724C687.692 162.291 683.552 172.411 675.272 178.084C667.069 183.757 652.924 186.594 632.837 186.594ZM624.787 166.584H628.582C637.169 166.584 643.609 165.894 647.902 164.514C652.272 163.134 655.147 161.141 656.527 158.534C657.907 155.851 658.597 151.864 658.597 146.574V143.929C658.597 139.942 658.252 136.799 657.562 134.499C656.872 132.122 655.454 130.091 653.307 128.404C651.16 126.641 648.132 125.452 644.222 124.839C640.312 124.149 635.099 123.804 628.582 123.804H624.787C619.574 123.804 615.204 124.034 611.677 124.494C608.15 124.954 605.275 125.644 603.052 126.564C600.829 127.407 599.104 128.711 597.877 130.474C596.727 132.161 595.922 134.039 595.462 136.109C595.079 138.102 594.887 140.709 594.887 143.929V146.574C594.887 151.864 595.539 155.851 596.842 158.534C598.222 161.141 601.059 163.134 605.352 164.514C609.722 165.894 616.2 166.584 624.787 166.584ZM708.039 142.089H692.974V124.494H708.154C708.69 117.057 711.412 111.959 716.319 109.199C721.225 106.362 728.509 104.944 738.169 104.944H754.384V119.204H744.149C740.392 119.204 737.709 119.549 736.099 120.239C734.565 120.929 733.799 122.156 733.799 123.919V124.494H760.709C761.246 117.057 763.967 111.959 768.874 109.199C773.78 106.362 781.064 104.944 790.724 104.944H806.939V119.204H796.704C792.87 119.204 790.187 119.549 788.654 120.239C787.12 120.929 786.354 122.156 786.354 123.919V124.494H806.939V142.089H786.354V185.444H760.594V142.089H733.799V185.444H708.039V142.089Z" fill="white"/>
<path d="M490.403 419.167C485.945 406.243 475.347 381.408 471.437 374.305H438.987L442.455 411.279L466.796 439.103C462.421 450.65 463.208 461.151 460.735 475.515C461.048 484.381 477.126 482.807 478.352 478.434C478.352 478.434 487.963 456.625 492.099 445.799C495.259 437.524 495.279 433.303 490.403 419.167Z" fill="#BD7B49"/>
<path d="M477.818 380.687L491.785 417.111C487.666 430 466.953 436.364 460.216 436.147C456.619 428.752 448.538 420.546 448.538 420.546C441.077 414.759 424.99 395.776 423.591 372.744H477.818V380.687Z" fill="black"/>
<path d="M456.253 429.726C458.481 429.502 460.682 429.155 462.872 428.606C465.817 427.867 468.694 426.833 471.43 425.516C476.87 422.897 481.809 419.23 485.841 414.732C487.057 413.376 488.181 411.949 489.24 410.474L489.817 411.98C487.405 415.43 484.375 418.494 481.13 421.068C476.255 424.933 470.599 427.838 464.603 429.505C462.175 430.18 459.635 430.685 457.092 430.913C456.816 430.512 456.537 430.117 456.253 429.726Z" fill="#F5F5F5"/>
<path opacity="0.2" d="M440.748 393.082H468.749C467.189 398.891 463.345 402.795 457.533 405.76L450.962 423.17C449.53 421.558 448.538 420.546 448.538 420.546C446.168 418.708 442.927 415.534 439.564 411.326L440.748 393.082Z" fill="black"/>
<path d="M421.371 372.239L462.427 375.876C459.964 384.578 438.145 443.545 433.598 454.969C429.978 464.065 428.527 465.072 417.052 496.009C417.131 497.92 415.937 502.711 414.399 506.857C414.399 506.857 412.296 519.969 401.877 518.507C391.457 517.045 396.196 504.897 396.196 504.897C396.542 499.902 396.331 494.195 397.408 492.566C398.324 479.788 398.613 475.991 399.968 466.055C401.843 452.306 404.15 448.573 406.088 441.819C408.026 435.065 409.88 422.604 412.161 407.253C414.441 391.902 417.349 384.463 421.371 372.239Z" fill="#BD7B49"/>
<path d="M477.818 367C477.818 367 474.923 397.843 454.922 403.654L445.158 432.943C445.158 432.943 435.904 439.887 421.969 436.147C408.035 432.408 405.875 425.674 405.875 425.674C405.875 425.674 414.528 389.476 416.768 382.44C419.19 374.827 422.631 367 422.631 367H477.818Z" fill="black"/>
<path d="M407.321 419.662C408.309 420.616 409.345 421.519 410.439 422.35C410.574 422.452 410.717 422.543 410.853 422.644C411.968 418.042 413.197 413.466 414.516 408.92C417.368 399.086 420.695 389.405 424.454 379.883C425.49 377.259 426.564 374.653 427.693 372.069C428.253 370.787 428.817 369.505 429.418 368.243C429.619 367.822 429.839 367.413 430.051 367H431.126C429.653 370.904 428.018 374.748 426.478 378.626C424.605 383.343 422.852 388.11 421.192 392.907C417.877 402.486 414.973 412.208 412.522 422.045C412.396 422.551 412.275 423.057 412.15 423.563C414.18 424.926 416.343 426.087 418.613 427.004C424.766 429.489 431.533 430.104 438.055 428.913C441.319 428.317 444.496 427.252 447.515 425.873L447.098 427.123C441.71 429.917 435.366 431.006 429.371 430.653C423.138 430.286 417.073 428.211 411.844 424.814C411.4 426.643 410.962 428.472 410.544 430.307C410.497 430.515 410.449 430.723 410.402 430.931C409.957 430.598 409.549 430.27 409.183 429.95C409.61 427.94 410.065 425.936 410.539 423.937C409.294 423.05 408.113 422.08 406.987 421.047C407.092 420.61 407.204 420.147 407.321 419.662Z" fill="#F5F5F5"/>
<path d="M414.615 507.018C414.615 507.018 428.264 471.249 428.806 469.855C429.349 468.461 430.459 466.276 429.012 465.582L427.952 468.046C427.952 468.046 424.982 472.564 413.35 470.532C401.718 468.499 400.619 461.756 400.619 461.756L400.947 459.904C400.947 459.904 399.7 459.331 399.44 463.27C399.264 465.953 395.641 504.351 395.641 504.351L394.45 511.264C394.45 511.264 395.342 516.058 402.699 517.078C410.056 518.097 412.457 513.652 412.457 513.652L414.615 507.018Z" fill="#EBEBEB"/>
<path d="M399.013 468.173C399.618 468.97 400.288 469.72 401.015 470.405C402.641 471.938 404.544 473.187 406.576 474.115C411.189 476.222 416.367 476.521 421.308 475.58C423.638 475.136 425.107 474.454 427.332 473.575C427.202 473.902 427.065 474.246 426.922 474.607C418.132 478.557 408.004 478.106 400.575 471.544C399.963 471.004 399.402 470.413 398.865 469.8C398.917 469.23 398.967 468.686 399.013 468.173Z" fill="black"/>
<path d="M479.041 491.587C479.041 491.587 476.672 487.668 478.167 482.783C478.707 481.019 485.097 465.066 488.657 457.268C490.031 454.258 490.107 452.936 489.681 451.885L488.696 454.29C488.696 454.29 483.972 457.777 474.465 454.943C465.489 452.267 464.409 447.362 464.409 447.362L464.93 445.088C464.93 445.088 463.807 445.43 463.456 448.215C463.172 450.477 459.486 478.139 459.14 480.972C458.869 483.202 457.937 487.4 458.074 487.611C458.211 487.822 460.174 495.238 467.249 495.942C474.324 496.645 479.041 491.587 479.041 491.587Z" fill="#EBEBEB"/>
<path d="M462.966 451.957C463.692 452.88 464.468 453.762 465.352 454.581C466.987 456.096 468.834 457.375 470.82 458.385C475.063 460.542 478.567 461.158 483.276 460.528C484.686 460.339 486.079 460.022 487.433 459.584C487.504 459.561 487.574 459.532 487.645 459.508C487.509 459.812 487.37 460.122 487.228 460.44C486.272 460.741 485.302 461.002 484.317 461.185C481.759 461.659 480.498 461.896 477.919 461.545C473.201 460.903 468.765 458.854 465.163 455.748C464.312 455.013 463.522 454.211 462.78 453.367C462.845 452.872 462.908 452.397 462.966 451.957Z" fill="black"/>
<path d="M453.957 497.41C453.957 497.41 453.078 499.709 453.352 500.164C453.627 500.62 454.478 501.199 455.038 501.201C455.804 500.681 456.002 500.031 456.002 500.031L453.957 497.41Z" fill="#263238"/>
<path d="M457.427 501.148C457.427 501.148 457.548 503.607 457.982 503.913C458.417 504.219 459.429 504.407 459.942 504.184C460.434 503.399 460.354 502.725 460.354 502.725L457.427 501.148Z" fill="#263238"/>
<path d="M469.128 515.304C469.128 515.304 468.681 517.725 469.034 518.123C469.387 518.521 470.33 518.936 470.88 518.836C471.539 518.185 471.615 517.51 471.615 517.51L469.128 515.304Z" fill="#263238"/>
<path d="M473.082 518.411C473.082 518.411 472.744 520.849 473.114 521.231C473.484 521.613 474.444 521.985 474.99 521.861C475.619 521.181 475.665 520.504 475.665 520.504L473.082 518.411Z" fill="#263238"/>
<path d="M477.326 520.472C477.326 520.472 477.392 522.932 477.82 523.248C478.248 523.565 479.256 523.775 479.773 523.563C480.283 522.79 480.453 521.661 480.453 521.661L477.326 520.472Z" fill="#263238"/>
<path d="M482.153 522.011C482.153 522.011 482.574 524.436 483.043 524.687C483.512 524.938 484.54 525 485.021 524.716C485.413 523.877 485.346 522.698 485.346 522.698L482.153 522.011Z" fill="#263238"/>
<path d="M491.199 522.469C491.199 522.469 490.563 524.847 490.073 525.055C489.584 525.263 488.554 525.233 488.1 524.907C487.784 524.036 487.609 522.872 487.609 522.872L491.199 522.469Z" fill="#263238"/>
<path d="M453.534 492.635C452.563 493.937 453.445 496.699 454.16 497.981C455.517 500.417 457.291 501.359 459.47 503.098C461.55 504.757 463.769 505.571 464.924 508.141C465.741 509.96 466.421 513.718 470.538 517.054C474.655 520.389 477.273 521.462 482.364 522.606C487.455 523.751 494.215 523.785 495.499 520.434L485.279 513.664C478.787 509.363 472.295 505.063 465.803 500.762C463.133 498.993 460.462 497.224 457.792 495.455C456.903 494.866 456.015 494.278 455.127 493.689C454.839 493.499 454.056 492.751 453.702 492.746C453.654 492.745 453.571 492.65 453.534 492.635Z" fill="#263238"/>
<path d="M459.141 480.972C458.15 480.858 457.935 481.696 457.259 483.394C456.449 485.429 454.177 488.693 453.535 492.635C454.006 497.431 457.061 500.611 462.21 503.425C467.359 506.239 465.622 510.226 470.141 514.604C474.661 518.982 478.066 520.486 483.249 521.535C489.225 522.744 496.199 522.623 496.484 518.206C496.734 514.349 494.008 512.456 487.047 505.003C482.843 500.502 480.188 496.113 479.225 493.444C478.004 490.059 478.251 488.847 478.251 488.847C476.295 488.261 474.09 488.323 472.059 488.11C470.543 487.951 468.95 487.939 467.566 488.579C466.754 488.955 466.056 489.538 465.413 490.16C465.19 490.376 464.939 490.612 464.629 490.612C464.169 490.612 463.894 490.118 463.696 489.703C463.275 488.82 462.743 487.968 461.99 487.343C461.61 487.028 461.18 486.777 460.802 486.46C459.85 485.663 459.366 484.448 459.323 483.211C459.316 482.998 459.141 480.972 459.141 480.972Z" fill="#37474F"/>
<path d="M496.484 518.206C496.703 514.818 494.625 512.943 489.399 507.486C489.243 507.655 489.093 507.83 488.933 507.996C488.479 508.466 487.61 509.621 486.676 510.171C487.491 510.933 488.172 511.957 488.262 512.769C488.383 513.865 487.73 515.314 486.717 516.022C485.803 516.661 484.132 517.101 483.029 517.08C479.021 517.002 476.095 516.256 472.722 514.947C471.244 514.374 469.668 513.484 468.243 512.291C468.727 513.047 469.331 513.819 470.141 514.604C474.661 518.983 478.066 520.487 483.249 521.535C489.225 522.745 496.199 522.623 496.484 518.206Z" fill="#455A64"/>
<path d="M485.338 510.793C485.338 510.793 480.248 505.854 477.239 501.05C474.23 496.245 471.837 491.419 472.211 488.492C472.584 485.566 474.26 487.032 476.085 485.915C477.955 484.77 479.342 484.479 479.393 486.129C479.42 487.024 479.658 491.205 481.887 495.704C484.117 500.203 485.596 503.003 489.374 507.315C489.374 507.315 488.091 510.049 485.338 510.793Z" fill="black"/>
<path d="M483.995 510.883C483.965 510.937 483.957 511.001 483.975 511.064C484.015 511.204 484.171 511.29 484.322 511.257C484.515 511.215 487.556 511.158 489.614 507.594L489.617 507.59C489.685 507.465 489.631 507.31 489.493 507.241C489.354 507.172 489.183 507.217 489.11 507.344C487.167 510.707 484.222 510.741 484.178 510.751C484.095 510.769 484.03 510.819 483.995 510.883Z" fill="#263238"/>
<path d="M480.662 507.647C480.632 507.701 480.624 507.764 480.642 507.827C480.681 507.967 480.837 508.054 480.988 508.02C481.182 507.978 484.803 507.367 486.862 503.802L486.865 503.798C486.933 503.673 486.879 503.518 486.741 503.449C486.602 503.38 486.431 503.425 486.358 503.552C484.419 506.91 480.889 507.505 480.844 507.515C480.762 507.533 480.697 507.583 480.662 507.647Z" fill="#263238"/>
<path d="M477.758 503.964C477.728 504.017 477.72 504.081 477.738 504.145C477.778 504.285 477.933 504.371 478.084 504.337C478.278 504.296 482.071 503.234 484.13 499.67L484.132 499.666C484.2 499.54 484.146 499.385 484.009 499.317C483.87 499.247 483.698 499.293 483.626 499.419C481.686 502.777 477.985 503.822 477.94 503.832C477.857 503.85 477.793 503.9 477.758 503.964Z" fill="#263238"/>
<path d="M474.958 499.419C474.924 499.471 474.91 499.534 474.924 499.598C474.953 499.74 475.102 499.835 475.256 499.811C475.452 499.782 479.719 499.02 482.04 495.598L482.043 495.593C482.121 495.473 482.078 495.316 481.946 495.238C481.812 495.161 481.638 495.195 481.555 495.316C479.368 498.541 475.194 499.292 475.15 499.299C475.065 499.312 474.997 499.357 474.958 499.419Z" fill="#263238"/>
<path d="M472.798 494.976C472.76 495.025 472.74 495.086 472.747 495.151C472.763 495.295 472.902 495.402 473.058 495.391C473.257 495.377 477.893 494.75 480.544 491.538L480.547 491.535C480.636 491.421 480.609 491.261 480.484 491.174C480.359 491.085 480.181 491.106 480.087 491.22C477.589 494.246 473.047 494.869 473.001 494.873C472.916 494.879 472.844 494.918 472.798 494.976Z" fill="#263238"/>
<path d="M453.535 492.635C453.933 496.684 456.178 499.58 459.965 502.078C460.5 499.937 460.406 497.632 460.079 495.428C459.727 493.058 459.114 490.681 457.843 488.65C457.297 487.777 456.61 486.981 455.825 486.312C454.923 488.086 453.926 490.232 453.535 492.635Z" fill="#455A64"/>
<path d="M408.841 540.707C408.841 544.487 406.84 548.662 404.909 550.938C401.707 554.712 397.276 555.942 394.171 554.892C390.402 553.617 388.858 551.109 387.854 547.409C386.943 544.056 386.543 538.335 387.771 534.522L408.841 540.707Z" fill="#263238"/>
<path d="M411.736 521.226C410.627 525.595 410.457 529.774 409.658 535.926C408.852 542.136 408.524 545.336 404.519 549.19C397.226 556.207 391.697 552.892 389.174 548.102C387.407 544.749 386.521 538.866 388.086 533.285C389.455 528.399 390.198 526.304 391.796 520.335C393.287 514.766 394.155 507.828 394.421 504.965C394.54 503.68 394.484 501.714 395.638 501.859L395.641 504.351C395.481 505.949 395.925 507.325 395.87 508.311C395.787 509.803 395.081 511.423 395.692 512.343C396.479 513.525 397.995 513.923 399.355 514.332C401.023 514.833 402.651 515.483 404.361 515.817C406.07 516.152 407.911 516.149 409.476 515.384C409.909 515.172 410.318 514.902 410.645 514.548C411.416 513.712 411.641 512.525 412.094 511.482C412.801 509.857 413.992 508.663 414.616 507.018L415.441 504.856C415.441 504.856 416.882 505.849 415.266 509.716C413.651 513.583 412.883 516.705 411.736 521.226Z" fill="#37474F"/>
<path d="M389.174 548.102C387.64 545.191 386.772 540.374 387.593 535.503C387.625 537.136 387.901 538.965 388.863 539.429C390.296 540.121 391.235 538.376 392.191 535.219C392.191 535.219 400.809 536.939 403.813 537.165C403.813 537.165 403.505 539.56 404.115 541.21C404.395 541.969 404.81 542.415 405.618 542.448C407.051 542.507 408.072 541.07 408.568 539.724C408.958 538.667 409.282 537.6 409.58 536.527C408.827 542.341 408.391 545.464 404.518 549.19C397.226 556.208 391.697 552.892 389.174 548.102Z" fill="#455A64"/>
<path d="M403.813 537.165C397.224 538.183 392.191 535.219 392.191 535.219C392.191 535.219 396.164 519.851 396.394 513.864C396.624 507.877 397.33 508.671 400.086 509.83C402.841 510.989 405.041 510.714 407.652 510.793C410.262 510.873 410.291 512.24 408.841 516.11C407.391 519.98 403.813 534.993 403.813 537.165Z" fill="black"/>
<path d="M391.492 534.795C391.59 534.637 391.798 534.592 391.954 534.688C394.74 536.419 400.531 537.637 404.112 536.673C404.293 536.625 404.475 536.731 404.523 536.909C404.571 537.088 404.466 537.273 404.287 537.321C403.373 537.566 402.321 537.677 401.212 537.677C397.781 537.677 393.794 536.621 391.599 535.257C391.442 535.16 391.394 534.953 391.492 534.795ZM392.328 530.884C392.17 530.787 392.122 530.58 392.22 530.422C392.319 530.264 392.527 530.218 392.682 530.315C395.469 532.046 401.26 533.265 404.84 532.3C405.024 532.252 405.203 532.358 405.252 532.536C405.3 532.715 405.194 532.9 405.015 532.948C404.101 533.193 403.05 533.304 401.94 533.304C398.51 533.304 394.523 532.248 392.328 530.884ZM393.539 526.492C393.382 526.394 393.334 526.187 393.432 526.03C393.53 525.872 393.738 525.826 393.894 525.923C396.68 527.654 402.471 528.871 406.052 527.907C406.233 527.861 406.415 527.966 406.464 528.144C406.512 528.323 406.406 528.507 406.227 528.556C405.312 528.802 404.26 528.912 403.151 528.912C399.72 528.912 395.733 527.856 393.539 526.492ZM394.608 521.748C394.451 521.65 394.403 521.443 394.501 521.286C394.6 521.128 394.808 521.081 394.963 521.178C397.749 522.911 403.541 524.126 407.121 523.163C407.302 523.116 407.485 523.222 407.533 523.4C407.581 523.579 407.475 523.763 407.296 523.811C406.381 524.058 405.33 524.168 404.22 524.168C400.789 524.168 396.802 523.112 394.608 521.748ZM395.796 516.76C395.638 516.662 395.59 516.455 395.688 516.298C395.787 516.14 395.995 516.094 396.15 516.19C398.935 517.923 404.728 519.138 408.308 518.175C408.489 518.127 408.672 518.234 408.72 518.412C408.768 518.591 408.662 518.775 408.483 518.823C407.569 519.07 406.517 519.18 405.406 519.18C401.975 519.18 397.989 518.124 395.796 516.76Z" fill="#263238"/>
<path d="M512.178 201.62C511.668 201.03 511.008 200.84 510.538 200.25C510.068 199.66 509.878 198.95 509.358 198.39C508.568 197.55 507.808 197.7 506.488 197.7C505.967 197.72 505.452 197.584 505.008 197.31C504.639 196.963 504.304 196.581 504.008 196.17C503.424 195.571 502.682 195.149 501.868 194.953C501.055 194.757 500.202 194.794 499.408 195.06C498.238 193.97 497.658 193.42 496.518 192.32C496.347 192.134 496.111 192.019 495.858 192C495.778 192.008 495.7 192.033 495.631 192.075C495.562 192.116 495.503 192.173 495.458 192.24C494.964 192.817 494.706 193.56 494.738 194.32C494.798 195.716 495.226 197.072 495.978 198.25C497.188 200.732 498.266 203.275 499.208 205.87C499.438 206.56 501.208 211.17 498.818 210.44C498.381 210.252 498.006 209.943 497.738 209.55C496.796 208.436 495.67 207.493 494.408 206.76C493.915 206.437 493.36 206.22 492.778 206.12C492.088 206.04 490.908 206.34 490.888 207.21C490.868 208.08 491.968 209.09 492.348 209.69C493.538 211.51 494.61 213.404 495.558 215.36C496.375 217.203 497.435 218.928 498.708 220.49C499.08 220.981 499.414 221.499 499.708 222.04C500.77 224.146 501.187 226.518 500.908 228.86C500.648 232.67 499.318 254.12 499.318 254.12C499.318 254.12 497.668 256.06 486.508 267.62C475.938 278.62 471.088 280.55 463.878 290.07L480.878 311.58L508.278 278.92C518.708 266.49 519.378 264.65 519.278 258.95C519.098 248.95 516.898 239.02 515.948 231.74C515.357 227.484 515.176 223.181 515.408 218.89C515.616 216.303 515.593 213.703 515.338 211.12C515.068 208.84 513.608 203.3 512.178 201.62Z" fill="#BD7B49"/>
<path d="M505.708 213C505.301 212.521 504.849 212.083 504.358 211.69C503.933 211.283 503.425 210.973 502.868 210.78C502.678 210.78 502.318 210.87 502.478 211.11C502.844 211.544 503.257 211.936 503.708 212.28C504.098 212.65 504.478 213.03 504.838 213.44C505.55 214.259 506.143 215.175 506.598 216.16C507.023 217.109 507.28 218.124 507.358 219.16C507.4 220.128 507.367 221.097 507.258 222.06C507.258 222.14 507.428 222.31 507.498 222.2C508.608 220.37 508.258 217.83 507.498 215.92C507.072 214.852 506.467 213.864 505.708 213Z" fill="#B96A2F"/>
<path d="M499.298 254.16C500.877 258.258 504.001 261.572 507.998 263.39C505.586 263.194 503.298 262.235 501.468 260.65C499.92 259.263 498.732 257.519 498.008 255.57L499.298 254.16Z" fill="#B96A2F"/>
<path d="M500.829 225.8C499.949 225.87 499.449 229.8 500.089 230.51C500.729 231.22 501.979 233.17 508.419 233.29C514.859 233.41 516.069 231.65 516.229 230.53C516.276 229.016 516.162 227.5 515.889 226.01C515.848 225.903 515.779 225.81 515.689 225.739C515.599 225.669 515.492 225.624 515.379 225.61V226.72C513.136 227.949 510.591 228.518 508.039 228.36C505.561 228.41 503.109 227.85 500.899 226.73L500.829 225.8Z" fill="#37474F"/>
<path d="M458.818 293.64C460.678 291.64 465.408 283.54 471.268 279.44C475.908 276.2 488.798 264.76 488.798 264.76C488.798 264.76 501.638 269.61 503.518 285.49C491.188 300.92 482.658 308.8 480.228 320.89L458.818 293.64Z" fill="white"/>
<path d="M413.918 291.67C413.918 291.67 410.398 310.18 413.918 326.75C414.748 330.57 415.668 340.02 416.148 348.1C416.748 358.1 415.908 360.41 415.748 371.1C415.748 371.1 427.538 378.62 454.118 376.61C474.988 375.04 477.75 371.1 477.75 371.1C478.23 355.38 482.708 334.27 482.018 319.09C481.088 298.4 475.728 282.96 471.218 279.43C466.488 282.43 460.218 283.87 453.168 284.09C453.168 284.09 442.248 284.42 434.508 286.22C423.938 288.7 416.328 290.61 413.918 291.67Z" fill="black"/>
<path d="M430.509 241.91C430.509 241.91 427.249 242.47 425.509 246.72C424.619 248.85 424.209 252.63 428.209 262.92C429.747 266.943 431.892 270.706 434.569 274.08C435.375 275.187 436.573 275.945 437.919 276.2L436.919 268.09L436.029 262.49C436.029 262.49 440.309 257.89 440.319 253.78C440.319 248.49 437.939 245.78 437.939 245.78L430.509 241.91Z" fill="#263238"/>
<path d="M429.548 242.25C429.479 241.425 429.581 240.594 429.848 239.81C430.117 238.788 430.56 237.821 431.158 236.95C432.223 235.451 433.543 234.151 435.059 233.11C439.146 230.013 444.13 228.332 449.259 228.32C449.739 228.32 450.208 228.32 450.678 228.4C454.654 228.76 458.387 230.467 461.259 233.24C464.059 236.03 466.208 240.24 465.258 244.3C465.028 245.3 464.438 247.73 463.468 248.08C462.656 248.219 461.829 248.253 461.009 248.18L458.658 248.3L447.339 248.84L438.119 249.27L437.779 249L432.098 244.49C431.448 243.98 430.009 243.23 429.619 242.49C429.586 242.413 429.562 242.333 429.548 242.25Z" fill="#263238"/>
<path d="M428.899 271.49C433.819 274.06 435.669 269.35 435.669 269.35L434.489 287.35C441.629 299.77 465.299 296.86 458.159 287.05L458.819 278.98C460.071 278.827 461.31 278.586 462.529 278.26C466.289 277.26 468.529 275.32 469.249 271.17C469.792 268.348 470.09 265.484 470.139 262.61C469.989 258.34 468.559 254.61 467.849 251.61C467.279 249.15 467.509 246.79 466.679 244.27C466.039 242.35 464.959 240.27 463.019 239.58C458.209 237.82 454.269 241.42 448.109 244.48C445.559 245.75 439.169 246.82 437.399 246.21C439.869 248.39 440.589 255.98 437.599 259.38C437.254 260.167 436.766 260.883 436.159 261.49C434.869 262.82 433.429 259.87 432.159 258.78C430.889 257.69 426.339 257.07 424.829 261.2C423.319 265.33 424.959 269.38 428.899 271.49Z" fill="#BD7B49"/>
<path d="M458.818 278.91C453.818 279.37 449.268 279.2 446.188 278.28C443.108 277.36 440.098 273.7 438.858 269.91C439.158 273.03 441.028 278.64 445.858 280.28C450.688 281.92 455.358 281.48 458.658 281.23L458.818 278.91Z" fill="#B96A2F"/>
<path d="M439.209 255.96C438.259 258.35 440.299 265.39 442.589 266.08C444.879 266.77 447.239 265.08 451.919 263.26C454.919 262.09 458.009 261.09 462.209 261.78C464.529 262.16 469.429 263.78 470.139 262.54C471.709 267.77 472.419 274.86 466.999 278.26C459.089 283.26 449.349 282.1 443.759 279.66C441.969 278.872 440.412 277.638 439.235 276.077C438.059 274.515 437.302 272.678 437.039 270.74C435.559 261.4 433.819 260.74 433.819 260.74L439.209 255.96Z" fill="#263238"/>
<path d="M462.389 266.95C462.319 266.76 462.249 266.57 462.169 266.38C461.917 265.686 461.498 265.064 460.949 264.57C460.311 264.075 459.543 263.776 458.739 263.71C456.509 263.45 454.219 263.71 452.659 265.51C452.153 266.088 451.777 266.766 451.555 267.501C451.332 268.236 451.269 269.009 451.369 269.77C451.509 270.77 452.249 270.97 453.169 271.14C453.683 271.269 454.223 271.259 454.732 271.111C455.242 270.964 455.703 270.684 456.069 270.3C456.297 270.021 456.615 269.829 456.969 269.758C457.323 269.687 457.69 269.741 458.009 269.91C458.329 270.135 458.663 270.339 459.009 270.52C459.492 270.636 459.999 270.612 460.469 270.45C460.907 270.368 461.326 270.208 461.709 269.98C461.968 269.778 462.179 269.52 462.326 269.226C462.473 268.932 462.553 268.609 462.559 268.28C462.577 267.83 462.52 267.381 462.389 266.95Z" fill="#BD7B49"/>
<path d="M448.178 249.6L444.108 251.76C443.827 251.211 443.775 250.572 443.962 249.984C444.149 249.396 444.561 248.906 445.108 248.62C445.646 248.346 446.27 248.295 446.845 248.479C447.42 248.662 447.899 249.065 448.178 249.6Z" fill="#37474F"/>
<path d="M464.709 249.07L460.229 247.83C460.304 247.538 460.437 247.263 460.62 247.023C460.803 246.783 461.032 246.582 461.294 246.432C461.556 246.282 461.845 246.186 462.145 246.15C462.444 246.113 462.748 246.137 463.039 246.22C463.633 246.384 464.14 246.774 464.452 247.306C464.764 247.838 464.856 248.471 464.709 249.07Z" fill="#37474F"/>
<path d="M450.509 254.3C450.169 253.3 449.769 254.85 448.789 255.2C447.809 255.55 446.609 254.6 446.949 255.56C447.131 256.012 447.481 256.375 447.925 256.575C448.369 256.776 448.873 256.797 449.332 256.634C449.791 256.472 450.169 256.138 450.389 255.703C450.608 255.269 450.651 254.766 450.509 254.3Z" fill="#263238"/>
<path d="M464.479 252.82C464.479 251.82 463.599 253.11 462.559 253.12C461.519 253.13 460.708 251.85 460.708 252.86C460.743 253.336 460.957 253.782 461.307 254.107C461.656 254.432 462.116 254.613 462.593 254.613C463.071 254.613 463.531 254.432 463.88 254.107C464.23 253.782 464.444 253.336 464.479 252.86V252.82Z" fill="#263238"/>
<path d="M453.219 250.18L455.909 261.67L461.999 258.78C459.759 255.287 456.757 252.347 453.219 250.18Z" fill="#B96A2F"/>
<path d="M454.179 265.49L459.179 266.59C459.046 267.253 458.655 267.836 458.093 268.211C457.53 268.586 456.842 268.723 456.179 268.59C455.505 268.439 454.918 268.03 454.544 267.45C454.17 266.87 454.039 266.166 454.179 265.49Z" fill="#DBA111"/>
<path d="M454.779 266.28C454.573 266.255 454.365 266.255 454.159 266.28C454.21 266.822 454.431 267.334 454.79 267.743C455.149 268.153 455.628 268.439 456.159 268.56C456.43 268.605 456.707 268.605 456.979 268.56C456.972 267.971 456.74 267.407 456.331 266.984C455.922 266.56 455.367 266.308 454.779 266.28Z" fill="#B96A2F"/>
<path d="M442.988 408C442.699 407.354 442.365 406.729 441.988 406.13C440.258 403.24 437.919 399.48 436.309 397.04C435.909 396.42 435.308 395.47 434.748 394.52C435.278 394.85 435.749 395.23 436.339 395.52C437.358 396.058 438.46 396.423 439.598 396.6C440.464 396.738 441.349 396.662 442.179 396.38C442.472 396.313 442.732 396.145 442.915 395.906C443.098 395.666 443.191 395.371 443.179 395.07C443.078 394.658 442.824 394.301 442.468 394.07C440.608 392.52 438.738 391.01 437.018 389.3C436.268 388.56 435.549 387.79 434.759 387.08C433.499 385.929 432.086 384.96 430.559 384.2C429.049 383.45 427.468 383.2 426.128 382.2C424.808 381.041 423.666 379.693 422.738 378.2C418.028 371.65 410.268 354.91 410.268 354.91C410.268 354.91 411.968 349.21 417.268 329.38C419.268 321.86 423.268 306.3 417.608 291.15C404.228 294.94 400.609 298.31 396.289 313.69C393.869 322.26 391.288 333.69 388.998 342.85C385.758 355.8 386.168 358.85 392.378 367.26C396.458 372.82 400.618 376.96 406.988 385.9C409.148 388.9 411.228 391.27 412.988 395.49C414.438 398.97 416.308 403.27 417.988 406.37C418.838 407.95 420.249 411.37 422.679 410.75C422.866 410.703 423.037 410.602 423.169 410.46C423.709 409.75 422.958 407.87 422.768 407.11C422.455 405.872 422.071 404.654 421.619 403.46C421.519 403.22 420.679 400.71 421.619 401.31C422.172 401.719 422.653 402.22 423.039 402.79C425.162 405.615 427.446 408.316 429.878 410.88C430.564 411.728 431.456 412.386 432.468 412.79C433.302 413.04 434.201 412.95 434.968 412.54C435.088 412.458 435.225 412.407 435.369 412.39C435.58 412.418 435.775 412.521 435.919 412.68C436.416 413.107 436.995 413.429 437.621 413.625C438.247 413.821 438.906 413.887 439.559 413.82C440.012 413.801 440.446 413.628 440.789 413.33C441.469 412.65 441.459 412.09 441.089 411.14C441.485 411.195 441.89 411.139 442.257 410.979C442.624 410.818 442.94 410.559 443.169 410.23C443.339 409.876 443.412 409.482 443.38 409.091C443.348 408.699 443.213 408.323 442.988 408Z" fill="#BD7B49"/>
<path d="M435.259 412.16C436.119 410.83 434.369 409.21 433.699 408.1L430.839 404.38C428.979 401.88 427.109 399.38 425.369 396.77C427.369 399.15 429.299 401.64 431.199 404.12C432.199 405.74 436.779 410.49 435.259 412.12V412.16Z" fill="#B96A2F"/>
<path d="M440.928 410.94C437.142 405.98 433.592 400.85 430.278 395.55C434.078 400.51 437.628 405.64 440.928 410.94Z" fill="#B96A2F"/>
<path d="M436.348 395.49L436.518 395.57C435.758 394.5 435.058 393.32 434.048 392.03C433.179 390.842 432.172 389.761 431.048 388.81C432.438 390.596 433.669 392.5 434.728 394.5C435.288 394.85 435.798 395.23 436.348 395.49Z" fill="#B96A2F"/>
<path d="M417.889 290.22C404.089 293.22 400.099 297.98 397.499 306.9C394.149 318.41 390.869 332.24 390.869 332.24C390.869 332.24 392.629 336.68 401.209 339.64C410.209 342.76 414.669 341.27 414.669 341.27C414.669 341.27 418.479 328.62 420.669 320.94C423.449 311.21 420.559 292.99 417.889 290.22Z" fill="white"/>
<defs>
<filter id="filter0_d_189_1430" x="-4" y="0" width="720" height="205" filterUnits="userSpaceOnUse" color-interpolation-filters="sRGB">
<feFlood flood-opacity="0" result="BackgroundImageFix"/>
<feColorMatrix in="SourceAlpha" type="matrix" values="0 0 0 0 0 0 0 0 0 0 0 0 0 0 0 0 0 0 127 0" result="hardAlpha"/>
<feOffset dy="4"/>
<feGaussianBlur stdDeviation="2"/>
<feComposite in2="hardAlpha" operator="out"/>
<feColorMatrix type="matrix" values="0 0 0 0 0 0 0 0 0 0 0 0 0 0 0 0 0 0 0.25 0"/>
<feBlend mode="normal" in2="BackgroundImageFix" result="effect1_dropShadow_189_1430"/>
<feBlend mode="normal" in="SourceGraphic" in2="effect1_dropShadow_189_1430" result="shape"/>
</filter>
</defs>
</svg>
