<svg width="83" height="125" viewBox="0 0 83 125" fill="none" xmlns="http://www.w3.org/2000/svg">
<path d="M22.0589 3.80143C14.3389 3.80143 10.2089 4.54143 5.38892 10.7114C0.878916 16.4814 2.80892 25.3914 2.60892 32.7614C2.42216 38.583 1.67537 44.373 0.378906 50.0514C0.378906 56.3314 23.4589 56.3314 23.4589 50.0514L22.0589 3.80143Z" fill="white"/>
<path d="M22.0589 3.80143C14.3389 3.80143 10.2089 4.54143 5.38892 10.7114C0.878916 16.4814 2.80892 25.3914 2.60892 32.7614C2.42216 38.583 1.67537 44.373 0.378906 50.0514C0.378906 56.3314 23.4589 56.3314 23.4589 50.0514L22.0589 3.80143Z" fill="#0053A0"/>
<path d="M23.1988 41.4614C22.6206 42.0287 21.972 42.5194 21.2688 42.9214C16.3688 45.7514 8.42878 45.7514 3.52878 42.9214C2.93628 42.5825 2.38004 42.1837 1.86877 41.7314C1.66877 43.2214 1.45879 44.5714 1.25879 45.7314C1.91448 46.4488 2.68085 47.0565 3.52878 47.5314C8.42878 50.3614 16.3688 50.3614 21.2688 47.5314C22.0288 47.0994 22.7254 46.5643 23.3388 45.9414L23.1988 41.4614Z" fill="white"/>
<path d="M6.98868 41.4614C6.88204 45.6882 6.34594 49.8931 5.38867 54.0114C12.1787 55.7614 23.4587 54.4414 23.4587 50.0114L22.7587 26.8414H10.3087C7.32865 33.1614 7.15868 36.4214 6.98868 41.4614Z" fill="#0053A0"/>
<path d="M70.8465 107.941L70.8198 107.665C70.7221 106.655 70.6313 105.722 70.5464 104.849C69.8492 97.6819 69.5464 94.5687 69.0292 86.4173L69.0291 86.4171C68.8357 83.3439 68.7192 80.987 68.6282 79.1486C68.5922 78.42 68.5602 77.7729 68.529 77.1949M70.8465 107.941L68.7787 77.1814M70.8465 107.941L70.8648 107.937L70.8465 107.941ZM68.529 77.1949L68.7787 77.1814M68.529 77.1949C68.529 77.195 68.529 77.1951 68.529 77.1952L68.7787 77.1814M68.529 77.1949C68.1144 69.6551 68.6303 61.1437 69.0257 54.6212C69.0507 54.208 69.0753 53.8029 69.0991 53.4065M68.7787 77.1814C68.3648 69.6567 68.8799 61.1587 69.2754 54.6334C69.3004 54.2213 69.3249 53.817 69.3487 53.4214M69.0991 53.4065L69.3487 53.4214M69.0991 53.4065C69.1512 52.5361 69.2195 51.5291 69.295 50.4162C69.5823 46.1798 69.9737 40.4084 69.9737 34.7914C69.9737 31.2459 69.8176 27.7706 69.3825 24.7897C68.9513 21.8347 68.2503 19.3997 67.1822 17.8594C59.0423 14.0368 56.6832 11.6894 54.6639 9.68008L54.6423 9.65862C54.4396 9.45694 54.2158 9.22578 53.9694 8.97125C51.7581 6.68739 47.724 2.52085 40.7608 0.864637C33.0097 -0.978991 28.6354 1.8727 27.5074 3.91239L27.4361 4.04141H27.2887H22.1523C22.1385 4.04658 22.1208 4.05336 22.0993 4.06189C22.0373 4.08653 21.944 4.12571 21.8232 4.18239C21.5816 4.29576 21.23 4.4792 20.7982 4.75658C19.9349 5.3112 18.7502 6.24213 17.4847 7.74141C14.9549 10.7384 12.0909 16.0196 10.8363 25.1355C9.09693 37.7736 9.605 44.5201 10.2402 52.9548C10.524 56.7225 10.8331 60.8271 10.9786 65.9442C11.249 75.354 10.663 83.2456 10.0101 90.1325C9.87993 91.505 9.74726 92.8368 9.61821 94.1322C9.09913 99.3429 8.63867 103.965 8.63867 108.281C8.63867 110.677 9.29146 112.888 10.7587 114.916C12.2286 116.948 14.5252 118.81 17.8317 120.488L69.3487 53.4214M69.0991 53.4065C69.0991 53.4065 69.0991 53.4064 69.0991 53.4064L69.3487 53.4214M71.0687 107.641L71.0667 107.631H71.0677C71.068 107.635 71.0683 107.638 71.0687 107.641ZM71.0687 107.641L71.1187 107.637C71.1187 107.635 71.1187 107.633 71.1187 107.631L71.0687 107.641Z" fill="white" stroke="white" stroke-width="0.5"/>
<path d="M62.3393 53.0614C60.2793 56.4214 53.7693 61.2914 46.7593 61.4114C39.7493 61.5314 34.5393 60.7314 33.8593 61.6914C33.1793 62.6514 42.0193 64.5014 44.6993 64.6214C50.5793 64.8614 59.2193 64.7114 65.2593 59.1814C71.2993 53.6514 62.3393 53.0614 62.3393 53.0614ZM16.6193 55.8614C12.2993 53.0614 11.0593 51.8014 9.5293 46.8614C9.6593 49.1714 9.83932 51.4714 10.0193 53.9214C12.8493 57.6414 17.9593 59.1114 19.7993 58.8314C21.6393 58.5514 18.6793 57.2014 16.6193 55.8614Z" fill="#0053A0"/>
<path d="M68.7893 77.1914C68.3493 69.1914 68.9593 60.0914 69.3593 53.4314C69.5193 50.7614 69.8293 46.7814 70.0393 42.4314H57.1893C59.3393 45.9614 56.0693 70.6114 56.0693 70.6114C56.0693 73.1414 59.9893 77.4414 68.7893 77.1914Z" fill="#0053A0"/>
<path d="M62.289 15.1014C55.879 18.8314 52.289 30.2114 57.989 44.5814C59.319 48.5814 59.269 64.6314 58.989 67.6314C58.989 73.9214 82.079 73.9214 82.079 67.6314C82.079 67.6314 81.079 62.7714 80.239 55.4314C79.399 48.0914 81.239 38.9914 79.359 31.5014C77.759 25.0614 74.5189 21.2614 68.8689 18.4014L62.289 15.1014Z" fill="white"/>
<path d="M62.289 15.1014C55.879 18.8314 52.289 30.2114 57.989 44.5814C59.319 48.5814 59.269 64.6314 58.989 67.6314C58.989 73.9214 82.079 73.9214 82.079 67.6314C82.079 67.6314 81.079 62.7714 80.239 55.4314C79.399 48.0914 81.239 38.9914 79.359 31.5014C77.759 25.0614 74.5189 21.2614 68.8689 18.4014L62.289 15.1014Z" fill="#0053A0"/>
<path d="M81.2292 62.9814C81.0392 61.8014 80.8392 60.4414 80.6392 58.9114C80.2017 59.2838 79.7333 59.6184 79.2392 59.9114C74.3392 62.7414 66.3991 62.7414 61.4991 59.9114C60.6005 59.4059 59.7955 58.7496 59.1191 57.9714C59.1191 59.6114 59.1191 61.1914 59.1191 62.6014C59.7972 63.3684 60.5982 64.0173 61.4892 64.5214C66.3892 67.3514 74.3292 67.3514 79.2292 64.5214C79.9618 64.0999 80.6344 63.582 81.2292 62.9814Z" fill="white"/>
<path d="M74.5988 37.5514C74.3188 33.6414 73.9288 28.2714 68.5488 24.4814C63.8788 21.1914 61.0288 19.4814 58.2788 17.8214C57.4888 17.3514 56.7088 16.8914 55.8988 16.3914C53.4196 14.7696 51.1696 12.8222 49.2088 10.6014C49.1163 10.5102 48.993 10.457 48.8632 10.4522C48.7334 10.4473 48.6065 10.4912 48.5074 10.5752C48.4084 10.6592 48.3443 10.7773 48.3279 10.9061C48.3115 11.035 48.3439 11.1653 48.4188 11.2714C50.4474 13.5789 52.7824 15.5976 55.3588 17.2714L57.7388 18.7114C60.4788 20.3614 63.3088 22.0614 67.9488 25.3314C72.9488 28.8414 73.2888 33.7114 73.5688 37.6314C73.5688 38.2314 73.6488 38.8014 73.7088 39.3414C73.7211 39.4688 73.7799 39.5872 73.874 39.6739C73.9681 39.7606 74.0908 39.8096 74.2188 39.8114H74.2788C74.3459 39.8052 74.4111 39.7857 74.4706 39.7541C74.5301 39.7225 74.5828 39.6794 74.6255 39.6274C74.6683 39.5753 74.7004 39.5152 74.7198 39.4507C74.7392 39.3862 74.7457 39.3184 74.7388 39.2514C74.6788 38.7114 74.6388 38.1414 74.5988 37.5514ZM64.4788 26.0614C59.7188 22.8914 56.8188 21.2614 54.0188 19.6714L51.6188 18.3114C49.0984 16.7512 46.7952 14.8649 44.7688 12.7014C44.7256 12.6422 44.6704 12.5928 44.6068 12.5565C44.5431 12.5201 44.4726 12.4976 44.3996 12.4904C44.3267 12.4832 44.2531 12.4915 44.1836 12.5148C44.1141 12.5381 44.0503 12.5758 43.9964 12.6254C43.9425 12.6751 43.8997 12.7356 43.8708 12.8029C43.8419 12.8702 43.8276 12.9429 43.8288 13.0162C43.8299 13.0895 43.8466 13.1617 43.8776 13.2281C43.9086 13.2945 43.9533 13.3535 44.0088 13.4014C46.1003 15.6451 48.4851 17.5961 51.0988 19.2014L53.5088 20.5714C56.2988 22.1514 59.1688 23.7714 63.9088 26.9214C68.9788 30.2914 69.4588 35.1614 69.8488 39.0714C69.9088 39.6714 69.9688 40.2414 70.0388 40.7814C70.0536 40.9061 70.1137 41.0208 70.2078 41.1039C70.3019 41.1869 70.4233 41.2323 70.5488 41.2314H70.6188C70.686 41.2228 70.7509 41.2009 70.8095 41.167C70.8682 41.1331 70.9195 41.0878 70.9605 41.0338C71.0015 40.9798 71.0313 40.9181 71.0482 40.8525C71.065 40.7868 71.0686 40.7185 71.0588 40.6514C70.9888 40.1314 70.9388 39.5614 70.8788 38.9714C70.4888 35.0614 69.9588 29.7014 64.4788 26.0614ZM22.2188 9.06144C21.0488 9.06144 19.7988 8.93143 18.5288 8.83143C16.252 8.61717 13.9653 8.52705 11.6788 8.56144C9.93536 8.60843 8.20348 8.86016 6.5188 9.31144C6.1488 9.72144 5.77877 10.1714 5.39877 10.6514L5.25879 10.8514C7.31491 10.0211 9.51135 9.5934 11.7288 9.59144C13.9754 9.55258 16.2225 9.64271 18.4588 9.86143C19.7688 9.95143 21.0488 10.0414 22.2588 10.0814C24.0885 10.2363 25.9311 10.0428 27.6888 9.51142L27.3188 8.51142C25.6714 9.0289 23.9408 9.2291 22.2188 9.10142V9.06144ZM22.1188 5.68143C21.1688 5.63143 20.1788 5.55142 19.1688 5.48142C16.8914 5.27685 14.6052 5.18675 12.3188 5.21143H11.8288C11.0451 5.5533 10.3007 5.97911 9.6088 6.48142C10.5187 6.33586 11.4375 6.25233 12.3588 6.23142C14.6054 6.19714 16.8521 6.28727 19.0888 6.50141C20.0888 6.57141 21.1588 6.65141 22.1488 6.69141C24.2215 6.92565 26.3202 6.73859 28.3188 6.14143L27.9488 5.14143C26.0602 5.70483 24.0813 5.90169 22.1188 5.72141V5.68143Z" fill="white"/>
<path d="M54.2785 11.8714C54.5691 11.2775 54.6609 10.6058 54.5403 9.95567C54.4196 9.30555 54.0929 8.71152 53.6085 8.26143C50.1842 4.50775 45.7222 1.85563 40.7885 0.641431C32.9385 -1.19857 28.4585 1.64144 27.2585 3.81144C24.8485 7.05144 24.7585 14.8114 26.7285 18.6114C28.8985 22.7514 34.2785 23.6914 37.8785 22.6114C43.5485 20.8814 47.4685 16.2514 49.6685 14.6714C51.8685 13.0914 53.7885 12.8114 54.2785 11.8714Z" fill="white"/>
<path d="M53.6093 8.26143C50.185 4.50775 45.723 1.85563 40.7893 0.641436C37.8211 -0.174983 34.6875 -0.174983 31.7193 0.641436C30.4536 2.08914 29.4578 3.75214 28.7793 5.55144C28.7793 5.55144 49.4093 12.2814 51.4993 11.2914C52.5501 10.7703 53.5066 10.0775 54.3293 9.24144C54.1531 8.87238 53.9088 8.53989 53.6093 8.26143Z" fill="#0053A0"/>
<path d="M51.4787 11.3114C49.8805 11.9368 48.3842 12.7962 47.0387 13.8614C44.5887 15.9614 42.2987 18.5414 38.0387 20.0214C32.0387 22.1214 28.1287 18.2314 27.6087 14.2214C27.0887 10.2114 27.7587 3.92144 31.9487 2.68144C36.9487 1.21144 42.1987 2.63144 45.7887 4.68144C49.2187 6.64144 53.6787 10.3514 51.4787 11.3114Z" fill="#263238"/>
</svg>
