<svg width="1260" height="615" viewBox="0 0 1260 615" fill="none" xmlns="http://www.w3.org/2000/svg">
<g clip-path="url(#clip0_14_24)">
<rect y="0.329742" width="1260" height="614.194" rx="36.129" fill="#00644C"/>
<path opacity="0.1" d="M853.356 342.575C812.022 361.235 779.139 368.997 779.139 368.997L755.967 457.044C773.141 489.881 791.199 518.113 798.439 562.679C848.364 512.22 865.294 422.91 853.356 342.575L853.356 342.575ZM748.655 623.066C748.655 623.066 751.451 584.94 731.063 543.194L663.425 526.776C663.425 526.776 552.506 578.352 496.77 565.327C496.77 565.327 512.425 628.654 520.116 661.61C552.228 663.258 611.98 654.238 640.082 635.578C640.082 635.578 642.335 684.128 625.505 736.226C660.317 727.276 714.402 692.117 748.655 623.067L748.655 623.066ZM704.602 441.031L727.955 353.374C727.955 353.374 691.144 330.075 656.974 286.204C567.493 275.8 440.637 332.245 440.637 332.245C440.637 332.245 458.401 406.775 478.114 487.353C543.376 514.729 665.517 458.112 704.607 441.032L704.602 441.031ZM836.43 867.425L797.051 792.832C737.97 950.098 620.037 1065.47 445.29 1121.16L445.837 1027.94C295.381 1083.1 62.6531 1082.67 -96.4053 929.838C-42.3563 820.874 9.48944 709.684 2.7776 558.114C-142.328 686.328 -250.141 722.913 -250.141 722.913C-289.36 589.982 -221.691 362.518 -182.781 300.65L-308.375 304.576C-287.744 227.58 -187.084 79.4769 -80.0666 9.80477L-149.599 -20.9664L-149.671 -20.9857C-74.0477 -105.958 22.2423 -170.866 129.348 -210.301L129.494 -210.339C91.3013 -175.969 63.3898 -73.3694 132.151 -13.0687C113.909 -79.543 128.888 -151.643 173.884 -179.007C218.965 -206.69 274.667 -178.124 304.714 -139.246C302.073 -174.327 279.963 -223.491 231.381 -239.442L231.309 -239.461C336.967 -261.21 449.758 -259.155 561.647 -229.175C582.548 -223.574 603.146 -217.1 623.047 -209.858C652.165 -188.416 687.943 -130.951 702.765 -97.1752C702.765 -97.1752 713.113 -129.527 705.038 -174.112C818.496 -112.884 863.428 -49.3515 881.455 -19.6959C872.744 32.6683 880.219 67.4764 887.932 121.513C860.152 68.169 780.039 -27.3643 737.378 -56.5278C737.378 -56.5278 721.675 -13.335 699.781 3.57797C623.649 -87.4787 582.051 -116.426 582.051 -116.426C475.257 -129.628 398.658 -108.685 354.518 -87.9118L378.897 -53.4852C311.867 -51.5307 257.653 -10.4046 257.653 -10.4046C257.853 -9.3265 310.805 13.045 310.805 13.045C310.805 13.045 288.325 74.4733 358.617 135.593C418.865 187.952 529.71 172.708 613.685 234.493C570.61 148.611 536.262 106.193 536.262 106.193C536.262 106.193 513.097 94.6664 495.82 90.173C474.231 84.5231 440.986 80.0501 409.361 57.2536C394.231 46.3111 377.605 29.7166 364.714 16.1684C364.714 16.1684 419.631 -15.5624 485.481 -8.14827C485.481 -8.14827 538.374 22.8021 574.844 67.4937C612.529 47.0368 643.642 56.3285 643.642 56.3285C643.642 56.3285 604.981 76.2508 605.213 113.006C639.844 164.298 673.794 233.549 673.794 233.549C730.824 220.321 837.679 255.5 853.2 286.667C834.548 243.409 801.835 202.724 777.172 168.835C776.899 154.439 755.023 98.6541 750.37 92.7692C750.37 92.7692 780.403 111.32 802.762 144.66C814.243 135.255 833.091 127.62 855.848 128.125C872.986 151.95 869.522 180.553 867.707 184.978C854.758 193.853 843.698 195.936 843.698 195.936L881.652 265.919L897.668 227.311C974.11 429.553 987.954 643.597 836.414 867.411L836.43 867.425ZM161.468 -463.728C223.344 -413.525 257.873 -361.851 264.483 -353.601C265.5 -372.288 274.466 -461.14 280.667 -516.155C314.204 -477.501 392.02 -387.766 417.714 -358.511C440.698 -393.341 518.323 -506.423 518.323 -506.423C518.323 -506.423 564.415 -359.169 572.593 -335.084C593.802 -347.612 716.872 -425.463 748.57 -445.001C736.743 -384.401 719.563 -297.818 717.573 -284.643C724.03 -289.665 773.91 -329.77 847.422 -359.314C807.263 -315.513 775.768 -248.657 755.027 -193.719C699.186 -226.21 637.985 -252.021 572.537 -269.557C446.801 -303.248 320.079 -302.693 202.83 -273.478C198.892 -332.982 188.002 -408.604 161.468 -463.728Z" fill="black"/>
</g>
<defs>
<clipPath id="clip0_14_24">
<rect y="0.329742" width="1260" height="614.194" rx="36.129" fill="white"/>
</clipPath>
</defs>
</svg>
