<svg width="130" height="130" viewBox="0 0 130 130" fill="none" xmlns="http://www.w3.org/2000/svg">
<g clip-path="url(#clip0_69_434)">
<path d="M129.37 64.6879C129.37 100.333 100.476 129.224 64.8346 129.224C29.1919 129.224 0.299072 100.333 0.299072 64.6879C0.299072 29.0468 29.1919 0.152344 64.8346 0.152344C100.476 0.152344 129.37 29.0468 129.37 64.6879Z" fill="#DBA111"/>
<path d="M127.217 64.6879C127.217 99.1419 99.2887 127.071 64.8344 127.071C30.3798 127.071 2.45068 99.1422 2.45068 64.6879C2.45068 30.2334 30.3798 2.3042 64.8344 2.3042C99.2881 2.3042 127.217 30.2334 127.217 64.6879Z" fill="#034694"/>
<path d="M109.291 64.6879C109.291 89.2406 89.3869 109.141 64.8344 109.141C40.2806 109.141 20.3762 89.2406 20.3762 64.6879C20.3762 40.1331 40.2806 20.2297 64.8344 20.2297C89.3874 20.2295 109.291 40.1331 109.291 64.6879Z" fill="#DBA111"/>
<path d="M107.946 64.6878C107.946 88.4976 88.6411 107.799 64.8345 107.799C41.0247 107.799 21.7234 88.4974 21.7234 64.6878C21.7234 40.8783 41.0247 21.5764 64.8345 21.5764C88.6416 21.5764 107.946 40.878 107.946 64.6878Z" fill="white"/>
<path d="M27.8949 101.881C28.372 102.336 29.5455 103.454 29.5455 103.454L30.6704 102.269L27.3149 99.0701L26.8832 99.523L22.3777 104.246L24.0883 105.874C24.0883 105.874 25.5331 104.359 26.0618 103.807C26.5036 104.227 27.5636 105.237 27.5636 105.237L28.6894 104.055C28.6894 104.055 27.6309 103.046 27.1897 102.623C27.4697 102.328 27.6119 102.179 27.8949 101.881Z" fill="#DBA111"/>
<path d="M35.9871 107.275C35.8353 106.369 35.3267 105.569 34.5572 105.022C33.7912 104.478 32.8718 104.263 31.966 104.412C30.9904 104.577 30.1139 105.146 29.4965 106.01C28.8812 106.88 28.6327 107.893 28.7984 108.873C28.9507 109.776 29.4557 110.571 30.2228 111.118C30.9904 111.664 31.9166 111.882 32.8211 111.73C33.7961 111.566 34.6732 110.996 35.2884 110.129C35.781 109.442 36.0379 108.655 36.0379 107.868C36.0381 107.672 36.0216 107.47 35.9871 107.275H35.9871ZM31.1685 109.784C30.3844 109.229 31.0317 108.069 31.4884 107.432C31.944 106.789 32.8273 105.795 33.6115 106.349C34.4299 106.935 33.6652 108.2 33.2981 108.713C32.9299 109.232 31.9886 110.369 31.1685 109.784Z" fill="#DBA111"/>
<path d="M41.2613 109.066C39.4556 108.152 37.367 108.901 36.4077 110.803C35.9271 111.753 35.8331 112.796 36.1427 113.735C36.4286 114.607 37.0485 115.319 37.8889 115.742C38.7293 116.17 39.675 116.244 40.5491 115.957C41.4872 115.651 42.2697 114.958 42.7474 114.008C43.7107 112.103 43.0705 109.98 41.2613 109.066ZM39.2642 114.35C39.0524 114.419 38.8515 114.398 38.6234 114.284C38.2652 114.102 38.1392 113.776 38.1392 113.411C38.1392 112.907 38.3817 112.313 38.5873 111.908C38.9435 111.203 39.6669 110.091 40.5252 110.524C40.7516 110.64 40.8871 110.79 40.9558 110.999C41.0994 111.433 40.9552 112.144 40.5681 112.906C40.183 113.668 39.6959 114.207 39.2642 114.35Z" fill="#DBA111"/>
<path d="M44.9906 111.681L44.6582 112.633C44.6582 112.633 45.5081 112.931 45.7661 113.017C45.4408 113.947 43.9414 118.227 43.9414 118.227L46.1677 119.007C46.1677 119.007 47.6695 114.731 47.994 113.801C48.2536 113.892 49.1037 114.187 49.1037 114.187L49.6432 112.65L45.1975 111.09L44.9906 111.681Z" fill="#DBA111"/>
<path d="M54.2338 113.746L51.2253 113.111L51.0966 113.723L49.752 120.108L52.8137 120.757C53.7923 120.959 54.4366 120.719 54.804 120.481C55.2705 120.177 55.5974 119.678 55.7232 119.081C55.7577 118.919 55.7742 118.761 55.7742 118.607C55.7742 118.176 55.6377 117.787 55.3906 117.453C55.7354 117.179 55.9814 116.793 56.0838 116.31C56.1098 116.186 56.1253 116.045 56.1253 115.898C56.1253 115.081 55.6585 114.043 54.2338 113.746H54.2338ZM53.4057 118.621C53.3736 118.767 53.315 118.96 53.2045 119.032C53.1024 119.098 52.9061 119.106 52.6519 119.051C52.6519 119.051 52.5362 119.026 52.3994 118.999C52.4971 118.538 52.5626 118.232 52.6579 117.77C52.7887 117.801 52.956 117.834 52.956 117.834C53.3508 117.917 53.4266 118.209 53.4266 118.421C53.4269 118.507 53.416 118.579 53.4057 118.621L53.4057 118.621ZM53.2001 115.203C53.4643 115.263 53.6585 115.36 53.7331 115.473C53.7673 115.525 53.7841 115.598 53.7841 115.684C53.7841 115.735 53.7771 115.795 53.7635 115.868C53.723 116.055 53.6682 116.314 53.1477 116.208C53.1477 116.208 53.0828 116.191 52.9934 116.172C53.0765 115.785 53.1159 115.592 53.2001 115.203L53.2001 115.203Z" fill="#DBA111"/>
<path d="M59.7881 114.786L56.5203 121.478L58.3865 121.621C58.3865 121.621 58.8915 120.555 59.0933 120.13C59.4881 120.163 59.8837 120.191 60.2706 120.222C60.4153 120.669 60.78 121.803 60.78 121.803L63.2629 121.997L60.4887 113.397L59.7881 114.786Z" fill="#DBA111"/>
<path d="M67.1565 120.128C67.1152 119.149 66.9273 114.698 66.9273 114.698L64.5693 114.797L64.8675 121.942L69.5929 121.745L69.522 120.031C69.522 120.031 67.8342 120.103 67.1565 120.128Z" fill="#DBA111"/>
<path d="M73.6243 119.443C73.4722 118.476 72.7822 114.075 72.7822 114.075L72.1642 114.174L70.4487 114.441L71.556 121.508L76.2304 120.774L75.9626 119.079C75.9626 119.079 74.2952 119.342 73.6243 119.443Z" fill="#DBA111"/>
<path d="M87.1561 114.69C87.1371 115.302 86.7759 115.83 86.2125 116.053C85.9003 116.177 85.6021 116.177 85.3034 116.05C84.8451 115.854 84.4204 115.357 84.1655 114.72C83.8654 113.967 83.8043 113.328 84.0012 112.879C84.1364 112.565 84.4017 112.33 84.8068 112.167C85.2459 111.993 85.6627 112.153 86.234 112.49L86.758 112.799L87.6283 111.427L87.1118 111.087C86.1626 110.463 84.9874 110.336 83.9708 110.742C83.0272 111.118 82.2957 111.822 81.9091 112.722C81.5167 113.635 81.5167 114.679 81.9146 115.669C82.6656 117.547 84.7879 118.472 86.6436 117.729C87.9846 117.193 88.7436 116.174 88.8402 114.783L88.8842 114.162L87.176 114.035L87.1559 114.69" fill="#DBA111"/>
<path d="M92.6607 112.738C92.1776 111.879 90.0076 107.987 90.0076 107.987L89.464 108.293L87.9456 109.141L91.4353 115.385L95.5611 113.08L94.7259 111.581C94.7262 111.581 93.2493 112.404 92.6607 112.738Z" fill="#DBA111"/>
<path d="M97.2494 103.109L96.7436 103.479L95.8573 104.13L98.7534 108.078C98.8859 108.256 98.8859 108.376 98.8743 108.445C98.8466 108.649 98.6345 108.87 98.4469 109.005C98.3584 109.068 98.1536 109.154 97.944 109.121C97.7944 109.099 97.6763 109.018 97.5712 108.876L94.709 104.973L92.8015 106.369L95.6499 110.253C96.0726 110.828 96.5975 111.168 97.2101 111.261C97.8973 111.369 98.6785 111.135 99.4046 110.598C100.898 109.506 100.874 108.056 100.222 107.168L97.2494 103.109Z" fill="#DBA111"/>
<path d="M105.94 101.674C105.5 101.218 104.959 101.013 104.39 101.044C104.357 100.603 104.186 100.18 103.844 99.8268C103.248 99.211 101.914 98.7312 100.686 99.9264L98.4771 102.063L103.454 107.201L105.701 105.023C106.419 104.327 106.577 103.653 106.584 103.218C106.596 102.659 106.366 102.112 105.94 101.674ZM102.179 101.5C102.253 101.58 102.344 101.672 102.344 101.8C102.344 101.906 102.287 102.036 102.114 102.201C102.114 102.201 102.068 102.248 102.005 102.311C101.726 102.022 101.594 101.886 101.311 101.596C101.809 101.139 102.016 101.334 102.179 101.5ZM103.358 103.27C103.761 102.88 104.15 103.222 104.26 103.338C104.368 103.446 104.49 103.598 104.49 103.729C104.49 103.729 104.49 103.729 104.49 103.734C104.487 103.855 104.384 104.023 104.2 104.202C104.2 104.202 104.114 104.286 104.012 104.382C103.686 104.045 103.466 103.819 103.14 103.484C103.236 103.388 103.358 103.269 103.358 103.269V103.27Z" fill="#DBA111"/>
<path d="M27.8793 101.218C28.074 101.405 29.5272 102.791 29.5272 102.791L30.0065 102.286L27.3289 99.7327L27.2211 99.8456L23.0417 104.23L24.0714 105.212C24.0714 105.212 25.8521 103.346 26.0438 103.142C26.2385 103.327 27.5486 104.575 27.5486 104.575L28.0286 104.071C28.0286 104.071 26.7185 102.824 26.5238 102.639C26.6976 102.457 27.7072 101.398 27.8793 101.218Z" fill="white"/>
<path d="M34.2838 105.404C33.6202 104.931 32.826 104.742 32.0464 104.873C31.1905 105.02 30.4229 105.519 29.8796 106.284C29.3346 107.051 29.1161 107.94 29.2613 108.793C29.3919 109.575 29.8313 110.264 30.4954 110.735C31.1631 111.21 31.9606 111.396 32.7437 111.265C33.5949 111.122 34.3636 110.62 34.9061 109.861C35.3398 109.248 35.5689 108.554 35.5689 107.867C35.5689 107.696 35.554 107.522 35.5261 107.351C35.3933 106.571 34.9531 105.879 34.2838 105.404H34.2838ZM33.6797 108.987C33.2306 109.615 32.0616 110.995 30.8981 110.168C29.7387 109.345 30.6592 107.788 31.1064 107.156C31.555 106.524 32.7244 105.146 33.8822 105.969C35.046 106.8 34.1282 108.357 33.6797 108.987Z" fill="white"/>
<path d="M41.0498 109.487C39.4831 108.694 37.6679 109.354 36.8262 111.018C36.4023 111.855 36.3187 112.766 36.5878 113.592C36.8349 114.342 37.3719 114.955 38.1005 115.322C38.8306 115.695 39.6493 115.761 40.4033 115.513C41.2236 115.242 41.9084 114.634 42.3322 113.798C43.1715 112.133 42.6209 110.278 41.0498 109.487ZM38.4122 114.7C37.1436 114.062 37.8186 112.384 38.1692 111.694C38.5186 111.002 39.4681 109.463 40.7348 110.107C41.0721 110.276 41.2972 110.527 41.4044 110.855C41.6531 111.615 41.2496 112.597 40.9863 113.119C40.7242 113.637 40.1709 114.545 39.41 114.795C39.0845 114.905 38.7478 114.872 38.4122 114.7Z" fill="white"/>
<path d="M45.435 111.834L45.2552 112.343C45.2552 112.343 46.1418 112.655 46.3639 112.733C46.2656 113.011 44.5376 117.938 44.5376 117.938L45.8806 118.41C45.8806 118.41 47.6099 113.483 47.7066 113.204C47.9287 113.281 48.8153 113.591 48.8153 113.591L49.0469 112.937L45.4844 111.687L45.435 111.834" fill="white"/>
<path d="M54.139 114.203L51.5891 113.665L51.5549 113.82L50.3086 119.75L52.9104 120.296C53.5718 120.434 54.1222 120.366 54.548 120.087C54.9162 119.846 55.1632 119.463 55.2643 118.986C55.2901 118.855 55.3055 118.731 55.3055 118.61C55.3055 118.091 55.0484 117.652 54.5892 117.337C55.1209 117.184 55.5016 116.793 55.624 116.212C55.6449 116.122 55.6574 116.014 55.6574 115.893C55.6572 115.3 55.3452 114.458 54.139 114.203H54.139ZM53.2476 114.728C53.6764 114.819 53.9731 114.983 54.1241 115.216C54.211 115.349 54.2539 115.504 54.2539 115.684C54.2539 115.772 54.2425 115.863 54.2219 115.962C54.0562 116.752 53.4184 116.744 53.0516 116.663C53.0516 116.663 52.6633 116.583 52.4382 116.536C52.4906 116.293 52.7866 114.885 52.8376 114.643C53.0005 114.676 53.2476 114.728 53.2476 114.728ZM53.0516 117.375C53.776 117.528 53.8903 118.099 53.8903 118.446C53.8903 118.595 53.867 118.702 53.864 118.72C53.791 119.062 53.6604 119.294 53.4597 119.423C53.2476 119.565 52.9422 119.592 52.5558 119.512C52.5558 119.512 52.092 119.413 51.8436 119.363C51.897 119.108 52.2438 117.466 52.2962 117.216C52.5085 117.26 53.0516 117.375 53.0516 117.375H53.0516Z" fill="white"/>
<path d="M60.2108 114.992L57.2449 121.063L58.0991 121.127C58.0991 121.127 58.7269 119.807 58.81 119.639C58.9905 119.653 60.4424 119.765 60.6205 119.78C60.6773 119.954 61.1302 121.361 61.1302 121.361L62.6013 121.475L60.3984 114.645L60.2108 114.992ZM59.8852 117.433C60.0286 117.892 60.3045 118.776 60.3957 119.064C60.1027 119.043 59.428 118.99 59.138 118.968C59.271 118.695 59.6753 117.864 59.8852 117.433Z" fill="white"/>
<path d="M66.7061 120.617C66.6944 120.321 66.4764 115.187 66.4764 115.187L66.3248 115.192L65.0552 115.244L65.3161 121.455L69.1053 121.294L69.0719 120.519C69.0725 120.519 66.98 120.608 66.7061 120.617" fill="white"/>
<path d="M73.2349 119.985C73.1877 119.692 72.3905 114.61 72.3905 114.61L72.2384 114.634L70.9856 114.832L71.9487 120.972L75.695 120.381L75.5741 119.614C75.5739 119.614 73.5029 119.939 73.2349 119.985" fill="white"/>
<path d="M87.623 114.7C87.6008 115.509 87.1261 116.194 86.3862 116.492C85.9556 116.664 85.5304 116.658 85.1193 116.481C84.5401 116.236 84.0342 115.656 83.7277 114.894C83.3826 114.025 83.3269 113.263 83.568 112.694C83.7556 112.263 84.1122 111.941 84.6335 111.734C85.3156 111.461 85.9417 111.772 86.4717 112.087L86.6042 112.164L86.9855 111.565L86.8579 111.479C86.0354 110.94 85.0196 110.828 84.1453 111.178C83.3169 111.51 82.6736 112.123 82.3396 112.907C81.9969 113.701 82.0002 114.623 82.3508 115.493C83.0046 117.133 84.8507 117.938 86.472 117.293C87.6478 116.821 88.2858 115.968 88.3711 114.75L88.3823 114.593L87.6318 114.541L87.6231 114.7" fill="white"/>
<path d="M92.4786 113.375C92.3322 113.119 89.8255 108.627 89.8255 108.627L89.6875 108.704L88.5835 109.323L91.6116 114.745L94.9218 112.897L94.5452 112.218C94.5457 112.219 92.7129 113.24 92.4786 113.375Z" fill="white"/>
<path d="M97.1472 103.763L97.0193 103.857L96.5118 104.23L99.1315 107.799C99.3069 108.039 99.3759 108.279 99.3384 108.514C99.2759 108.939 98.8887 109.266 98.7264 109.382C98.5407 109.522 98.2007 109.638 97.8751 109.585C97.5987 109.544 97.3723 109.398 97.1906 109.155L94.6043 105.627L93.4587 106.472L96.0282 109.974C96.3739 110.447 96.7961 110.725 97.2813 110.797C98.0465 110.913 98.7647 110.487 99.1258 110.224C100.366 109.312 100.382 108.172 99.8464 107.446L97.1472 103.763Z" fill="white"/>
<path d="M105.602 102C105.121 101.502 104.506 101.389 103.868 101.634C103.919 101.485 103.949 101.334 103.949 101.182C103.949 100.813 103.802 100.453 103.506 100.149C103.106 99.7376 102.071 99.2293 101.012 100.259L99.1394 102.073L103.462 106.535L105.376 104.679C105.858 104.216 106.11 103.716 106.116 103.211C106.124 102.77 105.944 102.352 105.602 102ZM102.811 101.806C102.811 102.118 102.608 102.375 102.444 102.535C102.444 102.535 102.157 102.814 101.995 102.974C101.82 102.795 100.818 101.762 100.647 101.579C100.763 101.467 100.946 101.293 100.946 101.293C101.531 100.723 102.044 100.685 102.516 101.174C102.732 101.398 102.811 101.61 102.811 101.806ZM104.002 105.044C103.825 104.861 102.657 103.653 102.478 103.47C102.632 103.322 103.032 102.933 103.032 102.933C103.795 102.198 104.568 102.977 104.6 103.013C104.841 103.261 104.959 103.496 104.959 103.729C104.959 103.734 104.959 103.736 104.959 103.738C104.956 103.995 104.807 104.263 104.525 104.542C104.526 104.542 104.153 104.9 104.002 105.044V105.044Z" fill="white"/>
<path d="M36.1626 22.1736L33.554 22.8771L33.8535 23.8114C34.2138 24.9442 33.8877 26.1303 33.0047 26.9047C32.5135 27.3353 31.9463 27.533 31.3207 27.4901C30.37 27.4263 29.297 26.811 28.4514 25.8433C27.4549 24.7018 26.9577 23.6029 27.021 22.6715C27.065 21.9925 27.3952 21.3959 28.0286 20.8409C28.7284 20.2281 29.6157 20.252 30.8194 20.4906L31.7122 20.6671L32.2895 18.1688L31.3907 17.9497C29.4582 17.4715 27.443 17.9412 26.0052 19.1998C23.1895 21.6636 22.9597 25.6874 25.4711 28.5594C27.8049 31.2274 31.8542 31.5182 34.4935 29.2097C36.3944 27.5493 37.0567 25.4248 36.411 23.0726L36.1626 22.1736Z" fill="#DBA111"/>
<path d="M43.2461 9.08963L40.5816 10.3444C40.5816 10.3444 42.069 13.4965 42.5803 14.5829C41.8203 14.9403 41.0842 15.2881 40.3233 15.6473C39.8101 14.5617 38.3219 11.4082 38.3219 11.4082L34.8135 13.0645L40.1566 24.3981L43.668 22.7426C43.668 22.7426 42.0125 19.2372 41.48 18.1006C42.2406 17.7446 42.9762 17.3971 43.7383 17.0381C44.2724 18.1715 45.9258 21.6774 45.9258 21.6774L49.4364 20.0208L44.0949 8.68994L43.2461 9.08963Z" fill="#DBA111"/>
<path d="M55.1255 16.1112C54.9544 15.2673 54.7806 14.4087 54.6118 13.5659C55.6957 13.3479 58.5761 12.7662 58.5761 12.7662L58.0694 10.2489C58.0694 10.2489 55.1877 10.8313 54.1029 11.0505C53.9468 10.2788 53.8175 9.63063 53.6603 8.86004C54.7861 8.63304 57.8685 8.01015 57.8685 8.01015L57.3604 5.4939L56.4383 5.67908L49.3479 7.11302L51.8267 19.3962L59.9041 17.7632L59.3966 15.2483C59.3966 15.2483 56.2588 15.8807 55.1255 16.1112Z" fill="#DBA111"/>
<path d="M66.5826 5.20247L62.6981 5.12183L62.6788 6.0586L62.436 17.6491L70.59 17.8201L70.6484 15.1062C70.6484 15.1062 67.5179 15.0389 66.374 15.0155C66.4066 13.4814 66.5825 5.20247 66.5825 5.20247" fill="#DBA111"/>
<path d="M79.17 11.5219C78.1624 10.7817 77.8675 10.4849 77.9693 10.0806C78.0193 9.87102 78.2476 9.2017 78.9715 9.38091C79.407 9.49278 79.8404 9.72222 80.0335 10.6595L80.2455 11.7L82.8104 10.8333L82.6507 10.0258C82.3352 8.43979 80.9939 7.08975 79.3101 6.66915C78.1042 6.36966 76.8954 6.52986 75.9032 7.12586C74.9925 7.67136 74.352 8.53238 74.0987 9.55143C73.4549 12.1201 75.1864 13.3569 76.3312 14.1764C77.505 15.0157 77.8034 15.3442 77.6242 16.0453C77.568 16.2644 77.439 16.4374 77.237 16.5599C77.0021 16.6981 76.7072 16.748 76.4675 16.6856C75.8508 16.5338 75.5839 16.2424 75.3241 15.445L75.0091 14.4889L72.4355 15.5414L72.6848 16.3584C73.1673 17.946 74.3191 18.9466 76.2041 19.4188C78.3226 19.9488 80.8926 18.9746 81.5328 16.4309C82.2008 13.7506 80.3767 12.4076 79.17 11.5219Z" fill="#DBA111"/>
<path d="M88.437 18.2047C89.4256 18.7043 92.0459 20.0293 92.0459 20.0293L93.2048 17.7382C93.2048 17.7382 90.5824 16.4131 89.597 15.9151C89.9497 15.2124 90.2486 14.6216 90.6008 13.9202C91.6234 14.4367 94.434 15.857 94.434 15.857L95.5896 13.5659L88.2961 9.88013L87.8744 10.7151L82.6426 21.0628L89.9972 24.7773L91.1569 22.4875C91.1569 22.4875 88.2991 21.0438 87.2665 20.5238C87.6531 19.7548 88.0504 18.9739 88.437 18.2047Z" fill="#DBA111"/>
<path d="M102.963 19.375L91.2759 25.4222L93.5116 27.3667C93.5116 27.3667 95.4406 26.3411 96.1417 25.9729C96.663 26.4269 97.4314 27.0954 97.9443 27.541C97.6929 28.2866 96.9785 30.3831 96.9785 30.3831L100.059 33.0631L105.055 18.3291L102.963 19.375Z" fill="#DBA111"/>
<path d="M35.7246 22.9361L34.3472 23.3105L34.4482 23.6222C34.8859 24.9972 34.4911 26.4355 33.4145 27.3769C32.7962 27.9194 32.0753 28.1679 31.2789 28.1166C30.1499 28.0408 28.9492 27.3631 27.9801 26.2547C26.872 24.9861 26.3227 23.7319 26.3954 22.6273C26.4525 21.7886 26.8636 21.0288 27.6173 20.3696C28.607 19.5042 29.8531 19.6625 30.9411 19.8778L31.2401 19.9357L31.5414 18.6299L31.242 18.5552C29.5053 18.1289 27.7031 18.5458 26.4166 19.672C23.8713 21.9013 23.6668 25.5422 25.9428 28.1467C28.0493 30.5552 31.7003 30.8191 34.0838 28.7376C35.8121 27.2219 36.3929 25.3739 35.8074 23.2388L35.7246 22.9361" fill="white"/>
<path d="M43.5123 9.65241L41.4161 10.6435C41.4161 10.6435 43.1808 14.3881 43.4129 14.8804C42.9644 15.093 40.4745 16.2679 40.0226 16.4789C39.791 15.9858 38.0274 12.2414 38.0274 12.2414L35.6448 13.3639L40.4549 23.5639L42.8359 22.443C42.8359 22.443 40.8831 18.3036 40.648 17.8026C41.0995 17.59 43.5864 16.4181 44.038 16.2047C44.2726 16.7043 46.226 20.8462 46.226 20.8462L48.604 19.7226L43.7942 9.521L43.5123 9.65241Z" fill="white"/>
<path d="M54.6347 16.8478C54.5369 16.3577 53.9732 13.567 53.8755 13.0768C54.3971 12.972 57.8393 12.2764 57.8393 12.2764L57.5789 10.9877C57.5789 10.9877 54.1378 11.6804 53.6132 11.7865C53.5179 11.3059 53.0212 8.8505 52.9259 8.37043C53.4516 8.26264 57.1317 7.52163 57.1317 7.52163L56.8707 6.23242L50.0852 7.60174L52.3172 18.6573L59.1676 17.2744L58.9072 15.9852C58.9066 15.9855 55.1647 16.7406 54.6347 16.8478Z" fill="white"/>
<path d="M65.9431 5.81578L63.3125 5.75879L63.3069 6.06942L63.074 17.0356L69.9798 17.182L70.0105 15.7182C70.0105 15.7182 66.272 15.6392 65.7366 15.6278C65.7501 15.0426 65.9432 5.81581 65.9432 5.81581" fill="white"/>
<path d="M79.1234 8.77582C79.9597 8.98517 80.4428 9.54397 80.6475 10.5337L80.7187 10.8796L82.0907 10.4159L82.0388 10.1451C81.7678 8.79374 80.6117 7.63921 79.1595 7.274C78.1155 7.0136 77.0755 7.15018 76.2276 7.6593C75.4605 8.12035 74.9196 8.84669 74.7064 9.70336C74.1661 11.8579 75.5705 12.8615 76.6968 13.6666C77.8369 14.482 78.5241 15.0386 78.2314 16.1951C78.1152 16.6765 77.8008 16.9515 77.5583 17.0963C77.1825 17.3214 76.7215 17.3917 76.3163 17.2923C75.4846 17.0838 75.0564 16.6366 74.7317 15.639L74.6258 15.3202L73.2019 15.901L73.2847 16.1744C73.6985 17.5351 74.7045 18.3977 76.3601 18.8121C78.1788 19.2663 80.3828 18.4433 80.9258 16.2768C81.4917 14.006 80.001 12.9071 78.7946 12.0252C77.7707 11.2693 77.1521 10.764 77.3625 9.92873C77.5469 9.18203 78.1652 8.53579 79.1234 8.77582" fill="white"/>
<path d="M90.3254 13.0815C90.8055 13.3229 94.1545 15.0153 94.1545 15.0153L94.7505 13.8404L88.5733 10.7197L88.4318 10.9983L83.4854 20.7872L89.7205 23.9383L90.3146 22.7639C90.3146 22.7639 86.9104 21.0427 86.4282 20.7981C86.653 20.3511 87.9376 17.8131 88.1608 17.3659C88.636 17.606 91.7686 19.189 91.7686 19.189L92.3657 18.0141C92.3657 18.0141 89.2298 16.4324 88.7546 16.191C88.9757 15.755 90.1049 13.5176 90.3254 13.0815Z" fill="white"/>
<path d="M103.25 19.9318L92.3823 25.5562L93.5969 26.6122C93.5969 26.6122 95.9016 25.3903 96.2277 25.2177C96.4982 25.4539 98.4084 27.1156 98.6731 27.3462C98.558 27.6897 97.7043 30.1855 97.7043 30.1855L99.7668 31.9787L103.966 19.5962L103.25 19.9318ZM97.486 24.5706C98 24.3048 99.3134 23.6224 100.114 23.2056C99.8162 24.0571 99.3248 25.4593 99.1363 26.0051C98.7195 25.6402 97.9033 24.9309 97.486 24.5706Z" fill="white"/>
<path d="M95.6664 62.9947C94.7749 60.634 91.7058 59.6085 88.8046 60.7035C87.5949 61.1586 86.6041 61.9194 85.9285 62.8177C87.8442 57.3502 95.6474 56.1899 95.6474 51.1034C95.6474 42.5776 83.5399 44.9657 85.3016 51.1046C85.3016 48.3193 89.7346 47.8088 89.7346 51.1046C89.7346 54.401 82.0049 56.5626 82.0049 62.1314C82.0049 68.2704 88.145 68.8384 87.5235 74.4531C87.4179 75.4211 86.3768 76.6932 84.8698 76.6932C75.4654 76.6932 78.8226 65.1163 75.5366 61.5935L75.7085 59.2149C77.6081 60.3797 82.6479 57.6509 79.3301 53.4911C79.3301 55.5368 75.0704 55.4235 75.0704 51.5586C75.0704 46.329 79.9595 49.0578 80.1971 50.2126C79.9628 48.3081 79.8743 47.0996 80.1887 46.002C77.5529 46.8519 77.3064 45.3284 77.6398 44.7389C78.0216 44.0571 78.5323 43.2607 79.5593 43.2607C80.1143 43.2607 80.4474 43.3381 80.6437 43.4733C80.972 43.6978 81.2121 43.1849 81.1651 43.662C81.4472 43.2327 81.3343 43.7687 81.6063 43.3381C81.8836 42.9104 82.2569 42.4268 82.9129 41.7825L82.8847 40.8177L83.6526 41.0993L84.3898 39.907C83.5942 38.2575 82.5146 39.052 81.7196 37.0068C81.0546 36.8341 70.6982 37.9604 70.9985 33.8291C70.1541 33.8291 68.1537 34.2918 69.3916 35.9739C68.4291 36.0899 67.7353 34.9967 66.2842 37.9534C68.1019 37.6126 67.161 39.6445 67.161 40.2225C67.161 43.9686 62.1741 43.9053 62.1741 42.1507C60.9723 43.3185 61.6541 45.8722 63.4718 46.5014C63.4718 46.5014 62.7804 49.233 61.0742 50.9648C58.5413 50.8638 54.4779 50.4236 52.1403 48.2139C51.1321 47.2617 50.3317 46.7428 49.6499 46.4761V45.238C50.648 44.7495 51.7425 43.8849 52.88 42.4401C53.7673 41.3565 54.2477 39.9668 54.1184 38.491C54.1016 38.3148 54.0755 38.1407 54.0446 37.971C54.0351 37.917 54.0218 37.8646 54.0092 37.8108C53.9843 37.6919 53.9555 37.5779 53.921 37.4603C53.9044 37.4035 53.889 37.3454 53.871 37.2892C53.8325 37.1714 53.7901 37.0587 53.7442 36.9468C53.7249 36.8999 53.7114 36.8499 53.6888 36.8059C53.6256 36.6552 53.555 36.5135 53.4787 36.3706C53.4461 36.3128 53.4116 36.2588 53.3798 36.2056C53.3274 36.1198 53.2777 36.0329 53.2226 35.9501C53.1781 35.8843 53.1314 35.8178 53.0844 35.7516C53.0361 35.6883 52.985 35.6234 52.9353 35.5599C52.8802 35.492 52.8259 35.42 52.767 35.3527C52.7279 35.3081 52.6855 35.2653 52.6443 35.2243C52.4965 35.0611 52.3363 34.9093 52.1691 34.7643C52.1552 34.7523 52.1386 34.7369 52.1224 34.7244C52.029 34.6445 51.9293 34.5682 51.8313 34.4955C51.8063 34.4765 51.7803 34.458 51.7523 34.4385C51.6475 34.3646 51.5402 34.2924 51.4284 34.2234C51.4216 34.2191 51.4153 34.2164 51.4104 34.2115C50.346 33.5598 49.0598 33.2188 47.7013 33.3265C44.4305 33.5869 41.9992 36.3199 42.2724 39.4311C42.485 41.855 44.2728 43.791 46.597 44.4084C45.7816 44.8635 45.0928 45.1261 44.9372 45.1261C44.963 45.1427 44.9966 45.162 45.0333 45.1856C45.0428 45.1899 45.0539 45.1967 45.0653 45.2024C45.0968 45.2227 45.1343 45.2437 45.1726 45.2643C45.1821 45.2698 45.1938 45.2751 45.203 45.2809C45.2555 45.3072 45.3095 45.3346 45.3703 45.3637C45.3798 45.368 45.3912 45.3716 45.4007 45.3762C45.4545 45.4011 45.5094 45.4273 45.5675 45.4495C45.584 45.4571 45.602 45.4639 45.6198 45.4699C45.7621 45.5293 45.9223 45.5828 46.0975 45.6328C46.1224 45.6396 46.1488 45.6453 46.1702 45.6521C46.2411 45.67 46.313 45.6866 46.3874 45.7045C46.4119 45.7088 46.4369 45.7139 46.4632 45.7194C46.5571 45.7362 46.6554 45.7528 46.754 45.7647C46.7625 45.7647 46.7708 45.769 46.779 45.769V46.4731C46.7421 46.4812 46.7086 46.4851 46.6742 46.4905C45.6103 46.6656 44.919 46.9931 44.6065 47.9402C44.2958 48.8908 44.6149 49.2343 45.1131 49.9012C44.6923 50.6536 43.5893 50.9349 45.0287 52.5972C44.9239 53.2249 45.0567 54.2247 45.9703 54.528C46.2685 54.629 46.5169 54.6828 46.779 54.7281L46.7777 67.1902C45.8665 67.673 45.4168 68.2752 45.1681 68.8365C45.1681 68.8365 44.4366 67.2125 44.4849 70.4295C45.3161 69.7847 44.9889 71.1762 44.9889 71.1762C43.8572 72.6425 45.2946 72.5629 45.2946 72.5629C46.2694 71.5892 46.0707 73.0042 46.0707 73.0042C46.0707 74.7297 46.7715 75.405 46.7775 75.4077V84.9017L45.9496 84.9042L45.9575 87.5239L47.4052 87.5214C46.5928 87.8587 46.0568 88.661 46.135 89.5479C46.2333 90.6657 47.266 91.4963 48.4419 91.4057C49.6168 91.3112 50.4901 90.3312 50.3899 89.2106C50.3234 88.4373 49.811 87.8063 49.1143 87.5163L50.4502 87.5126L50.4446 84.8929L49.648 84.8966L49.6492 76.4732C49.8135 76.5634 49.991 76.6258 50.1838 76.6679C50.2607 76.6823 50.337 76.6929 50.4154 76.698C50.4499 76.7036 50.4858 76.7036 50.5202 76.7046C50.306 75.5973 50.9675 74.8633 50.9675 74.8633C51.3071 74.352 51.7983 73.9534 52.3574 73.6721C54.0292 72.8334 56.3106 73.0454 56.9924 74.411C61.3127 73.2722 65.0253 68.9296 65.0253 68.9296L67.1519 72.5491C62.6432 74.0566 52.8225 82.594 59.6395 85.551C59.6371 86.4117 59.5217 92.7997 55.4254 92.2922C49.5262 91.5656 48.055 94.0064 49.1879 96.7502C48.6554 99.0639 50.4372 99.867 50.4372 99.867C50.1697 98.5306 50.8124 97.4233 53.2505 97.4374C53.238 99.8755 54.8126 100.315 54.8126 100.315C54.8237 98.2273 56.2745 97.454 57.5634 97.4597C57.5539 99.1801 59.5526 99.8339 59.5526 99.8339C59.5526 99.8339 59.046 97.8512 61.3054 97.4597C67.0248 96.4632 61.6532 90.5808 70.3511 88.9597C70.3511 88.9597 66.0199 88.3067 66.0199 85.939C66.0199 83.7839 69.9405 82.3103 71.2903 82.3103C74.0585 87.5994 77.066 87.6412 77.8542 87.6789C79.0802 89.0483 78.6693 93.6637 76.8995 93.573C70.4206 93.2252 70.6576 97.1661 71.3837 97.9723C71.3009 99.5021 72.491 100.386 72.491 100.386C72.491 98.7459 74.0512 98.2848 76.0521 98.3932C75.947 100.396 77.2232 100.695 77.2232 100.695C77.2582 98.6796 78.7495 98.3378 79.809 98.3932C79.7316 99.8059 81.1337 100.222 81.1337 100.222C81.1337 100.222 80.9958 98.4287 82.8835 98.4287C86.4644 98.4263 81.2638 90.7521 88.2527 83.1623C82.1134 86.0041 78.8472 78.9004 78.8472 77.5371C82.0026 81.2296 92.2333 81.9668 92.2333 75.6592C92.2333 69.6334 85.6104 67.3881 88.7091 65.0834C90.5113 63.7434 94.0553 66.4506 92.0275 69.247C94.9353 68.1696 96.5555 65.3539 95.666 62.9945L95.6664 62.9947ZM56.4244 63.1846C54.1099 64.5455 52.5581 66.2673 50.448 67.0205C50.1276 67.1329 49.8721 67.1649 49.65 67.1506V55.389C50.2091 55.4414 51.6599 55.6399 53.3561 56.3413C55.036 57.258 55.036 59.1527 52.9159 59.6018C54.2559 62.1675 58.8977 60.9114 59.9094 58.8217C60.405 58.7777 60.843 59.6623 61.2549 60.4987C60.6035 60.837 59.2705 61.5093 56.4244 63.1846ZM82.3307 43.687C82.076 44.0323 81.8251 44.3758 81.6051 44.6702C82.1922 45.6458 83.2965 46.2556 84.5064 46.1438C86.1785 45.9854 87.4093 44.5013 87.2556 42.8276C87.2467 42.7668 87.2383 42.7119 87.2301 42.6524C87.0509 43.5192 86.0294 44.2531 84.7302 44.3731C83.7464 44.4654 82.8558 44.183 82.3307 43.687H82.3307Z" fill="#D1D3D4"/>
<path d="M79.7332 42.797C80.3159 43.7726 81.4229 44.3824 82.6326 44.2698C84.3073 44.1134 85.5349 42.6284 85.3818 40.9528C85.3756 40.8935 85.3647 40.8365 85.3568 40.7773C85.1792 41.643 84.1529 42.3788 82.8563 42.4991C81.8698 42.5914 80.9806 42.3085 80.4554 41.813C80.2024 42.1594 79.9485 42.5026 79.7332 42.797" fill="#ED1C24"/>
<path d="M70.7726 30.0168C70.7244 30.0168 70.6759 30.0355 70.6185 30.0554C69.5674 30.2772 66.3405 32.4978 67.5185 34.0989C66.5516 34.2132 64.3068 33.5507 62.8588 36.5058C64.678 36.1634 65.2849 37.7754 65.2849 38.3543C65.2849 40.5471 63.5813 41.4267 62.1656 41.4351C61.2179 41.4375 60.4052 41.0516 60.3171 40.3953C60.3212 40.376 60.3126 40.3571 60.3171 40.3375C60.3159 40.3357 60.2978 40.34 60.2978 40.3375H60.2593C59.1303 41.5287 59.8162 44.0115 61.6072 44.6314C61.6072 44.6314 60.9066 47.3665 59.2003 49.0986C57.5016 49.0326 55.13 48.8015 53.0387 48.001C52.4533 47.7784 51.8992 47.4989 51.3827 47.1731C50.9841 46.926 50.6018 46.6614 50.266 46.3451C49.2583 45.3929 48.4628 44.8758 47.7821 44.6122V43.3606C48.7802 42.871 49.8795 42.0134 51.0169 40.5686C51.9056 39.486 52.379 38.0982 52.2492 36.6213C52.2354 36.4448 52.2072 36.2741 52.1722 36.1014C52.1643 36.0476 52.1451 36.0012 52.1337 35.9474C52.1076 35.8285 52.0909 35.6959 52.0567 35.5816C52.0412 35.5232 52.0192 35.4661 51.9989 35.4083C51.9614 35.2904 51.9081 35.1928 51.8641 35.0809C51.8446 35.0334 51.8451 34.9738 51.8256 34.9269C51.7607 34.7792 51.6888 34.6426 51.6138 34.5033C51.5839 34.4438 51.5488 34.3867 51.5175 34.33C51.4651 34.2447 51.3988 34.1625 51.3442 34.0797C51.2989 34.0134 51.2581 33.9531 51.2095 33.8871C51.1614 33.8238 51.1067 33.7554 51.0554 33.6946C51.0006 33.6226 50.9608 33.5501 50.9014 33.4828C50.8628 33.4382 50.8081 33.3903 50.7666 33.348C50.6172 33.1864 50.4712 33.0281 50.3045 32.8858C50.2876 32.8723 50.2633 32.8593 50.2467 32.8473C50.153 32.7686 50.0586 32.688 49.9579 32.6163C49.9313 32.5989 49.9069 32.5764 49.8809 32.5585C49.7744 32.4828 49.6659 32.4165 49.5535 32.3467C49.547 32.3436 49.5405 32.3491 49.5343 32.3467C48.4704 31.6918 47.1952 31.3548 45.8373 31.461C45.5449 31.4843 45.2491 31.5363 44.9708 31.5958C42.1437 32.2222 40.1578 34.7328 40.4074 37.5648C40.6189 39.9638 42.3561 41.8755 44.6435 42.5134C44.6668 42.5199 44.696 42.5266 44.7205 42.5326C43.9035 42.9877 43.221 43.2451 43.0646 43.2451C43.0912 43.2619 43.1237 43.2971 43.1608 43.3221C43.1703 43.3264 43.1884 43.3161 43.1994 43.3221C43.2322 43.3411 43.2544 43.3771 43.2956 43.3991C43.3057 43.4046 43.3227 43.3953 43.3341 43.3991C43.383 43.4252 43.429 43.4663 43.4882 43.4954C43.499 43.4984 43.5182 43.5086 43.5267 43.5146C43.5786 43.5391 43.6394 43.5474 43.7 43.5724C43.7166 43.5795 43.7206 43.5849 43.7385 43.5916C43.8838 43.6489 44.0428 43.7155 44.2199 43.7649C44.2443 43.7705 44.2719 43.7772 44.2969 43.7842C44.3656 43.8021 44.4343 43.8072 44.5087 43.8227C44.5337 43.8295 44.5594 43.8362 44.5857 43.842C44.6794 43.8599 44.7733 43.8875 44.8745 43.8997C44.8816 43.8997 44.906 43.8948 44.9131 43.8997V44.5929C44.8799 44.5978 44.8334 44.6054 44.7975 44.6122C43.7361 44.7859 43.0489 45.1268 42.7372 46.0755C42.4266 47.0262 42.7399 47.3727 43.2379 48.0396C42.814 48.7892 41.7242 49.0719 43.1608 50.7353C43.0587 51.3617 43.1917 52.3569 44.1043 52.6608C44.4033 52.7618 44.6521 52.8066 44.9131 52.8533V65.3113C44.0007 65.7949 43.5424 66.4055 43.2956 66.9673C43.2956 66.9673 41.5515 66.7331 41.6012 69.9518C42.4318 69.3036 43.1223 69.2971 43.1223 69.2971C41.992 70.762 42.795 72.1083 42.795 72.1083C43.7695 71.1322 44.2006 71.1263 44.2006 71.1263C44.2006 72.859 44.9131 73.5332 44.9131 73.5332C44.9131 73.2721 44.9267 73.035 44.9708 72.8015C44.9267 73.035 44.9131 73.2721 44.9131 73.5332V83.026H44.0851V84.239V85.6446H45.5292C45.3524 85.7185 45.1931 85.8178 45.0478 85.9335C44.5477 86.3141 44.2402 86.9022 44.2584 87.5509V87.6664C44.3578 88.787 45.3916 89.6308 46.569 89.5342C47.7428 89.4424 48.6107 88.457 48.5137 87.3391C48.445 86.569 47.9397 85.9346 47.2429 85.6446H48.5715V83.026H47.7821V74.5922C47.9477 74.678 48.1132 74.7476 48.3019 74.7848C48.3829 74.8033 48.4738 74.8143 48.5523 74.8233C48.5868 74.8238 48.614 74.8221 48.6485 74.8233C48.4343 73.7166 49.0914 72.9941 49.0914 72.9941C49.4338 72.4817 49.9211 72.0821 50.4778 71.8003C52.1517 70.961 54.4364 71.167 55.1182 72.532C59.4388 71.3948 63.1476 67.0635 63.1476 67.0635L65.2849 70.6642C60.7751 72.1736 50.9587 80.7212 57.7754 83.6806C57.7723 84.5387 57.6527 90.9219 53.5586 90.4199C47.6607 89.69 46.1879 92.124 47.3199 94.8678C46.7856 97.1842 48.5715 97.9871 48.5715 97.9871C48.3051 96.6523 48.9452 95.5493 51.3827 95.561C51.3697 97.9985 52.9424 98.4492 52.9424 98.4492C52.9508 96.3587 54.4053 95.5726 55.6959 95.5802C55.6874 97.3006 57.6791 97.9679 57.6791 97.9679C57.6791 97.9679 57.1695 95.9718 59.4314 95.5802C65.1489 94.5837 59.7828 88.7122 68.4812 87.0888C68.4812 87.0888 64.1488 86.4359 64.1488 84.0657C64.1488 81.9141 68.0579 80.4458 69.4055 80.4458C69.4067 80.4489 69.4232 80.4427 69.4247 80.4458C72.1927 85.7113 75.2047 85.7583 75.9907 85.7987C77.2158 87.1653 76.7977 91.7836 75.0279 91.6907C68.549 91.3456 68.7759 95.294 69.5017 96.1001C69.4211 97.6324 70.6185 98.507 70.6185 98.507C70.6185 96.8661 72.1798 96.4181 74.1807 96.5237C74.0732 98.5249 75.3552 98.8151 75.3552 98.8151C75.3851 96.799 76.8743 96.4678 77.9354 96.5237C77.8613 97.9398 79.264 98.353 79.264 98.353C79.264 98.353 79.1297 96.5644 81.0162 96.5622C84.5985 96.5622 79.3954 88.8825 86.3884 81.293C80.2494 84.1362 76.9727 77.0341 76.9727 75.6705C80.1287 79.3644 90.3742 80.0895 90.3742 73.7835C90.3742 68.6956 85.6508 66.2996 86.0418 64.2908C86.1135 63.9218 86.3509 63.5715 86.8313 63.2125C88.6358 61.8712 92.1798 64.5795 90.1624 67.3716C93.0675 66.2939 94.6879 63.4725 93.8016 61.1137C92.9074 58.753 89.8266 57.7278 86.9275 58.8224C85.713 59.2807 84.7333 60.0406 84.0585 60.9404C85.9709 55.4732 93.7823 54.3221 93.7823 49.2334C93.7823 40.7076 81.6614 43.0944 83.4231 49.2334C83.4231 49.141 83.4311 49.0526 83.4423 48.9638C83.4595 48.8046 83.4932 48.6628 83.5386 48.5209C84.2196 46.3929 87.871 46.2428 87.871 49.2334C87.871 52.5297 80.1305 54.6953 80.1305 60.2665C80.1305 66.4055 86.2776 66.958 85.6567 72.5705C85.5516 73.542 84.5065 74.8233 82.9995 74.8233C79.768 74.8233 78.0348 73.4496 77.0304 71.5114C75.1142 67.8097 75.8183 62.0378 73.6608 59.7274L73.8341 57.3397C75.7348 58.506 80.7848 55.7808 77.4733 51.621C77.4733 53.6689 73.1987 53.5395 73.1987 49.6762C73.1987 44.4466 78.0829 47.1939 78.3205 48.3476C78.0859 46.4442 77.9994 45.2242 78.3205 44.1308C75.682 44.9782 75.4313 43.4511 75.7596 42.86C76.1457 42.1768 76.6601 41.3773 77.6851 41.3773C79.1668 41.3773 79.0724 41.9204 78.9944 42.6867C79.5603 41.8308 79.7185 41.2018 81.0354 39.9139L81.0163 38.9512L81.7865 39.2208L82.5182 38.0269C81.7237 36.3774 80.64 37.1855 79.8417 35.1387C79.1797 34.9649 70.4712 34.1495 70.7726 30.0168ZM68.8663 33.1939C68.9002 33.4124 68.9726 33.6342 69.0974 33.8293C68.9726 33.6342 68.9002 33.4124 68.8663 33.1939ZM46.2031 35.6778C47.0147 35.6129 47.7321 36.1924 47.8013 36.9679C47.8686 37.7396 47.2664 38.4247 46.4535 38.4891C45.6389 38.5545 44.9202 37.9736 44.8553 37.199C44.8374 36.9934 44.8631 36.8043 44.9323 36.6213C44.9323 36.617 44.9305 36.6037 44.9323 36.6021C44.9402 36.5744 44.9619 36.5522 44.9708 36.525C45.1835 36.0697 45.6443 35.723 46.2031 35.6778ZM65.9396 36.4865C66.0367 36.6487 66.1075 36.8346 66.1706 37.0257C66.1075 36.8346 66.0367 36.6487 65.9396 36.4865ZM60.2593 41.3388C60.3098 41.638 60.4195 41.9038 60.5674 42.1475C60.4197 41.9035 60.3093 41.6383 60.2593 41.3388ZM63.4557 45.3439C63.2456 45.9124 62.9497 46.5953 62.6277 47.2886C62.9497 46.5953 63.2456 45.9123 63.4557 45.3439ZM85.0983 46.5954C84.7469 46.7837 84.4165 47.0332 84.1548 47.3271C84.4185 47.0284 84.7423 46.7858 85.0983 46.5954ZM89.1997 47.0576C89.3331 47.2046 89.4436 47.3739 89.5462 47.5582C89.4435 47.3739 89.3331 47.2046 89.1997 47.0576ZM47.7821 53.508C48.3411 53.5618 49.7855 53.7721 51.479 54.4707C51.4986 54.4802 51.52 54.4789 51.5368 54.49C53.1654 55.4186 53.1329 57.2844 51.0362 57.7248C52.3737 60.2927 57.0335 59.0443 58.045 56.9546C58.5381 56.9106 58.9609 57.7949 59.3736 58.6298C58.7233 58.9687 57.4046 59.6307 54.5598 61.3063C52.245 62.6688 50.6821 64.3862 48.5715 65.138C48.25 65.2545 48.0025 65.285 47.7821 65.2728V53.508ZM60.8947 53.6428C60.7998 53.9112 60.6755 54.1652 60.5096 54.3937C60.6755 54.1652 60.7998 53.9112 60.8947 53.6428ZM49.1107 66.4281C48.8399 66.4826 48.609 66.5244 48.3982 66.5244C48.609 66.5244 48.8399 66.4827 49.1107 66.4281ZM44.0466 67.102C43.9875 67.1446 43.9348 67.2072 43.8925 67.2561C43.9396 67.1988 43.9771 67.1508 44.0466 67.102ZM42.3521 68.4691C42.1389 68.7091 41.9455 68.9601 41.813 69.2201C41.9434 68.9641 42.143 68.7062 42.3521 68.4691ZM87.8711 72.3009C87.8813 72.4625 87.8903 72.6324 87.8903 72.8015C87.8903 72.8852 87.8691 73.0053 87.8518 73.1481C87.8691 73.0053 87.871 72.8852 87.871 72.8015C87.871 72.6259 87.8821 72.4684 87.871 72.3009H87.8711ZM87.2164 74.8233C87.1419 74.9274 87.0578 75.0315 86.9661 75.1314C87.054 75.0347 87.1444 74.9238 87.2164 74.8233ZM45.51 85.8372C45.6007 85.8372 45.694 85.8582 45.7795 85.8757C45.694 85.8582 45.6007 85.8565 45.51 85.8565C45.4286 85.8565 45.3553 85.8608 45.2789 85.8757C45.3553 85.8605 45.429 85.8372 45.51 85.8372Z" fill="#034694"/>
<path d="M75.6669 37.1501L76.7185 37.2055L76.1923 37.9273C76.192 37.9273 75.4899 38.1494 75.6669 37.1501ZM73.1583 37.1501H74.6734C74.6734 37.1501 74.6188 38.3728 75.725 38.4823L75.4901 38.8716C75.4899 38.8716 72.5169 38.0945 73.1583 37.1501Z" fill="white"/>
<path d="M47.1356 47.5959C47.1879 47.3988 45.35 46.3235 44.3502 46.0617C43.9291 45.9526 43.6046 46.459 43.5522 46.6567C43.5011 46.8552 43.5356 47.4558 43.9554 47.566C44.956 47.828 47.0845 47.7936 47.1356 47.5959V47.5959ZM46.9849 49.4304C47.0003 49.2441 45.1672 48.5848 44.2215 48.5139C43.8256 48.4849 43.6171 48.997 43.6046 49.1816C43.5913 49.3698 43.7219 49.9053 44.1183 49.9332C45.0624 50.0033 46.9729 49.6196 46.9849 49.4304ZM44.9036 43.8988V44.6015C45.1724 44.8706 46.1526 45.1864 46.2645 45.1864V43.7948C46.2648 43.795 45.5276 43.9495 44.9036 43.8988ZM44.5199 50.7541C44.2329 50.7655 44.1251 51.1461 44.1322 51.283C44.1346 51.4182 44.2715 51.7921 44.5587 51.781C45.2416 51.7565 46.5805 51.3267 46.5751 51.1928C46.5696 51.0584 45.2031 50.7304 44.5199 50.7541ZM43.1134 69.3046C41.983 70.7695 42.7971 72.1057 42.7971 72.1057C42.7971 71.0856 43.9608 69.7725 44.2204 69.5161C44.2204 69.5164 43.8218 69.3046 43.1134 69.3046ZM46.7198 72.4125C46.5461 73.3162 46.9957 74.1962 47.7742 74.6008C47.9398 74.6866 48.1196 74.7545 48.3083 74.7917C48.3892 74.8102 48.465 74.8199 48.5434 74.8289C48.5779 74.8294 48.6127 74.8301 48.6472 74.8314C48.6472 74.8314 47.5024 73.7596 47.9626 72.7466C47.664 72.5416 47.2184 72.4123 46.7198 72.4123V72.4125ZM44.6511 42.5142C42.9369 41.6777 41.718 39.5812 41.718 37.123C41.718 34.5145 43.0884 32.3099 44.9715 31.5882C42.1443 32.2146 40.1499 34.7271 40.3995 37.5591C40.611 39.9581 42.3637 41.8764 44.6511 42.5142ZM62.85 36.4974C64.6692 36.155 65.2864 37.7725 65.2864 38.3514C65.2864 40.5443 63.5785 41.4279 62.1628 41.4363V41.4375C68.73 41.4375 66.4157 32.9327 62.85 36.4976V36.4974ZM58.4605 55.3698C61.5991 55.3698 61.3881 51.2705 60.7093 50.5911C61.7164 49.5849 63.7887 44.968 63.7887 44.1152C63.7887 44.1152 59.6462 43.2218 60.3077 40.3472C60.3064 40.3453 60.3064 40.3441 60.3064 40.3416L60.2511 40.3316C59.122 41.5228 59.8085 44.0073 61.5995 44.6272C61.5995 44.6272 60.9082 47.3587 59.2019 49.0908C57.5032 49.0248 55.1222 48.8014 53.0308 48.0009C56.2637 49.7167 59.5926 52.3098 58.4606 55.3699L58.4605 55.3698ZM46.1996 35.6875C47.0112 35.6226 47.7259 36.1979 47.7951 36.9734C47.8624 37.7451 47.258 38.4272 46.4451 38.4915C45.6305 38.557 44.9145 37.9816 44.8496 37.2069C44.8496 38.4076 45.8243 39.3835 47.0275 39.3835C47.0454 39.3835 47.0634 39.3823 47.0815 39.3823C47.1893 39.9148 47.2263 40.4806 47.0525 40.895C48.2274 39.8732 49.2046 38.5951 49.2046 37.2068C49.2046 36.0031 48.2274 35.0275 47.0275 35.0275C46.0256 35.0275 45.1866 35.7023 44.93 36.6189C45.1203 36.115 45.602 35.7357 46.1996 35.6873L46.1996 35.6875ZM69.3292 34.1028C67.9099 32.6811 70.0075 30.0239 70.7781 30.0239C69.9353 30.0239 66.2808 32.4166 67.5214 34.1028C68.2059 34.1028 69.3292 34.1028 69.3292 34.1028ZM51.0431 57.7272C52.1689 58.0728 53.3009 57.6514 53.5645 56.7863C53.8282 55.9196 53.1257 54.9408 51.9978 54.594C51.8422 54.5476 51.685 54.5142 51.5302 54.4952C53.1589 55.4238 53.1399 57.2868 51.0431 57.7272ZM47.7772 45.7647C47.7772 45.7647 49.3906 46.2752 51.3755 47.1821C50.9769 46.935 50.603 46.6564 50.2671 46.3401C49.2595 45.3878 48.4579 44.8689 47.7772 44.6053V45.7647ZM48.3892 66.5168C51.7624 66.5168 63.4254 59.0704 63.4254 59.0704C60.5447 59.0704 59.3812 58.6249 59.3812 58.6249C58.7309 58.9637 57.3963 59.6333 54.5515 61.3089C52.2368 62.6714 50.6852 64.3943 48.5747 65.1462C48.2532 65.2626 47.9977 65.2898 47.7772 65.2776C47.2914 65.2357 46.757 65.1698 46.2645 65.1405V54.4311C46.2645 53.3081 45.4445 52.8565 44.9036 52.8565V65.3194C43.9913 65.803 43.5424 66.4039 43.2956 66.9657C43.2956 66.9657 41.5565 66.7338 41.6061 69.9525C41.6061 69.0988 42.8728 67.6059 43.7512 67.6059C43.7512 66.5168 46.9479 66.5168 48.3892 66.5168ZM77.4813 83.7575C76.6271 83.7575 72.7068 83.9235 72.3546 80.5087C71.4881 80.3227 70.4767 80.2852 69.4145 80.4362C72.186 85.7256 75.1945 85.768 75.9817 85.8084C77.2068 87.175 76.7963 91.7899 75.0264 91.697C68.5475 91.3519 68.7851 95.2937 69.5109 96.0999C69.5109 93.1277 71.5313 92.4231 76.6352 92.4231C76.6355 92.4231 80.8073 87.0838 77.4813 83.7575ZM78.8137 96.5202H77.9367C77.8625 97.9362 79.2642 98.353 79.2642 98.353C78.8137 97.9028 78.4854 96.8515 78.8137 96.5202ZM70.6152 98.5138C70.2424 98.1404 69.9353 96.6443 70.4767 96.0999H69.5106C69.4299 97.6321 70.6152 98.5138 70.6152 98.5138ZM89.9553 49.3038C89.9553 44.7791 83.7498 45.4899 83.4435 48.9644C83.7172 46.4177 87.8632 46.0419 87.8632 49.2319C87.8632 52.5282 80.1309 54.6877 80.1309 60.2589C80.1309 66.3979 86.2693 66.966 85.6483 72.5784C85.5433 73.55 84.5022 74.8196 82.9952 74.8196C79.7638 74.8196 78.0341 73.4482 77.0298 71.51C78.057 74.2538 79.8648 76.357 83.6271 76.357C87.5254 76.357 87.8792 73.4756 87.8792 72.8063C87.8792 67.187 82.0104 65.8511 82.0104 60.5106C82.011 55.3106 89.9553 53.1685 89.9553 49.3038ZM44.1968 71.1339C44.1968 72.8665 44.9036 73.5386 44.9036 73.5386C44.9036 72.494 45.3329 71.611 45.5783 71.3674C45.2156 71.0022 44.1968 71.1339 44.1968 71.1339ZM89.0357 61.5574C87.4605 61.5574 86.1708 62.7627 86.035 64.3004C86.1067 63.9313 86.3527 63.5727 86.833 63.2137C88.6376 61.8723 92.1745 64.574 90.1571 67.3662C91.266 66.9209 92.045 65.8388 92.045 64.5708C92.0456 62.9079 90.6982 61.5574 89.0357 61.5574ZM75.2312 96.5202H74.179C74.0715 98.5214 75.352 98.8225 75.352 98.8225C74.8087 98.2808 74.718 97.0329 75.2312 96.5202ZM45.508 85.8472C45.3454 85.8472 45.1936 85.8806 45.0489 85.9358C44.5487 86.3164 44.2438 86.9078 44.262 87.5565C44.4287 88.0901 44.9202 88.4756 45.508 88.4756C46.2341 88.4756 46.8219 87.8875 46.8219 87.162C46.8219 86.4354 46.2341 85.8472 45.508 85.8472ZM52.8993 95.565H51.3785C51.3654 98.0025 52.9419 98.4445 52.9419 98.4445C52.4974 97.9971 51.9332 96.5305 52.8993 95.565H52.8993ZM57.6155 80.1506C57.6155 74.5753 70.9682 73.9209 70.9682 69.3277C70.9682 67.4571 69.3534 66.6124 68.2054 66.6124C68.5304 66.938 70.2671 70.6726 65.2799 70.6726C60.7701 72.182 50.9494 80.7186 57.7662 83.678C57.7631 84.536 57.6475 90.9246 53.5534 90.4225C47.6555 89.6926 46.1841 92.1307 47.3161 94.8745C47.3161 90.7114 50.2397 91.4847 54.0576 91.4847C56.4452 91.4847 59.9357 88.4653 59.9357 83.3818C59.9357 83.3818 57.6155 82.4914 57.6155 80.1506ZM46.2648 83.5675V72.3724C45.508 72.3724 44.9039 73.5391 44.9039 73.5391V83.0904V83.0293L44.0768 83.0317L44.0839 84.2376C44.7201 84.2373 46.2648 83.9091 46.2648 83.5672L46.2648 83.5675ZM48.563 97.9933C48.563 97.9933 47.3826 96.1387 48.6474 94.8745H47.3164C46.782 97.1909 48.563 97.9933 48.563 97.9933ZM56.7944 95.5891C56.7944 95.5891 56.1587 95.5891 55.6906 95.5891C55.6822 97.3096 57.6809 97.9609 57.6809 97.9609C56.9766 97.2599 56.4941 95.8851 56.7944 95.5891Z" fill="#6A7AB5"/>
<path d="M19.6657 77.0026L19.5921 76.7767L19.5606 76.5416C19.4528 75.7365 19.2581 74.2368 18.1003 73.9686C17.7908 73.8966 17.4709 73.9336 17.1296 74.0739C17.2225 73.7177 17.2116 73.3951 17.0997 73.0994C16.6729 71.9894 15.1618 72.0035 14.35 72.0141H14.1113L13.8762 71.9707C13.0787 71.8238 11.591 71.546 10.9806 72.5648C10.8166 72.8368 10.7514 73.1518 10.7794 73.5186C10.4704 73.3193 10.1589 73.23 9.84477 73.2452C8.65656 73.3085 8.2023 74.7503 7.95928 75.5263L7.88515 75.7517L7.77491 75.961C7.38554 76.676 6.66354 78.0013 7.44337 78.899C7.65163 79.1387 7.93185 79.2995 8.28973 79.3842C8.00679 79.6185 7.82405 79.8865 7.74422 80.1931C7.43387 81.3395 8.66606 82.2162 9.32588 82.686L9.51948 82.8288L9.6862 82.9974C10.2453 83.5891 11.2841 84.6839 12.3781 84.2204C12.6676 84.0957 12.9076 83.8799 13.0999 83.5663C13.2367 83.9084 13.4336 84.162 13.6988 84.3369C14.6954 84.9823 15.9088 84.083 16.5616 83.6029L16.7546 83.4615L16.9689 83.3564C17.702 83.0053 19.0678 82.3571 18.9646 81.173C18.9372 80.8553 18.8044 80.5637 18.5668 80.2843C18.9326 80.2626 19.235 80.1518 19.4805 79.9528C20.4059 79.2053 19.9242 77.7729 19.6657 77.0026" fill="white"/>
<path d="M14.4604 77.9629C21.108 81.8919 19.0607 77.5713 18.9146 76.9324C18.7674 76.2957 18.7115 71.5165 14.4604 77.9629Z" fill="#ED1C24"/>
<path d="M14.0424 78.9465C12.36 86.4798 15.8363 83.2003 16.3971 82.8663C16.9575 82.5294 21.4855 80.9979 14.0424 78.9465Z" fill="#ED1C24"/>
<path d="M12.9751 78.8552C5.28756 79.5807 9.48349 81.8749 9.97631 82.3034C10.4705 82.7305 13.3234 86.5658 12.9751 78.8552Z" fill="#ED1C24"/>
<path d="M12.7339 77.809C9.66558 70.7235 8.78067 75.422 8.52516 76.0256C8.26965 76.6241 5.50359 80.5252 12.7339 77.809Z" fill="#ED1C24"/>
<path d="M122.538 75.9614L122.428 75.7521L122.353 75.5267C122.11 74.7504 121.655 73.3088 120.47 73.2453C120.153 73.2304 119.843 73.3189 119.534 73.5163C119.562 73.1519 119.493 72.8369 119.334 72.5649C118.721 71.5455 117.235 71.8236 116.437 71.9705L116.2 72.0139H115.962C115.153 72.0033 113.641 71.9895 113.216 73.0995C113.1 73.3949 113.092 73.7178 113.182 74.0737C112.846 73.9336 112.526 73.8972 112.214 73.9686C111.057 74.2364 110.859 75.7363 110.756 76.5414L110.721 76.7768L110.649 77.0027C110.389 77.7728 109.909 79.2051 110.834 79.9534C111.08 80.1522 111.38 80.2632 111.748 80.2849C111.51 80.5643 111.378 80.8562 111.35 81.1737C111.248 82.3578 112.611 83.0059 113.346 83.357L113.558 83.4621L113.751 83.6036C114.406 84.0842 115.62 84.9829 116.614 84.3375C116.883 84.1626 117.078 83.909 117.213 83.5669C117.407 83.8805 117.644 84.0964 117.936 84.2213C119.03 84.6845 120.07 83.5897 120.628 82.9981L120.796 82.8297L120.987 82.6866C121.649 82.2171 122.881 81.3401 122.571 80.194C122.489 79.8866 122.309 79.6192 122.024 79.3848C122.381 79.2998 122.662 79.1394 122.869 78.8996C123.65 78.0017 122.929 76.6766 122.538 75.9614" fill="white"/>
<path d="M116.661 77.2595C110.872 72.1523 115.612 72.7619 116.264 72.7046C116.912 72.65 121.478 71.2245 116.661 77.2595Z" fill="#ED1C24"/>
<path d="M115.855 77.9629C109.208 81.8919 111.251 77.5713 111.4 76.9324C111.546 76.2957 111.601 71.5165 115.855 77.9629Z" fill="#ED1C24"/>
<path d="M116.271 78.9465C117.955 86.4798 114.478 83.2003 113.916 82.8663C113.356 82.5294 108.83 80.9979 116.271 78.9465Z" fill="#ED1C24"/>
<path d="M117.337 78.8552C125.025 79.5807 120.832 81.8749 120.338 82.3034C119.846 82.7305 116.989 86.5658 117.337 78.8552Z" fill="#ED1C24"/>
<path d="M117.577 77.809C120.647 70.7235 121.53 75.422 121.787 76.0256C122.041 76.6241 124.807 80.5252 117.577 77.809Z" fill="#ED1C24"/>
<path d="M119.07 78.0301C119.063 77.9685 119.043 77.9134 119.035 77.8536C119.652 77.4002 120.319 76.9144 120.319 76.9144L120.255 76.7708C120.255 76.7708 119.477 76.9065 118.731 77.0366C118.356 76.4229 117.718 76.0067 116.987 75.9355C116.755 75.2377 116.523 74.5269 116.523 74.5269L116.366 74.5402C116.366 74.5402 116.261 75.2809 116.155 76.0064C115.706 76.1278 115.303 76.382 114.996 76.7458C114.833 76.9418 114.715 77.1637 114.621 77.3953C113.869 77.3953 113.075 77.3978 113.075 77.3978L113.042 77.5525C113.042 77.5525 113.782 77.9134 114.466 78.2482C114.469 78.3106 114.461 78.3723 114.466 78.4353C114.519 79.0378 114.801 79.5787 115.256 79.9732C115.015 80.7243 114.745 81.5636 114.745 81.5636L114.878 81.6437C114.878 81.6437 115.501 80.9977 116.057 80.4275C116.347 80.5228 116.655 80.5603 116.967 80.5326C117.282 80.5087 117.58 80.4145 117.85 80.2741C118.494 80.7376 119.22 81.2627 119.22 81.2627L119.339 81.1603C119.339 81.1603 118.927 80.3824 118.561 79.6859C118.941 79.2162 119.12 78.631 119.07 78.0299" fill="white"/>
<path d="M116.649 76.8733C116.285 76.9015 115.957 77.0737 115.722 77.3553C115.488 77.6344 115.374 77.9871 115.408 78.3496C115.471 79.1001 116.136 79.6581 116.884 79.5918C117.252 79.5584 117.577 79.3871 117.815 79.1091C118.047 78.8275 118.16 78.4769 118.129 78.112C118.064 77.3612 117.398 76.8054 116.649 76.8733Z" fill="#ED1C24"/>
<path d="M13.6529 77.2595C19.4438 72.1523 14.701 72.7619 14.0512 72.7046C13.3993 72.65 8.83491 71.2245 13.6529 77.2595Z" fill="#ED1C24"/>
<path d="M15.8451 78.2479C16.534 77.9134 17.2709 77.552 17.2709 77.552L17.2364 77.3972C17.2364 77.3972 16.4439 77.3948 15.6904 77.3948C15.5991 77.1634 15.4805 76.9413 15.3162 76.7455C15.0099 76.3817 14.607 76.1278 14.1568 76.0059C14.0536 75.2798 13.9485 74.5399 13.9485 74.5399L13.7894 74.5266C13.7894 74.5266 13.5589 75.2369 13.3302 75.9353C12.5947 76.0064 11.9555 76.4227 11.5816 77.0363C10.8384 76.9063 10.0559 76.7705 10.0559 76.7705L9.99561 76.9142C9.99561 76.9142 10.6609 77.3999 11.2778 77.8534C11.2677 77.9134 11.2498 77.9685 11.2433 78.0296C11.1922 78.634 11.3755 79.2159 11.7554 79.6856C11.3855 80.3816 10.9739 81.16 10.9739 81.16L11.0958 81.2624C11.0958 81.2624 11.8205 80.7373 12.4638 80.2738C12.7342 80.415 13.0321 80.5057 13.3457 80.5323C13.6601 80.5605 13.9681 80.5225 14.2581 80.4272C14.8117 80.9977 15.4346 81.6434 15.4346 81.6434L15.5712 81.5633C15.5712 81.5633 15.3002 80.7234 15.0585 79.9751C15.5128 79.5779 15.7946 79.037 15.8481 78.4344C15.8547 78.372 15.845 78.3106 15.845 78.2482" fill="white"/>
<path d="M14.592 77.3555C14.3569 77.0739 14.0302 76.9012 13.6642 76.8735C12.9161 76.8056 12.2506 77.3615 12.1854 78.1125C12.1545 78.4774 12.2672 78.828 12.4993 79.1096C12.7339 79.3876 13.0638 79.5589 13.428 79.5923C14.176 79.6586 14.8413 79.1003 14.9062 78.3501C14.9369 77.9873 14.825 77.6346 14.592 77.3555Z" fill="#ED1C24"/>
<path d="M14.4991 45.1338C11.2627 44.5622 8.16378 46.7347 7.59194 49.971C7.02092 53.2096 9.19097 56.3083 12.4276 56.8798C15.6669 57.4511 18.7673 55.2797 19.3372 52.0417C19.9101 48.8048 17.7387 45.7061 14.4991 45.1338Z" fill="white"/>
<path d="M15.8491 49.6445C15.7968 49.6124 15.7055 49.5532 15.595 49.4802C15.106 49.156 14.1472 48.522 14.1209 48.503C13.9881 48.4117 13.8588 48.3248 13.7315 48.239C13.3052 47.9534 12.924 47.7049 12.5655 47.498C12.4273 47.4196 12.2937 47.3462 12.1593 47.2805C11.5894 46.993 11.0431 46.8192 10.3982 46.7625C9.90103 47.1214 9.46957 47.5659 9.12012 48.0796C10.6029 48.6151 12.0507 49.4726 15.0652 51.345C15.2377 50.9464 15.8147 49.7191 15.8491 49.6445Z" fill="#ED1C24"/>
<path d="M14.4592 52.8409C14.5195 52.6908 14.7845 52.0201 14.8928 51.7619C11.8037 49.843 10.3692 48.9939 8.88309 48.4685C8.65256 48.8823 8.47987 49.3339 8.36719 49.8145C9.21544 50.9791 11.4887 52.1233 14.4592 52.8409Z" fill="#ED1C24"/>
<path d="M14.1247 47.9645C15.2814 47.2802 16.5956 47.4665 17.61 47.8127C17.2318 47.3242 16.7737 46.8974 16.2409 46.565C15.2827 46.3744 13.9593 46.3445 12.9058 47.1819C13.2889 47.407 13.6845 47.6696 14.1247 47.9645Z" fill="#ED1C24"/>
<path d="M9.50935 53.4911C9.66412 53.5973 9.82269 53.6983 9.99131 53.7931C10.3318 53.9813 10.7005 54.1439 11.0815 54.2832C11.2431 54.3443 11.4073 54.401 11.573 54.4545C12.1524 54.6451 13.4821 54.9905 13.5812 55.0136C13.6016 54.9626 14.0998 53.7304 14.2888 53.2623C11.9857 52.691 9.46374 51.6912 8.26547 50.3911C8.19352 50.9915 8.22148 51.5853 8.34829 52.1484C8.60108 52.6991 9.00702 53.1379 9.50935 53.4911Z" fill="#ED1C24"/>
<path d="M13.6587 55.495L13.1781 55.3712C12.7325 55.258 12.2495 55.1312 11.7583 54.9805C11.9978 55.4909 12.3747 55.8887 12.7765 56.1966C13.315 56.2681 13.8464 56.2545 14.3571 56.1662C13.9881 55.8792 13.6587 55.495 13.6587 55.495" fill="#ED1C24"/>
<path d="M18.4757 49.486C18.3663 49.1284 18.2227 48.7819 18.0421 48.4591C17.1341 48.0542 15.7512 47.6586 14.5435 48.2495L16.2093 49.3494C16.5566 49.3185 16.8762 49.3089 17.1686 49.316C17.3283 49.3185 17.4765 49.3272 17.6183 49.341C17.9444 49.3697 18.2227 49.4222 18.4757 49.486" fill="#ED1C24"/>
<path d="M17.6227 49.7908C17.5741 52.5283 16.2836 54.6397 15.1714 55.9607C16.9122 55.3558 18.285 53.8556 18.6274 51.9177C18.7447 51.2554 18.7241 50.604 18.6013 49.9841C18.3309 49.8999 18.0075 49.8296 17.6228 49.7908" fill="#ED1C24"/>
<path d="M12.4898 46.9502C13.2694 46.2629 14.1901 46.0308 15.0392 46.0118C14.8236 45.9428 14.6039 45.8833 14.375 45.8445C13.1643 45.6308 11.9799 45.8559 10.9739 46.4009C11.5096 46.5057 11.9937 46.6936 12.4898 46.9502Z" fill="#ED1C24"/>
<path d="M16.2727 49.7934C15.8766 50.6186 15.6436 51.1239 15.4503 51.5836C15.3908 51.7229 15.333 51.8581 15.2746 51.9988C15.1823 52.2293 14.8977 52.9459 14.8977 52.9459L14.728 53.3665L13.9924 55.1887C14.1953 55.4578 14.441 55.6772 14.6827 55.8485C15.7756 54.6019 17.1356 52.5068 17.1772 49.7644C16.9021 49.7546 16.5997 49.7647 16.2727 49.7934" fill="#ED1C24"/>
<path d="M11.2072 54.7994C10.8404 54.6731 10.4741 54.5292 10.1282 54.3606C10.2574 54.7597 10.4437 55.1141 10.6313 55.4182C11.0237 55.6699 11.4543 55.8684 11.914 56.0101C11.6161 55.6745 11.359 55.2776 11.2072 54.7994Z" fill="#ED1C24"/>
<path d="M9.58835 54.0658C9.33963 53.9167 9.10828 53.7508 8.89404 53.5686C9.13652 54.0022 9.44199 54.3998 9.79634 54.7484C9.71216 54.5309 9.6383 54.3058 9.58835 54.0658Z" fill="#ED1C24"/>
<path d="M110.33 52.042C110.902 55.28 114 57.4514 117.238 56.8801C120.476 56.3088 122.645 53.2098 122.077 49.9713C121.505 46.7349 118.406 44.5624 115.167 45.134C111.929 45.7061 109.759 48.8048 110.33 52.042Z" fill="white"/>
<path d="M113.818 49.6445C113.869 49.6124 113.961 49.5532 114.074 49.4802C114.563 49.156 115.52 48.522 115.545 48.503C115.681 48.4117 115.81 48.3248 115.937 48.239C116.359 47.9534 116.743 47.7049 117.102 47.498C117.24 47.4196 117.375 47.3462 117.507 47.2805C118.076 46.993 118.625 46.8192 119.269 46.7625C119.766 47.1214 120.199 47.5659 120.544 48.0796C119.062 48.6151 117.619 49.4726 114.6 51.345C114.427 50.9464 113.853 49.7191 113.818 49.6445Z" fill="#ED1C24"/>
<path d="M115.208 52.8409C115.147 52.6908 114.88 52.0201 114.778 51.7619C117.861 49.843 119.3 48.9939 120.785 48.4685C121.014 48.8823 121.188 49.3339 121.301 49.8145C120.451 50.9791 118.178 52.1233 115.208 52.8409Z" fill="#ED1C24"/>
<path d="M115.543 47.9645C114.385 47.2802 113.072 47.4665 112.056 47.8127C112.435 47.3242 112.896 46.8974 113.428 46.565C114.385 46.3744 115.708 46.3445 116.76 47.1819C116.38 47.407 115.982 47.6696 115.543 47.9645Z" fill="#ED1C24"/>
<path d="M120.156 53.4911C120.004 53.5973 119.846 53.6983 119.675 53.7931C119.336 53.9813 118.968 54.1439 118.588 54.2832C118.425 54.3443 118.259 54.401 118.094 54.4545C117.517 54.6451 116.186 54.9905 116.086 55.0136C116.064 54.9626 115.565 53.7304 115.379 53.2623C117.682 52.691 120.202 51.6912 121.404 50.3911C121.475 50.9915 121.444 51.5853 121.32 52.1484C121.066 52.6991 120.661 53.1379 120.156 53.4911Z" fill="#ED1C24"/>
<path d="M116.01 55.495L116.487 55.3712C116.934 55.258 117.42 55.1312 117.912 54.9805C117.669 55.4909 117.293 55.8887 116.892 56.1966C116.355 56.2681 115.822 56.2545 115.314 56.1662C115.678 55.8792 116.01 55.495 116.01 55.495" fill="#ED1C24"/>
<path d="M111.192 49.486C111.302 49.1284 111.443 48.7819 111.628 48.4591C112.534 48.0542 113.913 47.6586 115.122 48.2495L113.458 49.3494C113.11 49.3185 112.791 49.3089 112.497 49.316C112.34 49.3185 112.191 49.3272 112.047 49.341C111.722 49.3697 111.446 49.4222 111.192 49.486" fill="#ED1C24"/>
<path d="M112.045 49.7908C112.092 52.5283 113.386 54.6397 114.499 55.9607C112.754 55.3558 111.38 53.8556 111.041 51.9177C110.924 51.2554 110.941 50.604 111.068 49.9841C111.336 49.8999 111.662 49.8296 112.045 49.7908" fill="#ED1C24"/>
<path d="M117.179 46.9502C116.399 46.2629 115.477 46.0308 114.629 46.0118C114.844 45.9428 115.062 45.8833 115.293 45.8445C116.503 45.6308 117.687 45.8559 118.693 46.4009C118.159 46.5057 117.674 46.6936 117.179 46.9502Z" fill="#ED1C24"/>
<path d="M113.395 49.7934C113.793 50.6186 114.021 51.1239 114.221 51.5836C114.278 51.7229 114.333 51.8581 114.392 51.9988C114.486 52.2293 114.77 52.9459 114.77 52.9459L114.939 53.3665L115.676 55.1887C115.472 55.4578 115.228 55.6772 114.985 55.8485C113.893 54.6019 112.53 52.5068 112.492 49.7644C112.766 49.7546 113.07 49.7647 113.395 49.7934" fill="#ED1C24"/>
<path d="M118.461 54.7994C118.828 54.6731 119.192 54.5292 119.541 54.3606C119.408 54.7597 119.225 55.1141 119.035 55.4182C118.643 55.6699 118.212 55.8684 117.755 56.0101C118.052 55.6745 118.309 55.2776 118.461 54.7994Z" fill="#ED1C24"/>
<path d="M120.081 54.0658C120.327 53.9167 120.559 53.7508 120.774 53.5686C120.531 54.0022 120.228 54.3998 119.872 54.7484C119.954 54.5309 120.029 54.3058 120.081 54.0658Z" fill="#ED1C24"/>
</g>
<defs>
<clipPath id="clip0_69_434">
<rect width="129.071" height="129.071" fill="white" transform="translate(0.299072 0.152344)"/>
</clipPath>
</defs>
</svg>
