<svg width="130" height="130" viewBox="0 0 130 130" fill="none" xmlns="http://www.w3.org/2000/svg">
<g clip-path="url(#clip0_69_526)">
<path d="M127.514 64.6874C127.514 99.3481 99.4186 127.444 64.7595 127.444C30.1003 127.444 2.00293 99.3481 2.00293 64.6874C2.00293 30.0283 30.1003 1.93237 64.7595 1.93237C99.4186 1.93191 127.514 30.0283 127.514 64.6874Z" fill="white" stroke="#0053A0" stroke-width="3.2302"/>
<path fill-rule="evenodd" clip-rule="evenodd" d="M6.72771 65.4292C6.3222 33.3871 31.9781 7.0727 64.0218 6.66643C96.0639 6.26076 122.378 31.9184 122.785 63.9605C123.189 96.0026 97.5326 122.317 65.4905 122.722C33.4484 123.128 7.13398 97.4713 6.72771 65.4292H6.72755H6.72771ZM64.0126 5.9428C31.5703 6.35352 5.5932 32.9962 6.00408 65.4384C6.4151 97.8807 33.0574 123.856 65.4997 123.447C97.942 123.036 123.918 96.3936 123.508 63.9513C123.097 31.509 96.4548 5.53192 64.0126 5.9428Z" fill="#0053A0"/>
<path fill-rule="evenodd" clip-rule="evenodd" d="M62.6282 26.1234C55.5038 26.1065 47.2265 28.9305 41.6629 33.536C41.6445 33.5482 41.6445 33.5973 41.6828 33.6172C44.864 34.879 47.0456 36.5532 50.4461 38.4573C50.5687 38.5247 50.6117 38.4956 50.6377 38.3852C52.2827 30.0297 62.4826 32.3478 63.4346 26.2552C63.3932 26.2138 63.3994 26.1387 63.312 26.1341C63.0866 26.128 62.8566 26.1249 62.6282 26.1234ZM66.8703 26.1341C66.7998 26.1341 66.7768 26.1632 66.7799 26.2751C66.3521 27.3483 67.6093 28.466 68.3421 29.1896C68.4127 29.2555 68.5292 29.3322 68.6166 29.3705C73.1699 31.224 78.2093 32.5931 79.3131 37.8302C79.3361 37.9115 79.3514 37.9636 79.4358 37.8916C81.8627 36.2818 84.2697 34.649 86.7257 33.1006C86.8514 33.0485 86.8054 32.9902 86.7257 32.9396C81.1758 28.9934 74.2416 26.4254 66.8703 26.1341ZM38.4755 36.1883C34.0355 40.1253 30.2257 45.275 28.2415 51.061C28.2193 51.1178 28.2532 51.1438 28.3323 51.1515C32.6771 51.544 34.0968 45.8776 37.4269 43.7711C37.4713 43.745 37.5112 43.722 37.5081 43.6683C37.272 41.0866 37.1586 38.9111 38.4755 36.1883ZM92.0717 37.427C92.317 39.4308 92.13 41.3319 91.598 43.1839C91.575 43.2713 91.578 43.3387 91.6777 43.4062C94.888 45.1233 96.6281 50.1381 100.338 50.3343C100.384 50.3543 100.455 50.3573 100.429 50.296C99.1409 45.8208 95.4369 40.5255 92.0717 37.427ZM101.62 53.2289C97.0666 57.7945 104.456 65.4447 94.4312 69.7144C93.5466 69.9751 92.6972 70.2848 91.8969 70.2878C89.6678 70.2986 86.4958 68.5983 86.5157 71.9819C86.5157 72.0432 86.5709 72.0862 86.6445 72.1153C89.7414 73.4415 93.9268 76.316 93.9942 80.7467C94.146 86.0283 88.5869 89.5852 89.4685 94.6015C101.349 84.3281 106.235 69.1595 101.62 53.2289ZM27.3528 53.9831C27.3144 53.9939 27.2864 54.0353 27.2517 54.1165C22.7528 66.4106 27.1734 85.5224 40.9743 95.618C40.9774 95.3573 41.1292 94.8146 41.2871 94.4497C41.3453 94.3087 41.3362 94.1278 41.2871 93.9561C40.7812 91.733 39.455 89.4916 38.1933 87.31C33.8404 80.0844 36.2569 75.1294 43.2847 71.9145C43.3752 71.8853 43.3951 71.8347 43.3461 71.7412C43.2372 71.5021 43.1299 71.266 43.0241 71.0237C42.9919 70.9593 43.0241 70.8306 42.8631 70.8535C41.2871 71.0498 39.5133 71.1893 37.9096 71.1172C35.4965 70.5791 33.1919 69.6179 31.4566 67.0622C28.3499 62.725 32.6046 56.8915 27.4737 54.0153C27.4313 53.9908 27.3912 53.9739 27.3528 53.9831ZM92.4136 71.7535C92.5301 71.7535 92.6497 71.7704 92.7662 71.8025C94.3238 72.0862 96.6802 73.003 98.08 74.7354C98.1704 74.8473 98.129 74.9408 97.9895 74.9286C95.7404 74.8611 93.2139 74.6127 91.4646 73.2345C91.2162 73.0382 90.9878 72.8435 91.1626 72.3759C91.2913 72.08 91.7038 71.8531 92.0487 71.7918C92.1744 71.7704 92.294 71.7504 92.4136 71.7535ZM36.7814 72.6703C36.9071 72.6672 37.0298 72.6703 37.1555 72.6795C37.2597 72.6918 37.3655 72.6918 37.4361 72.7607C37.8684 73.2759 37.7825 73.9964 36.9746 74.5545C35.2682 75.6476 33.2902 75.7089 31.4683 75.7871C31.397 75.7902 31.2722 75.712 31.3977 75.5939C33.0578 74.0731 34.8942 72.6887 36.7814 72.6703ZM67.6292 93.3919C67.6062 93.3888 67.5802 93.3949 67.5587 93.4118C66.1605 94.0757 63.9636 94.3991 62.7279 93.7046C62.5792 93.6311 62.4918 93.6862 62.4335 93.7721C60.2136 97.5313 54.9381 97.4424 51.1927 96.4872C48.4101 95.8602 45.6873 95.066 43.4382 97.2937C55.1481 105.738 73.199 106.002 86.7472 96.7095C84.1915 95.503 81.8719 96.3707 79.0617 97.0223C75.8805 97.7613 71.4145 98.4297 67.8101 93.4731C67.7488 93.4563 67.6936 93.3949 67.6292 93.3919ZM65.2897 94.2382C65.3219 94.2412 65.3572 94.2443 65.4001 94.2474C65.8064 94.2949 66.0379 94.5019 66.2862 94.7824C66.4058 94.9403 66.4487 95.1243 66.4288 95.319C66.3613 97.0545 66.0639 98.8099 65.4798 100.329C65.4675 100.401 65.4154 100.417 65.3894 100.329C64.7117 98.1905 63.5542 96.0258 65.0153 94.3409C65.1088 94.2596 65.187 94.2336 65.2897 94.2382Z" fill="#0053A0"/>
<path fill-rule="evenodd" clip-rule="evenodd" d="M69.0398 9.94946C69.3878 10.4089 69.7358 10.9204 69.6132 11.4718C69.1655 13.9946 68.6841 16.5121 68.172 19.0249C68.0816 19.586 67.6738 19.8267 67.2644 20.2039C70.0241 20.7052 75.1861 21.6803 77.9549 22.2015C77.8813 21.1084 78.7168 20.4691 79.0526 19.4787C78.1327 20.1226 76.9583 20.3587 75.8668 20.1241C74.7307 19.9095 71.9174 19.3499 70.7845 19.1153C70.9684 18.2369 71.085 17.3415 71.2889 16.4631C72.3927 16.6578 74.1696 17.0763 75.2704 17.2097C76.2086 17.432 76.9185 16.1288 77.429 15.5156C77.0703 15.5968 76.3957 15.6382 76.0293 15.5555C74.8733 15.3312 72.7959 14.8936 71.64 14.6586C71.7427 13.821 71.9205 12.995 72.0953 12.1778C74.0761 12.6986 78.217 12.8929 79.6873 14.5577C79.7363 13.6386 79.2166 12.4967 79.7394 11.8856C77.0028 11.3544 71.7764 10.46 69.0398 9.94946ZM67.7198 9.98978C65.0828 10.002 60.0297 10.2795 57.3942 10.3125C57.9584 11.2405 57.1198 12.0554 57.0999 12.9846C57.9937 12.1737 60.2244 11.931 61.3849 11.9663C61.3819 14.5099 61.644 17.064 61.6793 19.5998C61.6946 20.0797 61.3206 20.3848 61.0139 20.5779C62.1607 20.5657 63.9728 20.4246 65.0476 20.4062C64.5186 19.9202 64.2503 19.8804 64.2411 19.1966C64.0541 16.8555 63.9606 14.1263 63.8962 11.7946C65.0828 11.7081 67.2644 11.9211 68.2334 12.5105C68.2288 11.4864 67.2384 10.4678 67.7198 9.98978ZM56.1846 10.6755C54.4997 11.043 50.7467 11.307 49.2948 12.41C47.5593 13.6148 47.1592 16.2883 49.4082 17.4611C50.8248 18.0406 53.5124 17.4105 54.9121 17.5224C55.8749 17.5623 56.2812 18.8961 55.648 19.5492C54.2805 20.765 50.5657 20.765 48.9437 20.2744C49.3408 21.205 49.7854 22.0083 50.2055 22.9267C50.7574 22.5802 51.737 22.4943 52.361 22.3824C53.6902 22.1892 56.8393 21.3368 57.7269 20.2652C58.7878 19.0188 58.84 17.2128 57.8066 16.0706C56.8776 15.0526 53.9999 15.2324 52.7765 15.314C52.0789 15.314 51.5025 15.5601 50.8402 15.2333C50.276 14.8452 50.3082 13.8761 50.9398 13.5492C52.1541 12.9059 54.906 12.8064 56.1739 13.3272C56.1003 12.4389 56.2137 11.5638 56.1846 10.6755ZM83.3269 12.9443C83.5538 13.506 83.6856 14.0364 83.4174 14.5677C82.4178 16.7222 81.2817 18.8609 80.2239 21.0317C79.9264 21.6649 79.5462 22.0666 78.8425 22.3318C79.7808 22.8117 81.3921 23.6166 82.3396 24.0964C81.9425 22.6461 82.9268 21.3445 83.4894 20.1747C84.0306 20.4706 85.4825 21.1483 85.8381 21.737C86.3149 22.5434 86.4315 23.3713 86.5342 24.2068C86.5802 24.9627 86.6415 25.533 85.8611 25.8013C86.9573 26.2474 88.6805 27.1657 89.7001 27.6563C88.8906 25.9883 89.3904 23.7193 88.3095 22.0804C89.0132 22.1111 90.1937 22.2291 90.9419 21.7676C92.2941 20.975 92.6237 19.7209 92.1622 18.0667C91.9077 17.1959 91.0523 16.6992 90.3256 16.3527C88.5901 15.4941 85.0639 13.7919 83.3269 12.9443ZM43.7894 14.0533C41.3701 15.4118 36.7202 17.7355 34.3325 19.1353C34.9556 19.2993 35.3879 19.5324 35.6838 20.0735C36.8781 22.2184 38.0693 24.3617 39.2529 26.5065C39.5595 27.0385 39.466 27.6793 39.2238 28.2711C41.7059 26.8928 46.3527 24.4767 48.8425 23.1091C48.0652 22.6676 48.5589 21.1943 48.2461 20.2253C48.0008 21.0716 47.127 21.8412 46.4141 22.3625C45.2581 23.1382 42.5445 24.5211 41.341 25.2064C40.9025 24.4291 40.4564 23.6334 40.0409 22.8362C40.9792 22.2536 43.1547 21.2908 44.0745 20.6791C44.6127 20.0046 44.2968 19.031 44.4164 18.2384C44.1803 18.5236 43.8737 18.7811 43.5379 18.9544C42.5292 19.5155 40.3153 20.742 39.2927 21.2939C38.9049 20.558 38.4403 19.8604 38.1046 19.0954C39.9734 18.2476 43.3248 15.9786 45.4543 16.0997C44.9223 15.3243 44.0669 14.9726 43.7894 14.0533ZM85.5146 16.0093C86.4376 16.4707 87.7929 17.0732 88.6315 17.5316C90.856 18.6876 89.2738 21.1053 87.6641 20.1947C86.7442 19.888 85.1344 18.9789 84.2376 18.611C84.6239 17.7125 85.1176 16.9077 85.5146 16.0093ZM32.1454 20.7589C31.8898 21.1268 31.5551 21.4625 31.157 21.6772C29.8267 22.2966 27.4433 24.446 26.8716 25.8013C26.0748 27.3528 26.0833 28.7801 27.0226 30.5907C28.0932 32.7263 29.6111 33.7167 31.9333 33.7167C34.2402 33.5742 36.3176 31.5535 37.2666 30.3086C37.7894 29.7061 38.2968 29.0423 39.0634 28.705C38.4195 27.9906 37.7418 27.3129 37.0857 26.6077C36.8511 27.4647 36.4372 28.2021 35.876 28.9166C35.0466 29.8579 33.7594 31.3373 32.2964 31.2668C30.833 31.1948 30.3674 30.4972 29.7149 29.7843C29.0626 29.0714 28.6137 28.2389 28.727 26.9603C28.8401 25.6817 31.3748 23.3207 33.2044 23.2502C32.7848 22.4529 32.5654 21.5653 32.1454 20.7589ZM23.2415 29.3596C22.5738 30.2212 21.3873 31.7191 20.6801 32.5485C21.3367 32.4519 21.9347 32.5071 22.4348 32.8996C24.355 34.3944 26.2726 35.9045 28.1823 37.4085C28.6727 37.7795 28.8944 38.3345 28.9586 38.9692C29.6652 38.1275 30.803 36.6527 31.4896 35.8324C30.895 35.9106 30.3157 35.9428 29.8563 35.5718C27.9057 34.0678 25.9881 32.5393 24.0482 31.0246C23.5176 30.6214 23.2217 30.0756 23.2415 29.3596ZM18.6837 35.1487C17.4669 37.6492 14.949 42.2961 13.7529 44.7966C14.4166 44.5329 14.9151 44.5804 15.5173 44.887C17.6818 45.9709 19.857 47.0242 22.0211 48.0943C22.5522 48.3626 23.0172 48.8946 23.2311 49.4465C24.4376 46.9046 26.6637 42.4064 28.0513 39.886C27.7654 39.886 27.4789 39.6468 27.275 39.4445C26.7031 38.9017 26.4146 38.2824 25.8329 37.7504C25.9948 38.7592 25.849 39.9673 25.4092 40.9469C24.898 42.0385 23.5409 44.6847 23.0298 45.7778C22.1821 45.4911 21.5272 45.0035 20.7105 44.6356C21.1195 43.6575 22.3279 41.4406 22.7471 40.4732C22.7517 39.9059 22.0772 38.9477 21.5978 38.2624C21.5771 38.6304 21.4186 39.0045 21.2448 39.3433C20.7233 40.4057 19.5481 42.7575 19.0164 43.8092C18.271 43.4321 17.3013 43.0672 16.556 42.6993C17.0774 41.6384 18.3939 38.983 18.9357 37.9313C19.3548 37.1049 20.0341 36.4135 20.8717 35.995C20.0037 35.6454 19.4287 35.7527 18.6837 35.1487ZM20.2464 49.0525C20.5939 49.6152 20.6697 50.5672 20.6904 51.2403C20.7821 52.5097 20.0373 54.9167 19.843 56.1524C17.5046 55.694 15.1537 55.1298 12.8249 54.6192C12.1818 54.4966 11.9224 53.9799 11.5444 53.428C11.2993 54.4813 10.8817 56.4712 10.6572 57.5337C11.127 57.1872 11.4771 56.9174 12.0286 57.04C14.5202 57.5628 16.9987 58.1101 19.4805 58.6728C20.0522 58.7955 20.6259 59.2309 20.922 59.772C21.4533 57.362 22.4483 52.9573 22.9691 50.535C22.714 50.5565 22.4477 50.5994 22.2231 50.4568C21.4977 50.0567 20.9818 49.4312 20.2464 49.0525H20.2464Z" fill="#0053A0"/>
<path fill-rule="evenodd" clip-rule="evenodd" d="M20.2757 69.7051C19.9253 70.2079 19.4229 70.6203 18.8237 70.7338C16.5443 71.3792 14.1133 71.8729 11.5132 72.4984C10.9913 72.6855 10.6755 72.4662 10.1821 72.086C10.4127 73.1408 10.7681 74.8609 11.0191 75.9157C11.9449 74.6187 13.6686 74.6678 15.0321 74.2124C15.3561 75.3055 15.7372 77.5976 16.1012 78.6677C16.6733 79.2625 17.6233 79.3453 18.3699 79.6075C18.176 79.3162 17.8114 78.6968 17.7549 78.3457C17.49 77.1897 16.9905 74.9836 16.7262 73.8384C17.5984 73.6437 18.4531 73.3861 19.3379 73.2634C19.8062 75.0924 20.9029 78.4975 20.054 80.2422C20.9443 79.9586 21.6786 78.9774 22.474 79.1843C21.9497 76.7283 20.7597 72.1826 20.2757 69.7051H20.2756H20.2757ZM20.3967 80.8876C20.1057 80.8784 19.8124 80.9045 19.5194 80.9367C17.5453 81.3598 15.7113 82.3333 14.871 84.3954C13.7636 87.2715 15.9509 91.6946 18.8844 92.7754C20.7707 93.45 22.6365 92.944 24.0368 91.8985C25.3375 91.0077 26.2197 89.5191 26.1849 87.5229C26.1033 85.2708 24.8442 83.0371 23.0084 81.7661C22.1353 81.1529 21.2705 80.9106 20.3968 80.8876H20.3968H20.3967ZM20.3161 83.3989C21.4048 83.3927 22.5106 83.6702 23.2604 84.7894C24.1927 85.9484 24.4755 87.5766 23.8151 88.5517C22.8768 89.7843 21.3644 90.5202 19.7716 90.4558C18.0398 90.3945 16.2852 88.1776 16.7969 86.0512C17.2836 84.3187 19.249 83.4863 20.3161 83.3989ZM27.1429 91.7789C26.7173 91.7911 26.3029 91.8755 25.8921 92.0303C23.9222 92.757 22.4767 94.028 21.8995 96.205C21.0901 99.1838 24.3478 103.095 27.4248 103.647C29.4002 103.979 31.1492 103.267 32.345 101.991C33.4711 100.887 34.1713 99.2359 33.7874 97.2736C33.313 95.0705 31.5322 93.1817 29.5022 92.2526C28.6068 91.9199 27.8518 91.7528 27.1429 91.7789ZM28.1208 94.1889C28.9821 94.192 29.7653 94.5369 30.3492 95.1471C31.4279 96.1437 31.9365 97.3671 31.4383 98.6641C30.7526 100.188 29.4784 101.172 27.8988 101.388C26.1828 101.626 23.9649 99.3555 24.1981 97.4836C24.4775 95.7665 25.5975 95.0659 26.5175 94.5799C27.0625 94.3146 27.6039 94.1859 28.1208 94.1889ZM35.7852 98.635C35.7683 99.6162 34.7626 99.3264 33.968 100.562C35.1612 100.443 37.1619 101.506 38.0956 102.204C36.7081 104.311 35.2655 106.37 33.8584 108.455C33.597 108.893 33.1387 108.942 32.6579 108.98C33.5356 109.588 35.129 110.652 36.0075 111.259C35.8327 110.558 35.8971 109.977 36.2789 109.404C37.5207 107.567 38.7794 105.735 40.0181 103.889C40.0886 103.814 40.1469 103.641 40.2833 103.685C41.2998 104.237 42.8866 105.618 43.2453 106.731C43.6715 105.911 43.5903 104.602 44.3737 104.281C42.2151 102.794 37.953 100.09 35.7852 98.635ZM44.9103 104.734C45.2261 105.309 45.1449 105.966 44.9609 106.57C44.2556 108.931 43.3572 111.055 42.6505 113.408C42.4926 113.978 42.1354 114.317 41.4117 114.486C43.6516 115.196 46.2518 116.143 48.6204 116.867C51.0734 117.661 53.2765 117.069 53.5417 114.495C53.6966 113.017 52.1221 112.333 51.5058 112.004C53.1278 112.205 54.2194 111.338 54.3068 109.816C54.4447 108.732 53.4574 107.547 51.2221 106.822C49.6185 106.299 46.5262 105.186 44.9103 104.734ZM78.8519 106.589C77.8125 106.857 76.0739 107.584 75.0513 107.932C75.6217 108.177 76.0157 108.344 76.2088 108.919C76.9386 111.136 77.8202 113.204 78.5775 115.415C78.7845 116.111 79.039 116.899 78.6588 117.583C81.0136 116.858 85.0994 115.383 87.4328 114.609C87.2994 114.414 87.097 114.256 87.1093 114.011C87.051 113.178 87.2611 112.504 87.1906 111.662C86.6509 112.784 85.4643 113.359 84.2562 113.83C83.5755 114.049 81.6621 114.901 80.9876 114.969C80.2425 112.726 79.3548 110.365 78.6005 108.122C78.3935 107.541 78.5453 107.135 78.8519 106.589ZM47.1302 107.325C47.9919 107.628 50.4464 108.189 51.2835 108.539C52.4502 109.022 51.6928 111.113 50.4755 110.845C49.6216 110.707 47.2238 110.035 46.4235 109.735C46.6488 108.931 46.8819 108.122 47.1302 107.325ZM58.552 108.539C58.6271 108.694 58.5811 109.071 58.4523 109.241L54.0676 116.663C53.6766 117.299 53.3087 117.589 52.7644 118.006C53.764 118.161 55.4934 118.657 56.4976 118.851C56.1741 118.147 56.2032 117.276 56.726 116.605C58.2745 116.741 61.169 116.951 62.7082 117.138C63.021 117.869 63.4211 118.748 62.7082 119.416C63.7278 119.409 65.5062 119.37 66.4996 119.438C66.052 118.906 65.6166 118.371 65.4295 117.682C64.9634 116.309 63.231 111.207 62.6868 109.626C62.5932 109.339 62.719 108.983 62.7282 108.951L58.552 108.539ZM70.1392 108.596C69.0201 108.78 67.1159 109 66.0458 109.132C66.5548 109.489 66.932 109.71 67.004 110.313C67.2677 112.629 67.7353 114.849 68.0327 117.167C68.0941 117.892 68.1063 118.825 67.5973 119.416C70.0503 119.183 74.5638 118.45 77.0061 118.167C76.9125 117.951 76.7546 117.747 76.816 117.512C76.9263 116.683 77.236 115.97 77.3388 115.131C76.5293 116.057 75.358 116.554 74.0824 116.776C73.3511 116.899 71.217 117.244 70.5532 117.229C70.2757 114.878 69.8694 112.398 69.5843 110.049C69.5045 109.436 69.7299 109.068 70.1392 108.596ZM60.3472 110.322L62.1348 115.191C61.0172 115.127 58.8816 114.995 57.7655 114.869L60.3472 110.322ZM46.0295 111.282C47.0551 111.682 48.7569 112.258 49.6691 112.611C51.6667 113.307 51.1409 115.985 48.7201 115.153C47.6331 114.808 46.1843 114.356 45.1525 113.963C45.4009 113.085 45.7811 112.168 46.0295 111.282Z" fill="#0053A0"/>
<path fill-rule="evenodd" clip-rule="evenodd" d="M99.6223 24.1364C98.0416 24.069 96.9961 24.5044 95.8922 25.438C94.6565 26.5618 93.8149 27.8665 93.824 29.8243C93.8654 31.3666 95.5503 33.7905 97.5771 35.0691C98.1474 35.4907 99.052 36.0165 99.1378 36.7202C99.8093 36.0334 100.51 35.3558 101.197 34.7134C99.5518 34.2197 96.7661 32.6222 96.366 30.7825C96.1115 29.3184 96.4702 28.84 97.0927 28.0397C98.2548 26.6369 99.4322 26.1295 101.197 26.617C102.774 27.2456 104.188 29.2218 104.311 30.6614C105.131 30.2321 105.908 29.8902 106.741 29.4717C106.08 29.0623 105.788 28.5717 105.341 27.9784C104.372 26.5664 102.549 24.5504 100.338 24.1978C100.09 24.1686 99.8477 24.1472 99.6223 24.1364ZM108.324 31.6702C108.292 32.7035 107.748 33.0224 107.006 33.5743C105.204 34.8069 103.498 36.0625 101.701 37.2568C101.191 37.5819 100.53 37.9989 99.8032 37.6493C100.387 38.5569 101.542 40.09 102.134 40.9869C102.195 40.0609 102.692 39.6408 103.253 39.2729C105.195 37.9759 107.021 36.5761 108.97 35.2914C109.532 34.9112 109.854 34.7456 110.602 34.997C110.023 34.1109 108.908 32.5578 108.324 31.6702ZM111.774 36.5301C111.236 37.3427 110.041 36.849 109.194 37.1756C110.225 37.7566 111.364 39.6209 111.794 40.7155C109.486 41.7964 107.579 42.7668 105.269 43.8615C104.83 44.0838 104.137 43.9427 103.688 43.771C104.165 44.7384 104.962 46.4402 105.44 47.4015C105.695 46.6564 106.44 46.0232 107.135 45.7166C109.2 44.7783 110.9 43.8707 112.985 42.9846C113.514 44.0255 114.402 45.9849 114.104 47.1592C114.901 46.6778 115.292 45.6292 116.201 45.7273C115.098 43.3356 112.888 38.9187 111.774 36.5301ZM116.786 46.8756C116.566 47.8783 115.656 48.4562 115.091 49.2044C113.962 50.5244 112.603 52.0115 111.28 53.3484C110.964 53.6443 110.181 53.7378 109.706 53.8451C108.721 53.9877 108.263 54.1027 107.509 53.4711C107.745 54.532 108.131 56.4238 108.344 57.4848C108.764 56.8485 109.212 56.4744 110.038 56.2644C110.774 56.1325 111.426 55.8489 111.955 56.0804C114.369 57.3943 118.9 59.2662 119.467 59.8534L118.641 55.8903C118.372 56.2782 118.056 56.4652 117.735 56.3426C116.286 55.7815 114.566 54.9812 113.336 54.5105C114.236 53.4649 115.288 52.4546 116.24 51.4642C116.654 50.9598 117.221 50.7605 117.724 51.2511L116.786 46.8756Z" fill="#0053A0"/>
<path fill-rule="evenodd" clip-rule="evenodd" d="M111.058 70.2603C110.599 70.2725 110.08 70.4366 109.525 70.8045C108.735 71.499 108.444 72.586 108.183 73.558C107.828 75.2 106.944 78.5744 106.621 80.2209C107.167 79.7825 107.637 79.7334 108.254 79.8683C110.664 80.388 113.065 80.9338 115.466 81.4536C116.047 81.5655 116.476 82.0208 116.805 82.5313C117.16 80.247 118.579 75.6032 118.541 73.2728C118.495 71.3626 116.724 70.1438 115.03 70.5408C114.069 70.8107 113.529 71.9206 113.316 72.6995C113.313 71.5404 112.433 70.2235 111.058 70.2603ZM111.067 73.0306C111.774 73.0352 112.427 73.6868 112.238 74.5055C112.051 75.3579 111.712 77.1516 111.504 77.9948C110.684 77.8293 109.831 77.6453 109.022 77.4583C109.255 76.5782 109.474 75.3288 109.706 74.4349C109.939 73.4216 110.52 73.0306 111.067 73.0306ZM115.485 73.1824C116.221 73.2085 116.896 73.9474 116.733 74.8474C116.505 75.9297 116.088 77.9259 115.889 78.9914C114.995 78.8105 114.069 78.5943 113.166 78.4164C113.394 77.3325 113.745 75.7703 114.034 74.6864C114.3 73.5764 114.911 73.164 115.485 73.1824ZM106.451 80.6947C105.773 81.912 105.154 83.0725 104.444 84.3052C104.982 84.0476 105.514 84.0185 105.957 84.2546C107.532 85.087 108.873 85.8674 110.432 86.7351C111.035 87.0832 111.688 87.7317 111.755 88.5902C111.729 89.74 110.935 91.1306 109.877 91.5982C109.112 91.9569 108.241 91.589 107.66 91.2532C106.232 90.3947 105.105 89.7845 103.676 88.9137C103.182 88.6301 102.742 88.42 102.698 87.5032C102.014 88.6623 101.398 89.9301 100.68 91.1244C101.632 90.6982 102.288 90.9819 102.972 91.405C104.243 92.1363 105.301 92.7495 106.56 93.4824C107.521 94.0282 108.484 94.3884 109.796 94.0956C110.929 93.8335 111.89 92.7373 112.582 91.6074C113.313 90.4238 113.955 89.0455 113.882 87.7363C113.817 86.3841 112.994 85.4611 112.077 84.8509C110.581 83.9449 109.393 83.3209 107.883 82.4409C107.302 82.0913 106.469 81.5655 106.451 80.6947ZM107.276 94.6307C107.243 95.7698 106.606 97.1097 105.795 98.0388C105.385 98.5876 104.068 100.081 103.536 100.653C101.733 99.1227 100.093 97.7352 98.2839 96.2159C97.8055 95.8219 97.4284 95.2731 97.4054 94.6506C96.6572 95.4218 95.6469 96.567 94.9539 97.3934C95.5733 97.306 96.1544 97.6065 96.6189 98.0005C98.3927 99.5137 100.113 101.065 101.913 102.555C102.452 103.046 102.73 103.521 102.759 104.302C104.392 102.459 107.421 98.9771 109.013 97.1036C108.796 97.0101 108.508 96.9763 108.386 96.7188C107.915 95.8602 107.774 95.3114 107.276 94.6307ZM94.7822 97.6065C94.2763 98.2703 93.2629 98.6551 92.5332 98.9771C90.9556 99.7298 88.7418 101.53 88.2803 103.638C87.9123 105.454 88.3125 106.922 89.3167 108.245C90.3101 109.588 91.5627 110.368 93.292 110.413C95.2268 110.394 97.2889 109.151 98.8159 107.599C99.3187 107.096 99.935 106.405 100.671 106.348C100.058 105.619 99.5456 104.795 98.8772 104.099C98.4449 105.431 96.3629 107.619 94.9539 108.003C93.7106 108.283 92.8781 107.947 91.969 107.164C90.9586 106.118 90.3301 104.831 90.7486 103.323C91.3711 101.381 93.9498 99.9583 95.5703 100.239C95.2759 99.3711 95.0536 98.442 94.7822 97.6065Z" fill="#0053A0"/>
<path fill-rule="evenodd" clip-rule="evenodd" d="M65.0477 26.4668C64.8423 27.0586 64.7028 27.8389 64.5648 28.5242C64.5357 28.6745 64.4605 28.7772 64.3701 28.8861C59.7815 33.5038 54.112 32.1593 51.9994 38.931C51.7602 39.5029 52.0638 40.1085 53.0864 40.6742C53.1891 40.7355 53.2795 40.7094 53.2795 40.6021C53.022 33.2493 62.9565 33.746 65.129 28.6438C65.152 28.5917 65.2256 28.6055 65.2486 28.6438C67.0745 32.0504 70.0917 32.4965 72.8497 34.091C74.9149 35.2822 76.4035 36.3631 76.8251 39.7466C76.8389 39.9061 76.8834 39.877 76.9646 39.7957C77.2774 39.4508 78.0363 39.2729 78.0133 38.7563C77.3448 33.7644 71.8471 32.6866 67.4363 30.6307C67.2523 30.4897 67.0653 30.3486 66.8813 30.2076C65.9584 29.116 65.2547 27.8849 65.0477 26.4668ZM64.968 32.7096C64.9189 32.7127 64.8775 32.7234 64.8346 32.748C64.7871 32.771 64.7411 32.82 64.715 32.8706C64.6905 32.9166 64.6997 33.0623 64.715 33.1619C64.7319 33.2263 64.7902 33.2616 64.8254 33.303C64.899 33.3934 64.9634 33.4455 65.0585 33.5161C65.1765 33.5943 65.3222 33.4977 65.3482 33.4041C65.3835 33.2416 65.3835 33.0623 65.3482 32.9197C65.339 32.8676 65.2992 32.8354 65.267 32.7878C65.2225 32.7388 65.1734 32.7127 65.0968 32.7096C65.0646 32.7066 65.0125 32.7035 64.968 32.7096ZM66.4674 34.1002C66.4521 34.1032 66.4459 34.1063 66.4291 34.1201C66.3999 34.1431 66.3769 34.1814 66.3769 34.2198C66.3739 34.4206 66.2834 34.7134 66.4674 34.8177C66.5578 34.8591 66.6713 34.8744 66.7418 34.7947C66.7771 34.7364 66.8461 34.7165 66.8415 34.6138C66.8415 34.5647 66.774 34.5494 66.7525 34.4942C66.7234 34.4129 66.7387 34.2688 66.7096 34.2106C66.6836 34.1676 66.6575 34.1262 66.61 34.1201C66.5609 34.1109 66.5164 34.0879 66.4674 34.1002ZM63.7062 34.1293C63.5729 34.1753 63.4318 34.2719 63.3828 34.4421C63.3245 34.5433 63.3276 34.623 63.3828 34.6843C63.4533 34.7885 63.5407 34.9112 63.6633 34.9679C63.7676 35.017 63.9025 35.017 63.9485 34.7947C63.9991 34.6107 64.0021 34.3516 63.9193 34.2811C63.812 34.2044 63.8381 34.0971 63.7062 34.1293ZM65.1673 36.5593C64.5801 38.327 64.4283 39.2177 64.0098 40.6251C64.7764 40.6312 65.1995 40.6343 65.7514 40.645C65.3022 39.0414 65.2808 38.4052 65.1673 36.5593Z" fill="#0053A0"/>
<path fill-rule="evenodd" clip-rule="evenodd" d="M38.0634 45.2933C38.0373 45.2933 38.0051 45.3071 37.9729 45.3332C33.8841 48.217 32.7741 53.3284 27.5159 52.4836C31.2482 54.2283 31.1582 58.518 31.5389 62.4964C31.8604 65.8478 34.423 70.3628 41.332 69.423C41.4087 69.4169 41.4608 69.3556 41.4117 69.282C40.9702 68.6519 39.4892 68.8588 39.1212 68.7975C33.6519 67.7719 32.7257 62.7417 31.5897 57.0493C31.3254 55.4042 30.258 54.3648 29.6029 53.1291C29.5555 53.0034 29.5129 52.9635 29.6736 52.9344C33.1582 52.2675 35.7852 49.2442 38.5785 46.0292C38.6368 45.994 38.6475 45.9142 38.5785 45.856C38.4206 45.6981 38.2765 45.5233 38.1339 45.3332C38.1079 45.3071 38.0925 45.2903 38.0634 45.2933ZM37.5406 51.9087C37.4915 51.9118 37.4394 51.9225 37.398 51.947C37.349 51.97 37.3045 52.0191 37.2754 52.0697C37.2524 52.1157 37.2631 52.2613 37.2754 52.361C37.2953 52.4254 37.3628 52.4606 37.398 52.502C37.4716 52.5925 37.5375 52.6446 37.6311 52.7151C37.7491 52.7933 37.8856 52.6967 37.9116 52.6032C37.9469 52.4407 37.9469 52.2613 37.9116 52.1188C37.9009 52.0666 37.8626 52.0344 37.8304 51.9869C37.7859 51.9379 37.7368 51.9118 37.6602 51.9087C37.6265 51.9057 37.5851 51.9026 37.5406 51.9087ZM39.112 53.3376C39.0952 53.3422 39.0799 53.3483 39.063 53.3606C39.0339 53.3805 39.0109 53.4188 39.0109 53.4602C39.0017 53.658 38.8989 53.9478 39.0829 54.0551C39.1703 54.1026 39.2822 54.1133 39.3527 54.0352C39.3926 53.9769 39.4631 53.9646 39.4631 53.865C39.4662 53.8129 39.4049 53.7991 39.3865 53.7423C39.3604 53.6611 39.3727 53.5154 39.3435 53.4602C39.3206 53.4158 39.293 53.3667 39.2439 53.3606C39.1948 53.3483 39.1596 53.3284 39.112 53.3376ZM36.3294 53.5507C36.1976 53.5967 36.055 53.7025 36.0075 53.8742C35.9492 53.9738 35.9523 54.0444 36.0075 54.1057C36.0749 54.2099 36.1746 54.3326 36.2972 54.3878C36.4015 54.4384 36.5364 54.4491 36.5824 54.2253C36.633 54.0413 36.6269 53.7745 36.5395 53.7025C36.4337 53.6258 36.4628 53.5185 36.3294 53.5507ZM37.9438 55.9515C37.7276 57.7361 37.0761 59.7751 36.4398 61.1151C37.1819 61.0154 37.7752 61.4662 37.8212 62.0411C38.0082 61.3895 38.508 60.8882 39.1013 61.063C38.7119 59.444 38.2305 57.7039 37.9438 55.9515Z" fill="#0053A0"/>
<path fill-rule="evenodd" clip-rule="evenodd" d="M43.7801 73.334C43.751 73.3417 43.7188 73.3509 43.6804 73.3662C37.3487 75.8131 36.0839 81.4979 39.6238 86.5035C42.2838 90.9725 43.4612 92.8138 42.1964 96.4059C47.1453 90.5141 55.9132 100.046 60.9433 92.6958C61.0108 92.6053 60.905 92.544 60.8008 92.4428C60.5555 92.2726 60.2979 92.1592 60.0465 92.0595C59.8594 91.989 59.7567 92.0304 59.6432 92.1914C57.5843 94.3607 50.9076 93.8793 45.859 93.8947C45.7042 93.8947 45.2427 93.9759 45.0909 94.0572C44.6065 94.3055 44.1159 94.5248 43.5992 94.4788C43.4612 94.4788 43.2512 94.4052 43.2864 94.1185C43.5379 90.4467 41.3532 88.1133 39.9688 85.0838C39.5364 84.0505 36.3292 78.2553 44.0423 74.7353C44.0775 74.6679 44.1511 74.628 44.1419 74.5253C44.1189 74.1665 44.0453 73.8124 43.9411 73.4444C43.9227 73.354 43.8706 73.3218 43.7801 73.334ZM49.5078 80.3327C49.4588 80.3404 49.4082 80.3496 49.3652 80.3726C49.3177 80.3986 49.2717 80.4462 49.2472 80.4952C49.2242 80.5428 49.2303 80.6884 49.2472 80.7881C49.2625 80.8524 49.33 80.8846 49.3652 80.9276C49.4434 81.018 49.5048 81.0686 49.5983 81.1407C49.7179 81.2173 49.8666 81.1207 49.8911 81.0272C49.9233 80.8662 49.9279 80.6853 49.8911 80.5428C49.8788 80.4922 49.8298 80.463 49.8022 80.414C49.7531 80.3619 49.7148 80.3404 49.6397 80.3327C49.6044 80.3297 49.5569 80.3266 49.5078 80.3327ZM51.1023 81.6849C51.0854 81.688 51.067 81.6911 51.0501 81.7049C51.0241 81.7279 50.998 81.7662 51.0011 81.8045C50.9919 82.0054 50.8892 82.292 51.0701 82.4024C51.1605 82.4469 51.2602 82.4561 51.3338 82.3794C51.369 82.3212 51.4533 82.312 51.4533 82.2077C51.4564 82.1602 51.3859 82.1464 51.3629 82.0881C51.3368 82.0084 51.3598 81.8628 51.3338 81.8045C51.3077 81.7601 51.2832 81.711 51.231 81.7049C51.185 81.6911 51.1498 81.6757 51.1023 81.6849ZM48.2583 81.8566C48.1265 81.9011 47.9854 82.0084 47.9364 82.1786C47.8751 82.2752 47.8812 82.3503 47.9364 82.4116C48.0038 82.5143 48.0943 82.6339 48.2169 82.6922C48.3197 82.7443 48.4561 82.7535 48.4975 82.5312C48.5496 82.3472 48.5558 82.0789 48.4684 82.0084C48.3626 81.9302 48.3917 81.8244 48.2583 81.8566ZM49.7117 84.1532C49.4956 85.9378 48.8424 87.9768 48.2077 89.3168C48.9498 89.2171 49.5431 89.6587 49.5891 90.2367C49.7761 89.5851 50.2759 89.0914 50.8692 89.2677C50.4783 87.6488 49.9954 85.9087 49.7117 84.1532Z" fill="#0053A0"/>
<path fill-rule="evenodd" clip-rule="evenodd" d="M85.6773 73.325C85.6451 73.3281 85.6083 73.3603 85.596 73.3955C85.4565 73.6929 85.3155 73.9766 85.1729 74.274C85.0472 74.6097 85.041 74.8964 85.547 75.0574C94.6184 78.766 90.1524 85.7831 87.7868 89.901C87.5415 90.3242 86.9544 91.5721 86.9099 92.121C86.8194 92.7051 86.9099 93.2141 86.8961 93.8243C86.8961 93.9669 86.6968 94.0052 86.5864 93.9853C80.779 92.8691 75.7549 98.0005 70.9946 92.4629C70.5561 91.9891 70.0303 91.9431 69.8371 92.0919C69.6271 92.2498 69.4722 92.4245 69.3235 92.656C69.2239 92.7956 69.2269 92.8753 69.3435 93.0179C74.2924 99.9583 81.6084 91.7622 87.8865 95.2148C86.4162 91.6856 89.3138 88.2621 90.9527 85.1836C94.5954 78.9945 90.3333 75.1908 85.7095 73.325C85.6957 73.3189 85.6895 73.325 85.6773 73.325ZM80.8694 80.201C80.8204 80.2071 80.779 80.2179 80.736 80.2424C80.6885 80.2654 80.6425 80.3145 80.6165 80.362C80.595 80.4111 80.6011 80.5659 80.6165 80.6655C80.6333 80.7299 80.6916 80.756 80.7268 80.7974C80.8004 80.8848 80.8648 80.94 80.9583 81.0074C81.0779 81.0887 81.2236 80.9921 81.2496 80.8986C81.2849 80.7376 81.2849 80.5536 81.2496 80.4141C81.2404 80.3589 81.2006 80.3298 81.1714 80.2823C81.1239 80.2332 81.0749 80.2071 80.9982 80.201C80.966 80.1979 80.9139 80.1949 80.8694 80.201ZM82.3918 81.5946C82.3749 81.5946 82.3565 81.6023 82.3397 81.6145C82.3105 81.6345 82.2891 81.6759 82.2891 81.7142C82.2814 81.912 82.1787 82.2017 82.3596 82.3075C82.4501 82.3566 82.5589 82.3658 82.634 82.2891C82.6693 82.2309 82.7429 82.2217 82.7429 82.1174C82.7429 82.0699 82.6862 82.053 82.6632 81.9948C82.6371 81.915 82.6494 81.7725 82.6248 81.7142C82.5988 81.6697 82.5819 81.6207 82.5298 81.6145C82.4853 81.6023 82.4363 81.5854 82.3918 81.5946ZM79.5785 81.8047C79.4452 81.8507 79.3133 81.9595 79.2658 82.1281C79.2075 82.2278 79.2106 82.2983 79.2658 82.3596C79.3363 82.4639 79.4237 82.585 79.5463 82.6402C79.6491 82.6923 79.784 82.7015 79.83 82.4792C79.8821 82.2952 79.8744 82.027 79.787 81.9564C79.6843 81.8798 79.7104 81.7725 79.5785 81.8047ZM81.1208 84.1059C80.9077 85.8904 80.2531 87.9295 79.6169 89.2679C80.362 89.1682 80.9553 89.6205 80.9982 90.1939C81.1852 89.5423 81.685 89.0425 82.2784 89.2173C81.8889 87.5968 81.4075 85.8582 81.1208 84.1059Z" fill="#0053A0"/>
<path fill-rule="evenodd" clip-rule="evenodd" d="M91.1843 45.1999C91.1659 45.2075 91.149 45.2229 91.1337 45.2428C91.0647 45.3225 91.008 45.7656 90.9911 46.0584C90.9881 46.1197 90.9881 46.1688 91.0525 46.2102C92.3525 47.0013 96.2482 51.4182 99.6425 52.1893C99.7912 52.2215 99.8096 52.3472 99.736 52.4224C95.6993 57.1658 100.513 64.5738 92.5564 67.3978C91.0785 67.8041 89.5914 67.6109 89.317 68.5952C89.3093 68.6305 89.3584 68.6749 89.3875 68.6749C94.1723 68.9785 97.1573 67.3656 98.0511 63.9483C99.2025 60.1401 97.0347 54.7297 101.117 51.7769C101.22 51.6987 101.165 51.5638 101.074 51.573C96.9473 51.9931 94.3088 47.6145 91.2426 45.2106C91.2272 45.1999 91.2012 45.1968 91.1843 45.1999ZM92.4951 51.573C92.4461 51.5838 92.3955 51.5991 92.3525 51.6251C92.305 51.6481 92.259 51.6957 92.2329 51.7478C92.2115 51.7923 92.2176 51.9379 92.2329 52.0376C92.2498 52.1019 92.3081 52.1387 92.3433 52.1801C92.4169 52.2706 92.4813 52.312 92.5748 52.3794C92.6944 52.4607 92.8401 52.3733 92.8661 52.2798C92.9014 52.1188 92.9014 51.9379 92.8661 51.7953C92.8569 51.7447 92.8171 51.7018 92.7879 51.6543C92.7404 51.6052 92.6913 51.5792 92.6147 51.573C92.5825 51.573 92.5396 51.5669 92.4951 51.573ZM93.8948 53.1291C93.8795 53.1322 93.8627 53.1353 93.8473 53.1475C93.8182 53.1705 93.8044 53.2089 93.8044 53.2487C93.7952 53.448 93.6955 53.7347 93.8764 53.8451C93.9623 53.8896 94.0666 53.9003 94.1371 53.8221C94.1754 53.7638 94.2505 53.7546 94.2505 53.6519C94.2505 53.6029 94.1892 53.5906 94.1693 53.5323C94.1432 53.4511 94.157 53.3054 94.1279 53.2487C94.1049 53.2027 94.085 53.1552 94.0374 53.1475C93.9884 53.1353 93.9439 53.1184 93.8948 53.1291ZM91.0141 53.1475C90.8807 53.1935 90.7489 53.2993 90.7014 53.471C90.6431 53.5707 90.6462 53.6412 90.7014 53.7025C90.7688 53.8068 90.8593 53.9294 90.9819 53.9831C91.0846 54.0352 91.2196 54.0444 91.2656 53.8221C91.3131 53.6381 91.31 53.3806 91.2242 53.31C91.1168 53.2319 91.146 53.1153 91.0141 53.1475ZM92.5656 55.4257C92.3525 57.2103 91.6979 59.2493 91.0617 60.5893C91.8037 60.4896 92.4016 60.9404 92.443 61.5183C92.63 60.8668 93.1298 60.3624 93.7247 60.5371C93.3337 58.9212 92.8523 57.1781 92.5656 55.4257Z" fill="#0053A0"/>
<path fill-rule="evenodd" clip-rule="evenodd" d="M88.4416 34.1491C88.4263 34.1521 88.4094 34.1521 88.391 34.1613C84.7254 35.1977 79.7749 39.4276 75.6968 43.1347C75.5773 43.2711 75.4132 43.3002 75.2798 43.2542C72.5693 42.3635 69.4172 42.2485 66.791 42.1765C63.044 41.8315 58.5397 42.2899 54.5092 43.5961C54.3359 43.6574 54.2056 43.4995 54.0768 43.3447C50.8864 39.7955 46.3913 36.8887 41.5406 34.865C41.4056 34.8006 41.2922 34.7424 41.1373 34.885C38.6476 37.1816 39.1949 43.984 41.332 47.6727C41.5835 48.2077 41.6387 49.146 41.6448 49.4664C41.7966 51.4503 42.1829 53.1643 42.7027 55.0132C42.8314 56.1615 43.2714 57.3298 43.9322 58.3202C44.061 58.4781 44.0058 58.6207 43.9123 58.7234C43.0675 59.5697 42.2964 60.3699 41.4516 61.2147C41.3903 61.2729 41.2738 61.3143 41.1603 61.3343C40.4597 61.4155 40.2405 61.644 39.9093 62.4534C39.8603 62.57 39.8664 62.6512 39.9277 62.7478C40.0473 62.9701 40.8598 64.3775 41.5314 65.1257C42.1799 65.768 41.9376 66.3782 41.3903 66.9623C42.4252 67.7366 44.2772 69.2176 44.3875 69.4429C44.5041 70.0393 45.5558 70.2401 44.9287 71.0956C45.0943 71.1339 45.194 71.1953 45.3227 71.298C45.4163 71.3992 45.4362 71.4958 45.4454 71.6015C45.5297 72.5306 45.7045 73.3738 46.2196 74.263C48.3169 77.8199 50.6672 77.271 53.4605 80.3035C55.1316 82.1203 56.7813 82.1923 57.9173 85.3965C57.813 86.6123 57.7486 87.3574 58.25 88.4091C58.8433 89.6938 60.3043 89.7429 62.1824 90.5968C62.4338 90.695 62.5734 90.7716 62.7573 90.9617C63.2479 91.4401 63.8121 91.7467 64.4514 92.0502C64.9681 92.2695 65.5798 92.2695 66.0551 92.0303C66.9581 91.5136 67.1482 91.8877 68.8177 90.6873C70.3923 90.2228 72.9633 88.2834 72.6889 84.9826C72.6981 84.886 72.7211 84.8216 72.7502 84.7373C72.7992 84.5855 72.9403 84.4337 73.0737 84.2865C73.7084 83.5277 74.4351 82.8561 74.8797 81.9363C74.9701 81.714 75.0483 81.4978 75.2507 81.3307C81.5365 76.1994 79.3135 78.4546 81.5855 76.713C86.2447 73.1699 83.1861 69.0336 88.6425 66.7201C87.9035 65.1548 88.1549 65.0122 90.5589 61.6792C89.2879 61.0077 88.4033 60.2366 87.5218 59.6203C84.7575 57.4524 87.2673 55.6127 87.4942 54.5487C87.6521 53.9447 87.8897 53.1827 87.948 52.4115C88.2423 50.6347 88.0767 48.5404 88.9843 47.6114C89.6528 46.9659 89.846 43.4321 89.9517 43.1454C90.6846 40.838 90.4163 40.5284 90.5497 39.0796C90.5711 38.8864 90.6401 38.7316 90.5497 38.5184C90.0391 37.111 89.4136 35.7496 88.6931 34.4005C88.6287 34.284 88.5811 34.1721 88.4907 34.1491C88.4769 34.146 88.4585 34.1491 88.4416 34.1491ZM86.2646 39.5763C85.9702 42.4708 84.9155 44.3872 85.2451 46.8141C84.0155 48.3243 84.4279 51.1406 83.298 52.8255C83.2244 52.9221 83.1248 52.9773 83.0052 52.9665C81.5043 52.7182 80.4526 50.8278 79.1755 49.7593C79.0452 49.6565 78.9808 49.5599 79.0237 49.4572C79.5434 48.3013 80.7362 47.1422 79.8102 45.9679C79.8562 42.6027 83.876 42.0615 86.2646 39.5763ZM43.0353 40.1313C45.3933 41.4513 46.8973 43.6682 48.0563 43.7004C48.2372 43.9809 48.4948 44.2707 48.7109 44.4976C50.4464 46.4722 49.0697 47.2081 50.5951 49.7409C50.7607 50.095 50.8343 50.44 50.5951 50.6561C49.5756 51.5438 48.6695 52.4437 47.8233 53.4188C46.7041 54.7771 46.1583 54.2773 45.8271 53.4188C45.6202 52.7826 45.4009 52.0635 45.6876 51.3307C45.8655 50.9275 45.7582 50.5963 45.4546 50.2115C45.0483 49.6412 44.7172 49.0372 44.3967 48.4362C44.2833 48.2108 44.2097 48.0176 44.1652 47.734C43.762 45.2366 43.8356 41.5019 43.0353 40.1313ZM72.327 64.8543C72.4988 64.8359 72.6505 64.954 72.6705 65.1257C72.6889 65.3004 72.5601 65.4614 72.3884 65.4798C72.2151 65.4967 72.0634 65.371 72.0434 65.1962C72.0281 65.026 72.1569 64.8742 72.327 64.8543ZM56.2232 64.8834C56.398 64.8681 56.5482 64.9831 56.5651 65.1579C56.585 65.3296 56.4547 65.4798 56.2845 65.4997C56.1128 65.5197 55.958 65.4001 55.9426 65.2284C55.9227 65.0551 56.0515 64.9034 56.2232 64.8834ZM82.1697 71.8928C82.4241 71.8959 82.5023 72.1335 82.4732 72.3758C82.2018 75.7962 80.6074 74.8548 76.9647 78.0943C76.0127 78.8547 76.3254 79.5937 75.0407 80.6761C73.9644 81.6818 72.9602 82.7335 72.0434 84.0351C71.8947 84.2574 71.7859 84.0213 71.7721 83.9217C71.7276 83.6503 71.5666 83.3437 71.3397 83.0953C70.7372 82.4177 71.6985 82.502 70.6146 80.8784C70.1653 80.2207 69.6456 81.0685 69.3329 80.0015C69.1397 79.3131 69.3237 79.6519 69.0814 78.0544L69.7177 77.5286C70.0166 78.381 70.4367 79.0939 70.8951 79.6872C70.9626 79.7685 70.8369 80.4875 71.1174 81.1207C71.1757 80.1211 72.0695 79.5462 70.7955 77.7524C70.6299 77.5194 70.544 77.2909 70.4827 77.0165C70.475 76.9874 70.4689 76.9644 70.4628 76.9353C72.8759 75.3669 75.5772 74.0867 78.1268 73.0304C77.9965 73.1761 77.8708 73.3217 77.742 73.4765C77.6838 73.5471 77.7972 73.5731 77.8325 73.5578C77.9873 73.5149 78.0609 73.5348 78.1835 73.5578C78.2648 73.6053 78.2556 73.6896 78.2556 73.7663C78.274 74.0637 78.0364 74.0806 78.1069 74.4117C78.527 73.8736 78.9271 73.3508 79.3548 72.8602C79.456 72.7345 79.5879 72.5858 79.7872 72.6088L80.2533 72.6701C80.4112 72.6763 80.5629 72.6471 80.7362 72.5981C81.1471 72.4371 81.4537 72.2378 81.8462 71.9726C81.9749 71.9112 82.0823 71.8928 82.1697 71.8928ZM47.9045 72.4371C47.9198 72.4371 47.9459 72.4478 47.9658 72.457C49.1755 73.0641 50.8251 73.4444 51.6668 73.7985C52.1083 74.0055 52.5836 74.3121 52.9255 74.3642C53.0665 74.3734 53.0665 74.2968 52.996 74.2124C52.9055 74.0699 52.8151 73.9349 52.7246 73.8092C54.8035 74.7736 56.7291 75.8927 58.7651 77.2388C58.759 77.2557 58.7498 77.271 58.7467 77.2879C58.6885 77.4611 58.6302 77.619 58.5719 77.7616C58.5397 77.8429 58.5045 77.9333 58.4723 78.0038C58.4462 78.0652 58.4171 78.1296 58.391 78.1847C58.3435 78.2875 58.2944 78.4009 58.25 78.4883C58.1917 78.6002 58.1273 78.7321 58.0783 78.8302C58.0629 78.8685 58.0461 78.9038 58.0292 78.9421C57.997 79.0142 57.9618 79.0847 57.9403 79.1521C57.9234 79.2012 57.9112 79.2457 57.8974 79.2947C57.8912 79.3162 57.882 79.3392 57.879 79.3652C57.8652 79.4296 57.8621 79.494 57.856 79.5645C57.8529 79.6305 57.8529 79.6979 57.856 79.7685C57.8621 79.8436 57.8652 79.9172 57.879 80.0015C57.9035 80.2039 57.9618 80.282 58.0292 80.3142C58.0491 80.3234 58.0783 80.3265 58.1013 80.3326C58.1488 80.3434 58.2423 80.3587 58.2714 80.282C58.2944 80.21 58.3297 80.1395 58.3619 80.072C58.3941 80.0015 58.4232 79.9371 58.4631 79.8681C58.5367 79.7332 58.6241 79.5983 58.7145 79.4649C58.7329 79.4358 58.7528 79.4036 58.7758 79.3744C58.9399 79.1429 59.1208 78.9206 59.2879 78.6907C59.3048 78.6677 59.314 78.6493 59.3308 78.6293C59.3983 78.5297 59.4596 78.427 59.5209 78.3258C59.5439 78.2905 59.5685 78.2522 59.5915 78.2169C59.6497 78.1158 59.708 78.0161 59.7524 77.9134L61.054 78.8808C60.8379 79.4097 60.5604 80.1272 60.4791 80.6362C60.3274 81.7814 59.6236 81.5239 59.0978 81.0885C59.13 82.269 59.2204 82.7764 58.5627 83.8113C58.4753 83.96 58.3941 83.9079 58.3404 83.8113C56.7491 80.7435 55.2129 81.4748 53.1999 78.2062C53.019 77.7325 52.6771 77.2802 52.0179 77.0349C49.5373 76.0583 47.765 75.3868 47.8233 72.5368C47.8263 72.4862 47.8524 72.4371 47.9045 72.4371ZM69.7851 82.6829C69.8879 82.689 69.9783 82.7764 70.0166 82.8853C70.518 84.0152 71.1404 86.0021 70.9365 86.6445C70.2006 89.4654 68.2137 89.933 66.3678 89.6908C64.9834 89.5099 64.9773 89.1848 64.9543 88.2588C64.9574 88.1577 65.0969 88.1193 65.2088 88.0871C66.8814 87.5613 67.8871 86.6506 67.9301 84.9121C67.9393 84.676 67.9684 84.4276 67.8488 84.2145C68.3164 83.9155 68.7488 83.6058 69.1719 83.218C69.1842 83.2057 69.201 83.1919 69.2102 83.1766C69.339 82.9727 69.4846 82.8086 69.6855 82.7013C69.7207 82.689 69.7529 82.6798 69.7851 82.6829ZM60.4883 82.896C60.5435 82.8791 60.5926 82.9083 60.6508 82.9757C60.6922 83.0217 60.7505 83.1658 60.8823 83.1658C61.1077 83.451 61.422 83.6963 61.7179 83.9125C61.6274 84.0014 61.5722 84.1056 61.537 84.2145C61.4435 84.4828 61.4603 84.9381 61.537 85.3536C61.5692 85.5989 61.6535 85.8151 61.7792 86.0282C62.3833 86.968 62.8125 87.3896 63.4932 87.8541C63.7769 88.0258 64.0896 88.1745 64.4514 88.1393C64.5511 88.1255 64.6093 88.1929 64.5925 88.2772C64.4836 89.6616 63.8535 89.7552 62.2637 89.5589C58.7406 88.8552 58.4294 86.5602 60.3365 83.0953C60.3795 82.9727 60.4377 82.9113 60.4883 82.896ZM65.0585 90.3853C65.5445 90.3745 66.0612 90.3914 66.5687 90.4558C66.6453 90.4711 66.6515 90.5355 66.63 90.5877C66.5579 90.7778 66.3448 91.02 66.236 91.1135C66.1685 91.1656 66.0643 91.1856 65.9738 91.2132C65.5936 91.3143 65.0003 91.3588 64.896 91.3435C64.8025 91.3235 64.709 91.2883 64.6216 91.2331C64.2905 91.0461 63.9808 90.8299 63.6542 90.6306C63.5837 90.5754 63.5806 90.4911 63.6634 90.4788C64.1034 90.4359 64.5679 90.3975 65.0585 90.3853Z" fill="#0053A0"/>
<path fill-rule="evenodd" clip-rule="evenodd" d="M88.0488 36.7109C88.0289 36.7109 88.009 36.714 87.9875 36.7201C83.983 38.1766 79.0157 41.0742 76.4324 44.9192C75.3899 45.7594 74.3213 46.5781 73.2144 47.2971C75.5156 44.2385 70.9239 44.0362 65.3894 43.4352C61.5857 43.1102 57.0462 44.2999 55.5682 45.1109C55.4349 45.1875 55.3521 45.3393 55.4579 45.4742C55.8703 46.0614 55.9975 46.7528 56.2413 47.4014C56.275 47.4719 56.206 47.478 56.1524 47.4305C51.3369 43.1194 44.1419 37.3043 41.7441 36.7309C41.6307 36.7109 41.528 36.7493 41.4697 36.8535C41.2995 37.2107 41.2597 37.315 41.1278 37.6691C41.0343 37.9819 40.8626 38.1766 40.7768 38.2624C39.4046 39.6085 41.8085 42.132 42.1673 46.7467C42.4065 48.6953 42.8771 49.5692 43.3248 50.9091C43.3938 51.09 43.4382 51.2449 43.4674 51.4242C44.0898 53.5737 44.4961 55.7645 45.3224 57.756C46.3067 60.9541 42.4478 60.4282 42.2899 63.0805C42.1995 64.8804 44.3121 65.8677 43.9518 67.1847C43.9288 67.2675 43.774 67.3579 43.8614 67.4652C45.488 69.1532 46.1166 68.7592 46.7743 70.1589C48.3013 72.8342 49.9601 69.9075 52.7243 73.8093C54.8032 74.7736 56.7288 75.8928 58.7648 77.2388C58.9104 76.7835 59.0454 76.2193 59.168 75.4834C59.4102 74.0285 59.3627 72.5598 58.4428 70.5299C58.2742 70.234 58.3754 69.7327 58.6743 69.4951C58.8261 69.3816 58.8905 69.3372 58.9074 69.5717C59.1649 72.27 61.3757 74.0898 60.0143 76.6425C59.9652 76.736 59.907 76.8126 59.9238 76.9644C59.953 77.3094 59.8824 77.6191 59.7521 77.9134L61.0537 78.8808C61.1396 78.6708 61.2178 78.4945 61.2668 78.3688C61.8464 75.37 62.3017 70.5299 62.7371 69.9274C62.777 69.8692 62.8245 69.7787 62.7371 69.7143C62.2312 69.1915 61.6624 68.3238 61.9215 68.0616C62.199 67.8516 63.8149 68.5047 63.8057 69.676C63.7382 70.7246 62.7156 80.4339 61.437 81.8045C61.3757 81.875 61.3987 81.9241 61.437 81.9762C61.9951 82.7627 61.8755 82.9574 61.6792 83.057C61.5014 83.1245 61.1304 83.0953 60.9633 83.1567C60.9342 83.1659 60.905 83.1659 60.882 83.1659C61.1074 83.451 61.4217 83.6963 61.7176 83.9125C61.8954 83.7377 62.1959 83.6089 62.6574 83.5399C64.4603 83.2272 66.1805 83.2793 67.4974 83.9018C67.6737 83.9922 67.7841 84.0995 67.8485 84.2145C68.3161 83.9156 68.7484 83.6059 69.1716 83.218C69.0489 83.3085 68.7883 83.2211 68.7484 83.0141C68.0263 79.0786 67.2552 78.4715 66.7999 75.5034C66.6159 74.4961 66.5285 73.4413 66.7186 72.4755C66.7799 72.1627 66.7999 71.8791 66.7186 71.5403C66.458 70.5698 66.4733 69.5564 66.691 68.5951C66.8382 68.2717 67.2169 67.8393 67.4867 67.4744C67.7105 67.1816 67.8684 66.8397 67.9911 66.4687C68.1168 66.0839 69.3648 64.2196 70.4303 63.9253C70.5207 63.9023 70.533 63.8486 70.5437 63.7643C70.5529 63.6708 70.3781 63.6677 70.3919 63.5251C70.4303 62.7831 75.0955 63.1832 77.5516 63.4117C78.4868 63.3289 79.4205 63.1832 80.3035 63.0192C80.4584 62.9901 80.4691 63.0437 80.3756 63.1418C79.6428 63.9483 78.588 64.3898 77.6328 64.5125C77.4519 64.5385 77.4029 64.6382 77.3676 64.7746C76.8218 67.5128 72.8603 68.8358 71.137 68.5139C71.0266 68.494 71.0236 68.5721 71.0266 68.6273C71.1524 70.0301 70.5499 70.1727 70.0271 74.2738C69.9949 74.5022 70.0041 74.7061 70.0393 74.9376C70.1206 75.603 70.3138 76.2347 70.4625 76.9353C72.8756 75.3669 75.5769 74.0868 78.1265 73.0304C78.6416 72.4479 79.1522 71.9205 79.6872 71.3272C79.8359 71.1309 80.1226 71.0113 80.394 70.9147C82.4238 70.0623 84.4797 68.7362 86.0221 67.062C86.0665 67.0068 86.16 66.9164 86.1309 66.8106C85.6602 64.609 87.1121 63.9575 88.0258 62.3247C88.1638 62.1116 88.0151 62.0564 87.8649 61.9797C86.8607 61.3466 85.9469 60.4727 85.2448 59.6525C85.0792 59.4072 85.0087 59.0975 84.9504 58.8231C84.2237 55.4042 85.7277 55.1543 85.9991 53.1766C85.9791 52.1923 86.2444 51.0348 86.554 50.0122C86.9189 48.821 87.083 47.8536 87.503 47.1882C87.71 41.2321 89.559 42.5766 89.0546 39.4016C88.9227 38.7668 88.587 37.6139 88.1868 36.8213C88.1546 36.7462 88.1056 36.714 88.0488 36.7109ZM86.9097 37.873C86.9419 37.8654 86.9772 37.87 87.0094 37.873C87.2225 37.8884 87.3896 38.0463 87.4126 38.2441C87.4509 38.6304 87.5352 38.9861 87.6119 39.3433C86.2352 42.6349 87.0354 47.153 85.234 49.9218C85.1436 52.3472 84.84 53.8941 83.3989 54.8615C83.3406 54.906 83.2762 54.8998 83.2073 54.8615C80.9076 53.7377 78.8517 51.3951 76.8448 49.5569C79.9678 47.524 77.1392 45.3884 79.3653 43.055C81.9562 40.3184 84.2375 40.047 86.6062 38.011C86.7058 37.9267 86.8085 37.8822 86.9097 37.873ZM42.1382 38.0432C42.4218 38.0463 42.7483 38.1981 42.9829 38.425C45.2902 39.4337 45.0833 40.3567 46.8847 41.2612C47.268 41.4605 47.9241 41.8193 48.4301 41.9343C48.6631 42.7422 49.0433 42.7192 49.8911 44.1649C50.095 44.5191 50.8401 45.1001 50.9076 45.5846C50.9597 45.8882 50.9536 46.1519 50.9306 46.4432C50.9076 47.2649 50.5688 48.0499 51.021 48.4178C51.392 48.6079 51.1467 48.795 51.8182 49.1338C52.1571 49.2978 52.3318 49.4665 52.1509 49.8206C51.6143 50.7604 50.9566 51.5346 50.3572 52.3932C50.2008 52.5925 49.9724 52.7504 49.7409 52.8868C48.4393 53.6672 47.3584 54.7649 46.1902 55.7998C46.1166 55.855 46.0813 55.7998 46.0292 55.7814C44.91 55.1451 44.6126 54.0351 44.4639 52.522C44.0775 48.4822 43.2665 51.9762 41.9051 39.9473C41.7211 39.4046 41.5218 38.4372 41.692 38.2149C41.8085 38.0953 41.9634 38.0401 42.1382 38.0432ZM68.4847 45.8774C67.4484 47.7984 66.9225 47.6175 66.297 48.3687C66.251 48.4209 66.2035 48.4853 66.1544 48.5497C66.1099 48.614 66.0609 48.6815 66.0164 48.7597C65.9674 48.8363 65.9321 48.9053 65.9122 48.9728C65.9122 48.9759 65.9152 48.9789 65.9122 48.982C65.8968 49.0464 65.8861 49.1184 65.883 49.1752C65.9122 49.8022 65.8095 50.0567 65.9735 50.2637C65.9842 50.279 65.9904 50.2959 65.9934 50.3143C66.0026 50.3342 66.0026 50.3541 66.0057 50.3725C66.0088 50.4155 65.9996 50.4569 65.9842 50.486C65.8677 50.4124 65.6868 50.2729 65.532 50.1349C65.4124 50.0276 65.3127 49.9279 65.2667 49.8405C65.2667 49.8375 65.2698 49.8344 65.2667 49.8313C65.2545 49.8022 65.2483 49.7731 65.2483 49.7501C65.2483 49.6857 65.2422 49.6443 65.2376 49.6075C65.2223 49.4634 65.1809 49.4849 65.1472 49.3269C65.1318 49.2472 65.1119 49.1215 65.1058 48.9023C65.1027 48.795 65.1058 48.66 65.1058 48.4975C65.0935 48.3948 65.1027 48.3427 65.1288 48.2982C65.138 48.2783 65.1518 48.2568 65.1671 48.2369C65.1839 48.217 65.1993 48.1986 65.2192 48.1756C66.1544 47.2143 67.3962 46.5781 68.4847 45.8774ZM61.0246 46.1105C62.0043 46.7758 63.105 47.665 64.1798 48.5589C64.2028 48.5849 64.2181 48.611 64.2411 48.6401C64.3024 48.7336 64.3484 48.844 64.3223 48.982C64.2579 49.3883 64.0632 49.7792 63.9084 50.1916C63.9023 50.2116 63.89 50.2208 63.8762 50.2346C63.8639 50.2438 63.8532 50.2575 63.8379 50.2637C63.8057 50.2759 63.7674 50.2729 63.7474 50.2529C63.5542 50.0076 63.3442 49.7593 63.1694 49.5079C63.1112 49.4312 63.0499 49.3469 63.0499 49.2442C63.0575 49.1629 63.0606 49.0816 63.0606 49.0142C63.0606 48.9437 63.0575 48.8823 63.0499 48.821C63.0345 48.7076 62.9993 48.6079 62.9502 48.5297C62.9471 48.5267 62.9502 48.5205 62.9502 48.5205C62.8475 48.3565 62.6696 48.2599 62.386 48.1848C62.153 48.1173 61.9506 48.0146 61.7789 47.895C61.7758 47.8919 61.7728 47.895 61.7697 47.895C61.5183 47.7141 61.3374 47.4719 61.2147 47.179C61.2147 47.176 61.2055 47.1714 61.2055 47.1683C61.0829 46.8694 61.0277 46.5198 61.0246 46.1105ZM74.0024 55.5483C74.2661 55.5361 74.5436 55.5683 74.818 55.6296C75.0894 55.6909 75.3608 55.7844 75.5923 55.9101C75.6643 55.9546 75.6827 56.042 75.603 56.0711C75.2151 56.1754 74.8211 56.3072 74.424 56.4651C74.2247 56.5418 74.0316 56.6292 73.8277 56.7166C72.8281 57.1581 71.8085 57.71 70.7952 58.2206C70.6878 58.265 70.6173 58.2497 70.5713 58.1884C70.556 58.1654 70.5437 58.1424 70.533 58.1071C70.51 57.9982 70.5146 57.8909 70.5238 57.7851C70.5299 57.6809 70.5499 57.5751 70.5529 57.4617C70.5621 57.3068 70.6587 57.2976 70.7139 57.2194C70.904 57.1458 71.065 57.0814 71.1984 57.0201C71.5954 56.8361 71.7564 56.7074 71.8913 56.5878C71.9848 56.5065 72.0692 56.4329 72.1857 56.3425C72.3053 56.2551 72.4632 56.1554 72.7207 56.0328C72.8756 55.9623 73.0304 55.8979 73.1822 55.8289C73.3371 55.7645 73.4888 55.7001 73.6375 55.648C73.7541 55.5867 73.889 55.5514 74.0024 55.5483ZM54.328 55.7584C54.3479 55.7584 54.374 55.7645 54.3893 55.7584C54.4537 55.7814 54.5058 55.8074 54.5518 55.8289C54.5963 55.855 54.6284 55.881 54.6606 55.9101C54.7802 56.0129 54.8293 56.1294 55.1359 56.275C55.2095 56.3103 55.3061 56.3547 55.4165 56.3946C55.5284 56.4329 55.6618 56.4713 55.8197 56.5173C56.1999 56.6399 56.4713 56.7104 56.7258 56.807C56.7319 56.8101 56.7319 56.8162 56.7395 56.8162C56.991 56.9174 57.2332 57.0401 57.5322 57.2516C57.6364 57.3237 57.7453 57.408 57.8679 57.5046C57.9875 57.6012 58.124 57.71 58.2711 57.8357C58.3325 57.8848 58.3876 57.917 58.4014 58.0074C58.4045 58.0366 58.4014 58.0657 58.3907 58.0979V58.1071C58.3815 58.1393 58.3677 58.1684 58.3524 58.2006C58.3141 58.2681 58.2619 58.3263 58.2098 58.3723C58.1914 58.3846 58.1745 58.3953 58.1592 58.4015C58.1454 58.4045 58.1194 58.4045 58.0872 58.4015C57.9906 58.3815 57.9139 58.3693 57.8357 58.3401C57.7652 58.3141 57.7039 58.2819 57.6456 58.2497C57.5843 58.2175 57.5322 58.1884 57.4846 58.15C57.4356 58.1102 57.3973 58.0688 57.3528 58.0274C57.2623 57.9431 57.1688 57.8557 57.0492 57.7652C56.994 57.7208 56.9327 57.6778 56.8576 57.6334C56.784 57.5904 56.6997 57.546 56.6062 57.5046C56.5096 57.4617 56.4329 57.4525 56.3547 57.4724C56.3287 57.4816 56.2995 57.4877 56.275 57.5046C56.1708 57.546 56.0742 57.4969 55.9715 57.4724C55.8933 57.4555 55.8059 57.4264 55.72 57.3942C55.7154 57.3911 55.7124 57.3942 55.7093 57.3942C55.0807 57.1458 54.2988 56.5326 54.2958 55.7998C54.2958 55.7875 54.3034 55.7752 54.3065 55.7676C54.3126 55.7645 54.3188 55.7584 54.328 55.7584ZM55.6679 62.777C55.835 62.777 56.0098 62.7862 56.1846 62.7954C56.3609 62.8122 56.5418 62.8276 56.7258 62.8567C56.8653 62.8797 57.0002 62.9088 57.1428 62.9379C57.1872 62.9502 57.2332 62.9579 57.2807 62.9701C57.3651 62.9901 57.4494 63.0146 57.5322 63.0407C57.6426 63.0698 57.7483 63.102 57.8557 63.1418C58.0136 63.1955 58.1653 63.2538 58.3202 63.3212C58.4551 63.3795 58.5916 63.4439 58.7234 63.5129C58.8552 63.5834 58.9886 63.6646 59.1174 63.7444C59.2263 63.8118 59.3336 63.8839 59.4394 63.9575C59.4884 63.9897 59.536 64.0127 59.5819 64.0479C59.6586 64.1062 59.7368 64.1675 59.8134 64.2288C59.8303 64.2411 59.8456 64.2549 59.8625 64.2702C59.8748 64.281 59.8916 64.2902 59.9039 64.2994C59.9269 64.3193 59.953 64.3423 59.976 64.3607C60.0756 64.4481 60.1753 64.5477 60.2749 64.6412C60.4052 64.7639 60.5279 64.8896 60.6505 65.026C60.6597 65.0352 60.6689 65.0444 60.6827 65.0552C60.7916 65.1809 60.8943 65.3127 61.0047 65.4477C61.066 65.532 61.1304 65.6163 61.1948 65.7006C61.2469 65.7742 61.2944 65.8386 61.3466 65.9137C61.46 66.0808 61.5627 66.2556 61.67 66.4396C61.7114 66.5101 61.7436 66.6036 61.7406 66.6803C61.7375 66.7063 61.7314 66.7263 61.7176 66.7523C61.6179 66.9654 61.5566 67.1816 61.5075 67.4269C61.5014 67.4622 61.4692 67.4913 61.437 67.4974C61.4247 67.4974 61.4048 67.4944 61.3956 67.4882C61.2208 67.3809 61.0599 67.2782 60.902 67.1647C60.7502 67.0559 60.6076 66.9363 60.4696 66.8198C60.4666 66.8198 60.4589 66.8229 60.4589 66.8198C60.3178 66.7033 60.1891 66.5806 60.0557 66.458C58.8721 65.3649 58.0396 64.1767 56.4452 63.8578C56.4421 63.8547 56.4391 63.8578 56.436 63.8578C55.7231 63.7152 54.8676 63.7505 53.7546 64.0387C53.3836 64.077 52.9727 64.077 52.5541 64.0479C52.1341 64.0188 51.7079 63.9605 51.3016 63.8869C51.1053 63.8517 50.9014 63.8088 50.7175 63.7643C50.7144 63.7643 50.7113 63.7674 50.7083 63.7643C50.5243 63.7214 50.3526 63.6708 50.1947 63.6248C50.1885 63.6217 50.1855 63.6248 50.1824 63.6248C49.8559 63.5282 49.5922 63.4255 49.4082 63.332C50.2407 63.3473 51.1559 63.3381 51.947 63.3028C52.7381 63.2676 53.3958 63.2154 53.7116 63.1511C53.819 63.0989 53.9477 63.0545 54.0873 63.0085C54.216 62.9671 54.3648 62.9211 54.5196 62.8889C54.5319 62.8858 54.5487 62.8889 54.561 62.8889C54.699 62.8598 54.8446 62.8352 55.0025 62.8184C55.0286 62.8153 55.0485 62.8092 55.0746 62.8092C55.2647 62.7892 55.4609 62.78 55.6679 62.777ZM73.2435 64.1292C72.5398 64.1706 71.7687 64.4389 70.8948 65.1962C69.5717 66.4963 68.4587 68.1137 67.6063 69.6438C67.5066 69.8308 67.4744 70.001 67.5158 70.1988C68.4847 74.6571 68.9002 76.877 69.0811 78.0545L69.7174 77.5286C69.3356 76.4554 69.1394 75.1569 69.2712 73.5962C69.7296 72.4019 69.9688 70.9914 70.1788 69.6438C70.8749 68.1659 70.9469 67.5388 71.62 67.5787C72.224 67.6109 72.8495 67.64 73.4152 67.5174C73.6345 67.4744 73.8154 67.387 74.0116 67.2644C74.9637 66.691 75.7762 65.9137 76.4707 65.0352C76.5551 64.9448 76.6057 64.7516 76.5612 64.6642C76.5351 64.5968 76.4937 64.5615 76.4094 64.5615C75.4083 64.6228 74.421 64.0602 73.2435 64.1292ZM72.9216 64.238C73.1086 64.235 73.3018 64.2764 73.4858 64.3515C73.8568 64.4971 74.1281 64.7808 74.2738 65.1165C74.3474 65.2867 74.3888 65.4645 74.3964 65.6516C74.3995 65.8386 74.3673 66.0318 74.2922 66.2157C74.2186 66.3997 74.1113 66.5576 73.9794 66.691C73.5854 67.0881 72.9691 67.2322 72.4172 67.013C72.3237 66.9746 72.2363 66.9363 72.1566 66.8811C72.0753 66.829 72.0109 66.7646 71.9435 66.7002C71.5464 66.3062 71.4007 65.7006 71.62 65.1487C71.6491 65.0736 71.6813 65.0092 71.7212 64.9448C71.7273 64.9387 71.7365 64.9325 71.7426 64.9249C71.7595 64.8973 71.7717 64.8712 71.7917 64.8451C71.83 64.793 71.8729 64.7486 71.9143 64.7026L71.9527 64.6642C72.014 64.6029 72.0753 64.5416 72.1474 64.4925C72.201 64.4511 72.2654 64.422 72.3267 64.3898C72.3375 64.3867 72.3467 64.3867 72.3559 64.3806C72.3758 64.3745 72.3881 64.3576 72.408 64.3515C72.4862 64.3193 72.5659 64.2963 72.6502 64.281C72.7376 64.261 72.8311 64.2411 72.9216 64.238ZM56.83 64.261C57.017 64.2549 57.1964 64.2871 57.385 64.3607C57.4739 64.3959 57.5644 64.4389 57.6456 64.4925C57.7269 64.5447 57.7913 64.606 57.8557 64.6734C57.9262 64.7424 57.9844 64.8068 58.0396 64.8835C58.1423 65.0383 58.2205 65.21 58.2619 65.3909C58.3202 65.6577 58.3003 65.949 58.1914 66.2265C58.1515 66.32 58.1102 66.3967 58.058 66.4779C58.058 66.481 58.0626 66.484 58.058 66.4871C57.8495 66.8029 57.5199 67.016 57.1612 67.0942C56.9802 67.1326 56.7932 67.1356 56.6062 67.1034C56.5126 67.0881 56.4161 67.059 56.3256 67.0237C56.2321 66.9838 56.1416 66.9424 56.0619 66.8903C55.904 66.7876 55.7737 66.6511 55.6679 66.4963C55.4088 66.1161 55.3352 65.6194 55.5192 65.1579C55.5545 65.0674 55.6066 64.9831 55.6587 64.9065C55.7062 64.8313 55.7522 64.7639 55.8089 64.7026C55.8227 64.6903 55.8381 64.6842 55.8519 64.6734C55.9132 64.6121 55.9715 64.5477 56.042 64.5033C56.1002 64.4603 56.1616 64.4312 56.2229 64.399C56.226 64.399 56.229 64.3929 56.2321 64.3898C56.2903 64.3637 56.3547 64.3515 56.4161 64.3315C56.4743 64.3132 56.5356 64.2902 56.597 64.281H56.6169C56.6844 64.2672 56.7579 64.261 56.83 64.261ZM52.2506 64.9647C52.2858 64.9647 52.3242 64.9709 52.361 64.977C52.3671 64.977 52.3763 64.9739 52.3824 64.977C52.4468 64.9831 52.5112 65.0061 52.5833 65.0352C52.6599 65.0674 52.7412 65.1058 52.8255 65.1579C52.9114 65.21 53.0018 65.2683 53.0999 65.3388L53.1275 65.3587C53.2119 65.4231 53.2962 65.4875 53.3897 65.5611C53.4893 65.6393 53.5829 65.7068 53.6932 65.7941C53.8956 65.9521 54.1195 66.1253 54.3571 66.297C54.4767 66.3844 54.5993 66.4641 54.7312 66.5484C54.8324 66.6128 54.9351 66.6879 55.0455 66.7523C55.0899 66.7784 55.139 66.8029 55.1834 66.829C55.3092 66.9011 55.4425 66.9685 55.5774 67.0329C55.7093 67.0973 55.8488 67.1556 55.9899 67.2138C56.0358 67.2322 56.0772 67.2583 56.1232 67.2751C56.2643 67.3288 56.413 67.3717 56.5648 67.4162C56.7457 67.4683 56.9297 67.5204 57.1198 67.5588C57.3129 67.594 57.5107 67.6201 57.7161 67.6354C57.9231 67.6553 58.1393 67.6676 58.3616 67.6676C58.4045 67.6676 58.4367 67.6783 58.4628 67.6967C58.4873 67.7136 58.5072 67.7366 58.5134 67.778C58.5195 68.126 58.2006 68.2487 57.8557 68.2717C57.6518 68.2747 57.4494 68.2686 57.2424 68.2625C56.6353 68.2456 56.0328 68.1981 55.4257 68.0999C55.3613 68.0938 55.3061 68.0785 55.2448 68.0524C55.1865 68.0264 55.1359 67.9911 55.0746 67.9497C54.8875 67.8225 54.6898 67.6783 54.4905 67.5174C54.2896 67.3549 54.0995 67.1877 53.9156 67.0237C53.7254 66.8551 53.5507 66.7002 53.3989 66.5576C53.2502 66.4197 53.1321 66.3001 53.0478 66.2157C52.9604 66.1391 52.893 66.0747 52.8347 66.0134C52.7795 65.9551 52.732 65.8969 52.6921 65.8524C52.6185 65.7619 52.5863 65.7006 52.5449 65.6424C52.5219 65.6132 52.499 65.5872 52.4729 65.5611C52.3932 65.4768 52.2629 65.3863 51.97 65.2284C51.9348 65.2131 51.9118 65.1993 51.9087 65.1778C51.9056 65.164 51.9056 65.1548 51.9179 65.138C51.9286 65.1226 51.9378 65.1027 51.9562 65.0874C51.9884 65.0613 52.0283 65.0414 52.0605 65.026C52.0896 65.0092 52.1187 64.9939 52.1509 64.9862C52.1831 64.977 52.2153 64.9678 52.2506 64.9647Z" fill="#FDBE11"/>
</g>
<defs>
<clipPath id="clip0_69_526">
<rect width="129.071" height="129.071" fill="white" transform="translate(0.223389 0.152344)"/>
</clipPath>
</defs>
</svg>
