<svg width="17" height="17" viewBox="0 0 17 17" fill="none" xmlns="http://www.w3.org/2000/svg">
<path d="M14.0454 8.88692C13.8863 8.88805 13.7286 8.91788 13.5801 8.97495L11.9928 7.67563C12.0319 7.53398 12.0597 7.38704 12.0597 7.23215C12.0597 6.31475 11.3223 5.57739 10.4049 5.57739C9.48751 5.57739 8.75015 6.31475 8.75015 7.23215C8.75015 7.49427 8.81634 7.73851 8.92357 7.95826L6.99809 10.2339C6.92104 10.2193 6.84285 10.2115 6.76444 10.2107C6.64596 10.2107 6.53409 10.2306 6.42554 10.2597L4.72908 8.56324C4.75887 8.45535 4.77872 8.34349 4.77872 8.22501C4.77872 7.49162 4.1883 6.9012 3.45491 6.9012C2.72152 6.9012 2.1311 7.49162 2.1311 8.22501C2.1311 8.9584 2.72152 9.54882 3.45491 9.54882C3.57339 9.54882 3.68526 9.52896 3.79381 9.49984L5.49027 11.1963C5.45917 11.3064 5.44249 11.4201 5.44063 11.5345C5.44063 12.2679 6.03105 12.8583 6.76444 12.8583C7.49783 12.8583 8.08825 12.2679 8.08825 11.5345C8.08825 11.3777 8.05647 11.2301 8.00683 11.0904L9.93496 8.81212C10.0852 8.85581 10.2408 8.88692 10.4049 8.88692C10.6661 8.88497 10.9231 8.82123 11.1549 8.70092L12.7428 10.0002C12.7301 10.0697 12.723 10.1401 12.7216 10.2107C12.7216 10.9441 13.312 11.5345 14.0454 11.5345C14.7788 11.5345 15.3692 10.9441 15.3692 10.2107C15.3692 9.47734 14.7788 8.88692 14.0454 8.88692Z" fill="white"/>
</svg>
