<svg width="17" height="17" viewBox="0 0 17 17" fill="none" xmlns="http://www.w3.org/2000/svg">
<path fill-rule="evenodd" clip-rule="evenodd" d="M5.60229 3.25595C4.9001 3.25595 4.22666 3.53489 3.73014 4.03142C3.23361 4.52794 2.95467 5.20137 2.95467 5.90357C2.95467 6.60576 3.23361 7.27919 3.73014 7.77572C4.22666 8.27224 4.9001 8.55119 5.60229 8.55119C6.30448 8.55119 6.97791 8.27224 7.47444 7.77572C7.97096 7.27919 8.24991 6.60576 8.24991 5.90357C8.24991 5.20137 7.97096 4.52794 7.47444 4.03142C6.97791 3.53489 6.30448 3.25595 5.60229 3.25595ZM4.27848 9.21309C3.57629 9.21309 2.90285 9.49203 2.40633 9.98856C1.9098 10.4851 1.63086 11.1585 1.63086 11.8607V12.5226C1.63086 12.8737 1.77033 13.2104 2.01859 13.4587C2.26686 13.707 2.60357 13.8464 2.95467 13.8464H8.24991C8.601 13.8464 8.93772 13.707 9.18598 13.4587C9.43424 13.2104 9.57372 12.8737 9.57372 12.5226V11.8607C9.57372 11.1585 9.29477 10.4851 8.79825 9.98856C8.30172 9.49203 7.62829 9.21309 6.9261 9.21309H4.27848ZM9.07729 7.8264C9.39368 7.25716 9.57372 6.60188 9.57372 5.90357C9.57386 5.2307 9.40304 4.56883 9.07729 3.98007C9.45313 3.62445 9.92493 3.38675 10.4344 3.29634C10.9439 3.20594 11.4686 3.26679 11.9439 3.47139C12.4191 3.67598 12.824 4.01535 13.1085 4.44754C13.393 4.87974 13.5446 5.38582 13.5446 5.90324C13.5446 6.42066 13.393 6.92674 13.1085 7.35893C12.824 7.79112 12.4191 8.13049 11.9439 8.33508C11.4686 8.53968 10.9439 8.60053 10.4344 8.51013C9.92493 8.41972 9.45313 8.18202 9.07729 7.8264ZM10.5441 13.8464C10.7691 13.4572 10.8982 13.0051 10.8982 12.5226V11.8607C10.8994 10.8836 10.5392 9.94054 9.8868 9.21309H12.2213C12.9235 9.21309 13.597 9.49203 14.0935 9.98856C14.59 10.4851 14.869 11.1585 14.869 11.8607V12.5226C14.869 12.8737 14.7295 13.2104 14.4812 13.4587C14.233 13.707 13.8962 13.8464 13.5451 13.8464H10.5441Z" fill="white"/>
</svg>
