<svg width="186" height="185" viewBox="0 0 186 185" fill="none" xmlns="http://www.w3.org/2000/svg">
<circle cx="93" cy="92.1006" r="92.1006" fill="#C9F2E9"/>
<mask id="mask0_117_3213" style="mask-type:alpha" maskUnits="userSpaceOnUse" x="0" y="0" width="186" height="185">
<circle cx="93" cy="92.1006" r="92.1006" fill="#C4C4C4"/>
</mask>
<g mask="url(#mask0_117_3213)">
<path fill-rule="evenodd" clip-rule="evenodd" d="M92.9999 47.6826C74.5033 47.6826 59.5088 62.6771 59.5088 81.1737V84.5825C56.1147 85.1521 53.5285 88.104 53.5285 91.66V99.8619C53.5285 103.49 56.2204 106.489 59.7159 106.971C61.0229 118.716 68.4039 128.628 78.6464 133.493V144.503C53.3148 145.867 33.1943 166.839 33.1943 192.511H152.806C152.806 166.839 132.685 145.867 107.353 144.503V133.494C117.596 128.628 124.977 118.716 126.284 106.971C129.779 106.489 132.471 103.49 132.471 99.8619V91.6599C132.471 88.104 129.885 85.1521 126.491 84.5825V81.1737C126.491 62.6771 111.497 47.6826 92.9999 47.6826Z" fill="#D0C6AC"/>
<mask id="mask1_117_3213" style="mask-type:luminance" maskUnits="userSpaceOnUse" x="33" y="47" width="120" height="146">
<path fill-rule="evenodd" clip-rule="evenodd" d="M92.9999 47.6826C74.5033 47.6826 59.5088 62.6771 59.5088 81.1737V84.5825C56.1147 85.1521 53.5285 88.104 53.5285 91.66V99.8619C53.5285 103.49 56.2204 106.489 59.7159 106.971C61.0229 118.716 68.4039 128.628 78.6464 133.493V144.503C53.3148 145.867 33.1943 166.839 33.1943 192.511H152.806C152.806 166.839 132.685 145.867 107.353 144.503V133.494C117.596 128.628 124.977 118.716 126.284 106.971C129.779 106.489 132.471 103.49 132.471 99.8619V91.6599C132.471 88.104 129.885 85.1521 126.491 84.5825V81.1737C126.491 62.6771 111.497 47.6826 92.9999 47.6826Z" fill="white"/>
</mask>
<g mask="url(#mask1_117_3213)">
<rect x="14.0566" y="47.6826" width="157.887" height="144.828" fill="#C9824B"/>
<path fill-rule="evenodd" clip-rule="evenodd" d="M59.5088 103.225V107.974C59.5088 126.47 74.5033 141.465 92.9999 141.465C111.497 141.465 126.491 126.47 126.491 107.974V103.225C126.491 121.722 111.497 136.717 92.9999 136.717C74.5033 136.717 59.5088 121.722 59.5088 103.225Z" fill="black" fill-opacity="0.1"/>
</g>
<path fill-rule="evenodd" clip-rule="evenodd" d="M93.2992 157.982C104.364 157.982 113.334 152.274 113.334 145.233C113.334 145.231 113.334 145.229 113.334 145.227C135.778 149.271 152.806 168.903 152.806 192.511H33.1943C33.1943 168.693 50.5255 148.922 73.265 145.123C73.2645 145.159 73.2643 145.196 73.2643 145.233C73.2643 152.274 82.2342 157.982 93.2992 157.982Z" fill="#E6E6E6"/>
<mask id="mask2_117_3213" style="mask-type:luminance" maskUnits="userSpaceOnUse" x="33" y="145" width="120" height="48">
<path fill-rule="evenodd" clip-rule="evenodd" d="M93.2992 157.982C104.364 157.982 113.334 152.274 113.334 145.233C113.334 145.231 113.334 145.229 113.334 145.227C135.778 149.271 152.806 168.903 152.806 192.511H33.1943C33.1943 168.693 50.5255 148.922 73.265 145.123C73.2645 145.159 73.2643 145.196 73.2643 145.233C73.2643 152.274 82.2342 157.982 93.2992 157.982Z" fill="white"/>
</mask>
<g mask="url(#mask2_117_3213)">
<rect x="14.0566" y="127.22" width="157.887" height="65.2915" fill="#C2FF5F"/>
<g opacity="0.6">
<ellipse cx="93.2992" cy="146.123" rx="23.704" ry="15.975" fill="black" fill-opacity="0.16"/>
</g>
</g>
<path d="M84.627 115.348C84.627 118.537 88.3099 120.69 92.9997 120.69C97.6896 120.69 101.373 118.537 101.373 115.348C101.373 114.693 100.805 114.161 100.176 114.161C99.4033 114.161 99.0582 114.699 98.9803 115.348C98.2373 117.092 96.3986 118.148 92.9997 118.316C89.6008 118.148 87.7622 117.092 87.0192 115.348C86.9413 114.699 86.5962 114.161 85.8231 114.161C85.1949 114.161 84.627 114.693 84.627 115.348Z" fill="#0C092A"/>
<path fill-rule="evenodd" clip-rule="evenodd" d="M85.8232 103.477C85.8232 106.1 89.0363 108.226 92.9999 108.226C96.9635 108.226 100.177 106.1 100.177 103.477" fill="black" fill-opacity="0.16"/>
<ellipse cx="77.4501" cy="92.7931" rx="3.58834" ry="3.56136" fill="#0C092A"/>
<ellipse cx="108.549" cy="92.7931" rx="3.58834" ry="3.56136" fill="#0C092A"/>
<path d="M69.0625 85.1528C69.9567 79.5002 77.4848 75.6444 82.93 78.1328C83.5301 78.407 84.2405 78.1466 84.5168 77.551C84.7931 76.9555 84.5306 76.2504 83.9306 75.9762C77.0603 72.8366 67.8424 77.5579 66.6992 84.7845C66.5968 85.4322 67.0427 86.0397 67.6953 86.1414C68.3479 86.2431 68.96 85.8005 69.0625 85.1528Z" fill="#0C092A"/>
<path d="M116.937 85.1528C116.042 79.5002 108.514 75.6444 103.069 78.1328C102.469 78.407 101.759 78.1466 101.482 77.551C101.206 76.9555 101.468 76.2504 102.068 75.9762C108.939 72.8366 118.157 77.5579 119.3 84.7845C119.402 85.4322 118.956 86.0397 118.304 86.1414C117.651 86.2431 117.039 85.8005 116.937 85.1528Z" fill="#0C092A"/>
<mask id="mask3_117_3213" style="mask-type:luminance" maskUnits="userSpaceOnUse" x="14" y="26" width="158" height="167">
<rect x="14.0566" y="26.3145" width="157.887" height="166.197" fill="white"/>
</mask>
<g mask="url(#mask3_117_3213)">
<path fill-rule="evenodd" clip-rule="evenodd" d="M92.9991 113.473C92.6756 113.929 92.2595 114.31 91.7744 114.57C88.0325 116.582 84.211 115.954 81.232 115.465C79.9726 115.258 78.8638 115.076 77.9752 115.129C77.5213 115.156 77.026 115.27 76.5393 115.383C75.4759 115.628 74.4532 115.865 73.9917 115.158C73.2509 114.023 75.6977 107.763 81.4709 106.721C85.6628 105.964 91.5031 106.802 92.9991 108.782C94.4951 106.802 100.335 105.964 104.527 106.721C110.301 107.763 112.747 114.023 112.007 115.158C111.545 115.865 110.522 115.628 109.459 115.383C108.972 115.27 108.477 115.156 108.023 115.129C107.134 115.076 106.026 115.258 104.766 115.465C101.787 115.954 97.9658 116.582 94.2239 114.57C93.7388 114.31 93.3227 113.929 92.9991 113.473Z" fill="#0C092A"/>
<mask id="mask4_117_3213" style="mask-type:luminance" maskUnits="userSpaceOnUse" x="73" y="106" width="40" height="10">
<path fill-rule="evenodd" clip-rule="evenodd" d="M92.9991 113.473C92.6756 113.929 92.2595 114.31 91.7744 114.57C88.0325 116.582 84.211 115.954 81.232 115.465C79.9726 115.258 78.8638 115.076 77.9752 115.129C77.5213 115.156 77.026 115.27 76.5393 115.383C75.4759 115.628 74.4532 115.865 73.9917 115.158C73.2509 114.023 75.6977 107.763 81.4709 106.721C85.6628 105.964 91.5031 106.802 92.9991 108.782C94.4951 106.802 100.335 105.964 104.527 106.721C110.301 107.763 112.747 114.023 112.007 115.158C111.545 115.865 110.522 115.628 109.459 115.383C108.972 115.27 108.477 115.156 108.023 115.129C107.134 115.076 106.026 115.258 104.766 115.465C101.787 115.954 97.9658 116.582 94.2239 114.57C93.7388 114.31 93.3227 113.929 92.9991 113.473Z" fill="white"/>
</mask>
<g mask="url(#mask4_117_3213)">
<rect x="42.7637" y="69.0507" width="100.473" height="90.2211" fill="#0C092A"/>
</g>
<path fill-rule="evenodd" clip-rule="evenodd" d="M125.719 59.6274C126.253 61.5547 127.013 66.7204 125.676 68.4314C125.23 69.0026 122.183 67.3993 120.912 66.7026C120.169 66.2951 119.467 65.9069 118.8 65.5374C109.879 60.6012 106.997 59.006 91.3528 59.232C74.538 59.4749 63.018 67.2938 62.37 68.0936C61.9192 68.65 61.3436 70.1357 60.8703 74.2744C60.7205 75.5845 60.6787 77.2237 60.6371 78.852C60.5473 82.3675 60.4589 85.8324 59.2879 85.8263C57.8293 85.8186 57.5119 71.7081 58.1416 66.1105C58.1652 65.9011 58.2051 65.6516 58.2481 65.3826C58.3817 64.5474 58.5452 63.5254 58.3412 62.9406C58.2493 62.6773 58.0179 62.5168 57.7806 62.3524C57.4095 62.0951 57.0242 61.828 57.1365 61.1416C57.2631 60.3668 57.7893 60.2935 58.3108 60.221C58.6512 60.1736 58.9897 60.1265 59.2135 59.8846C59.8882 59.1554 59.4845 58.7761 59.0233 58.3428C58.7509 58.0869 58.4585 57.8121 58.3565 57.4352C57.9773 56.0336 58.9686 55.5983 59.9634 55.1616C60.0393 55.1283 60.1152 55.095 60.1905 55.0612C60.6014 54.8772 60.8501 54.8139 61.0404 54.7655C61.3949 54.6754 61.5472 54.6366 62.1681 53.9654C60.8933 53.038 60.4321 51.7746 62.1777 51.0967C62.512 50.9669 63.0876 50.9731 63.6723 50.9794C64.3843 50.9871 65.1096 50.9949 65.4285 50.7573C65.5172 50.6913 65.5745 50.4422 65.6255 50.2206C65.6616 50.0637 65.6945 49.9205 65.7332 49.8657C66.5406 48.7193 66.4717 47.8485 66.3783 46.6669C66.3644 46.4911 66.3499 46.3085 66.3378 46.1171C66.2604 44.9073 66.2708 43.7967 67.7302 43.6759C68.3312 43.6261 68.8628 43.9078 69.3869 44.1854C69.7122 44.3576 70.0345 44.5284 70.3686 44.6174C70.8917 44.7568 71.0259 44.8759 71.1585 44.8741C71.2713 44.8726 71.3828 44.7837 71.7314 44.5457C72.4414 44.0603 72.515 43.3294 72.5893 42.5925C72.6542 41.9476 72.7197 41.2981 73.2124 40.8045C74.1546 39.8604 74.8857 40.4302 75.6018 40.9884C75.9868 41.2884 76.3674 41.5851 76.7741 41.6413C78.2966 41.8518 78.6066 41.0102 78.9403 40.1042C79.1601 39.5075 79.3902 38.8828 79.9839 38.5124C81.0779 37.8304 81.5669 38.4843 82.0378 39.114C82.336 39.5127 82.6269 39.9018 83.0597 39.9356C83.66 39.9824 84.5586 39.2865 85.3555 38.6693C85.8425 38.2922 86.2914 37.9445 86.6112 37.8136C87.9679 37.2579 88.9534 37.8517 89.9511 38.4528C90.793 38.96 91.6436 39.4725 92.7333 39.3042C92.9114 39.2767 93.0762 39.2497 93.23 39.2245C94.5691 39.0051 95.0885 38.92 96.4872 39.7951C97.498 40.4276 97.9942 40.3357 98.7227 40.2009C99.0852 40.1338 99.5051 40.0561 100.074 40.0516C100.739 40.0466 101.262 40.3467 101.766 40.6358C102.181 40.8737 102.583 41.1042 103.04 41.1515C103.293 41.1778 103.541 41.0599 103.793 40.9397C104.044 40.82 104.3 40.6981 104.571 40.7145C105.664 40.7802 106.179 41.6007 106.697 42.4259C107.096 43.0625 107.498 43.702 108.168 43.9999C109.136 44.4308 110.223 44.1474 111.261 43.8765C111.729 43.7543 112.187 43.6348 112.62 43.5843C114.988 43.3084 114.58 44.7523 114.145 46.2904C113.955 46.9627 113.76 47.6529 113.789 48.2255C114.476 48.3845 115.167 48.1349 115.858 47.8856C116.512 47.6499 117.164 47.4144 117.811 47.5251C119.843 47.8734 119.158 49.9121 118.673 51.3595C118.658 51.4036 118.643 51.4471 118.629 51.49C119.008 51.4832 119.548 51.3687 120.155 51.2401C121.867 50.8769 124.113 50.4005 124.808 51.91C125.094 52.5338 124.816 53.2812 124.545 54.0096C124.358 54.5121 124.174 55.0055 124.181 55.443C124.197 56.3493 124.606 57.1616 125.016 57.9753C125.289 58.516 125.562 59.0574 125.719 59.6274ZM124.913 70.0049C125.065 70.1098 125.168 70.181 125.194 70.1956C126.245 70.7824 127.077 76.6649 127.118 78.9143C127.143 80.3024 127.165 85.5956 125.686 85.1381C125.236 84.9988 124.548 82.1965 124.451 80.5564C124.353 78.9163 123.414 73.3363 121.974 70.7689C121.895 70.6287 121.781 70.4631 121.659 70.2856C121.271 69.7203 120.8 69.0336 121.109 68.6559C121.541 68.1298 121.963 68.3145 122.461 68.5331C122.546 68.5702 122.632 68.6083 122.722 68.644C123.241 68.8516 124.378 69.6363 124.913 70.0049Z" fill="#2E3257"/>
<mask id="mask5_117_3213" style="mask-type:luminance" maskUnits="userSpaceOnUse" x="57" y="37" width="71" height="49">
<path fill-rule="evenodd" clip-rule="evenodd" d="M125.719 59.6274C126.253 61.5547 127.013 66.7204 125.676 68.4314C125.23 69.0026 122.183 67.3993 120.912 66.7026C120.169 66.2951 119.467 65.9069 118.8 65.5374C109.879 60.6012 106.997 59.006 91.3528 59.232C74.538 59.4749 63.018 67.2938 62.37 68.0936C61.9192 68.65 61.3436 70.1357 60.8703 74.2744C60.7205 75.5845 60.6787 77.2237 60.6371 78.852C60.5473 82.3675 60.4589 85.8324 59.2879 85.8263C57.8293 85.8186 57.5119 71.7081 58.1416 66.1105C58.1652 65.9011 58.2051 65.6516 58.2481 65.3826C58.3817 64.5474 58.5452 63.5254 58.3412 62.9406C58.2493 62.6773 58.0179 62.5168 57.7806 62.3524C57.4095 62.0951 57.0242 61.828 57.1365 61.1416C57.2631 60.3668 57.7893 60.2935 58.3108 60.221C58.6512 60.1736 58.9897 60.1265 59.2135 59.8846C59.8882 59.1554 59.4845 58.7761 59.0233 58.3428C58.7509 58.0869 58.4585 57.8121 58.3565 57.4352C57.9773 56.0336 58.9686 55.5983 59.9634 55.1616C60.0393 55.1283 60.1152 55.095 60.1905 55.0612C60.6014 54.8772 60.8501 54.8139 61.0404 54.7655C61.3949 54.6754 61.5472 54.6366 62.1681 53.9654C60.8933 53.038 60.4321 51.7746 62.1777 51.0967C62.512 50.9669 63.0876 50.9731 63.6723 50.9794C64.3843 50.9871 65.1096 50.9949 65.4285 50.7573C65.5172 50.6913 65.5745 50.4422 65.6255 50.2206C65.6616 50.0637 65.6945 49.9205 65.7332 49.8657C66.5406 48.7193 66.4717 47.8485 66.3783 46.6669C66.3644 46.4911 66.3499 46.3085 66.3378 46.1171C66.2604 44.9073 66.2708 43.7967 67.7302 43.6759C68.3312 43.6261 68.8628 43.9078 69.3869 44.1854C69.7122 44.3576 70.0345 44.5284 70.3686 44.6174C70.8917 44.7568 71.0259 44.8759 71.1585 44.8741C71.2713 44.8726 71.3828 44.7837 71.7314 44.5457C72.4414 44.0603 72.515 43.3294 72.5893 42.5925C72.6542 41.9476 72.7197 41.2981 73.2124 40.8045C74.1546 39.8604 74.8857 40.4302 75.6018 40.9884C75.9868 41.2884 76.3674 41.5851 76.7741 41.6413C78.2966 41.8518 78.6066 41.0102 78.9403 40.1042C79.1601 39.5075 79.3902 38.8828 79.9839 38.5124C81.0779 37.8304 81.5669 38.4843 82.0378 39.114C82.336 39.5127 82.6269 39.9018 83.0597 39.9356C83.66 39.9824 84.5586 39.2865 85.3555 38.6693C85.8425 38.2922 86.2914 37.9445 86.6112 37.8136C87.9679 37.2579 88.9534 37.8517 89.9511 38.4528C90.793 38.96 91.6436 39.4725 92.7333 39.3042C92.9114 39.2767 93.0762 39.2497 93.23 39.2245C94.5691 39.0051 95.0885 38.92 96.4872 39.7951C97.498 40.4276 97.9942 40.3357 98.7227 40.2009C99.0852 40.1338 99.5051 40.0561 100.074 40.0516C100.739 40.0466 101.262 40.3467 101.766 40.6358C102.181 40.8737 102.583 41.1042 103.04 41.1515C103.293 41.1778 103.541 41.0599 103.793 40.9397C104.044 40.82 104.3 40.6981 104.571 40.7145C105.664 40.7802 106.179 41.6007 106.697 42.4259C107.096 43.0625 107.498 43.702 108.168 43.9999C109.136 44.4308 110.223 44.1474 111.261 43.8765C111.729 43.7543 112.187 43.6348 112.62 43.5843C114.988 43.3084 114.58 44.7523 114.145 46.2904C113.955 46.9627 113.76 47.6529 113.789 48.2255C114.476 48.3845 115.167 48.1349 115.858 47.8856C116.512 47.6499 117.164 47.4144 117.811 47.5251C119.843 47.8734 119.158 49.9121 118.673 51.3595C118.658 51.4036 118.643 51.4471 118.629 51.49C119.008 51.4832 119.548 51.3687 120.155 51.2401C121.867 50.8769 124.113 50.4005 124.808 51.91C125.094 52.5338 124.816 53.2812 124.545 54.0096C124.358 54.5121 124.174 55.0055 124.181 55.443C124.197 56.3493 124.606 57.1616 125.016 57.9753C125.289 58.516 125.562 59.0574 125.719 59.6274ZM124.913 70.0049C125.065 70.1098 125.168 70.181 125.194 70.1956C126.245 70.7824 127.077 76.6649 127.118 78.9143C127.143 80.3024 127.165 85.5956 125.686 85.1381C125.236 84.9988 124.548 82.1965 124.451 80.5564C124.353 78.9163 123.414 73.3363 121.974 70.7689C121.895 70.6287 121.781 70.4631 121.659 70.2856C121.271 69.7203 120.8 69.0336 121.109 68.6559C121.541 68.1298 121.963 68.3145 122.461 68.5331C122.546 68.5702 122.632 68.6083 122.722 68.644C123.241 68.8516 124.378 69.6363 124.913 70.0049Z" fill="white"/>
</mask>
<g mask="url(#mask5_117_3213)">
<rect x="14.0571" y="26.3145" width="157.887" height="166.197" fill="#0C092A"/>
</g>
</g>
</g>
</svg>
