<svg width="52" height="52" viewBox="0 0 52 52" fill="none" xmlns="http://www.w3.org/2000/svg">
<rect x="25.5439" y="0.966248" width="36.0877" height="36.0877" rx="10.614" transform="rotate(45 25.5439 0.966248)" fill="#009BD6"/>
<path d="M22.352 32.8259V31.2097L26.6398 27.0063C27.0499 26.5922 27.3916 26.2243 27.665 25.9027C27.9384 25.581 28.1435 25.2694 28.2802 24.9679C28.4169 24.6664 28.4852 24.3447 28.4852 24.003C28.4852 23.613 28.3968 23.2793 28.2199 23.0019C28.043 22.7205 27.7997 22.5033 27.4901 22.3506C27.1806 22.1978 26.8288 22.1214 26.4348 22.1214C26.0287 22.1214 25.6729 22.2058 25.3673 22.3747C25.0618 22.5395 24.8246 22.7747 24.6557 23.0803C24.4909 23.3858 24.4085 23.7497 24.4085 24.1718H22.2796C22.2796 23.3878 22.4585 22.7064 22.8163 22.1274C23.1742 21.5485 23.6667 21.1002 24.2939 20.7826C24.9251 20.465 25.6488 20.3062 26.4649 20.3062C27.2931 20.3062 28.0208 20.4609 28.648 20.7705C29.2752 21.0801 29.7617 21.5043 30.1075 22.043C30.4572 22.5817 30.6321 23.1969 30.6321 23.8884C30.6321 24.3508 30.5437 24.8051 30.3668 25.2513C30.1899 25.6976 29.8783 26.1921 29.432 26.7349C28.9898 27.2777 28.3686 27.935 27.5685 28.7069L25.4397 30.8719V30.9564H30.8191V32.8259H22.352Z" fill="white"/>
</svg>
