<svg width="52" height="52" viewBox="0 0 52 52" fill="none" xmlns="http://www.w3.org/2000/svg">
<rect x="25.667" y="0.466248" width="36.0877" height="36.0877" rx="10.614" transform="rotate(45 25.667 0.466248)" fill="#00D95F"/>
<path d="M24.7845 32.4947C23.9161 32.4947 23.1442 32.346 22.4688 32.0485C21.7973 31.7509 21.2666 31.3368 20.8767 30.8061C20.4867 30.2754 20.2796 29.6623 20.2555 28.9668H22.523C22.5431 29.3005 22.6537 29.5919 22.8547 29.8412C23.0557 30.0865 23.3231 30.2774 23.6568 30.4141C23.9905 30.5508 24.3644 30.6192 24.7785 30.6192C25.2208 30.6192 25.6128 30.5428 25.9545 30.39C26.2962 30.2332 26.5636 30.0161 26.7566 29.7387C26.9496 29.4613 27.0441 29.1417 27.04 28.7798C27.0441 28.4059 26.9476 28.0762 26.7506 27.7908C26.5536 27.5053 26.2681 27.2822 25.8942 27.1214C25.5243 26.9606 25.078 26.8801 24.5554 26.8801H23.4638V25.1554H24.5554C24.9856 25.1554 25.3615 25.081 25.6831 24.9322C26.0088 24.7835 26.2641 24.5744 26.449 24.305C26.634 24.0316 26.7244 23.716 26.7204 23.3582C26.7244 23.0084 26.646 22.7049 26.4852 22.4476C26.3284 22.1862 26.1053 21.9832 25.8158 21.8385C25.5303 21.6937 25.1946 21.6214 24.8087 21.6214C24.4307 21.6214 24.081 21.6897 23.7593 21.8264C23.4377 21.9631 23.1784 22.1581 22.9814 22.4114C22.7844 22.6607 22.6798 22.9582 22.6678 23.3039H20.5148C20.5309 22.6124 20.7299 22.0053 21.1119 21.4827C21.4978 20.956 22.0124 20.5459 22.6557 20.2524C23.299 19.9549 24.0207 19.8061 24.8207 19.8061C25.6449 19.8061 26.3606 19.9609 26.9677 20.2705C27.5788 20.576 28.0512 20.9881 28.3849 21.5068C28.7186 22.0254 28.8854 22.5983 28.8854 23.2255C28.8894 23.9211 28.6844 24.504 28.2703 24.9744C27.8602 25.4448 27.3215 25.7524 26.6541 25.8971V25.9936C27.5225 26.1142 28.1879 26.4359 28.6502 26.9585C29.1166 27.4772 29.3478 28.1225 29.3438 28.8944C29.3438 29.5859 29.1468 30.2051 28.7528 30.7519C28.3628 31.2946 27.824 31.7208 27.1365 32.0304C26.453 32.3399 25.6691 32.4947 24.7845 32.4947Z" fill="white"/>
</svg>
