<svg width="89" height="53" viewBox="0 0 89 53" fill="none" xmlns="http://www.w3.org/2000/svg">
<g filter="url(#filter0_dii_166_970)">
<rect x="5.5" y="5.5625" width="73.5" height="37" rx="18.5" stroke="#00644C" stroke-width="5" shape-rendering="crispEdges"/>
<g filter="url(#filter1_ii_166_970)">
<rect x="7" y="7.0625" width="70.375" height="34.125" rx="17.0625" fill="#031614"/>
</g>
<path d="M52.2897 24.08V24.42C52.2897 24.9733 52.1331 25.375 51.8197 25.625C51.5064 25.875 50.9831 26 50.2497 26H47.7747V22.5H50.2347C50.9747 22.5 51.5014 22.625 51.8147 22.875C52.1314 23.125 52.2897 23.5267 52.2897 24.08ZM50.0547 22.885H48.2347V25.615H50.0547C50.4147 25.615 50.7097 25.5917 50.9397 25.545C51.1731 25.495 51.3547 25.4133 51.4847 25.3C51.6147 25.1867 51.7031 25.055 51.7497 24.905C51.7997 24.7517 51.8247 24.5567 51.8247 24.32V24.185C51.8247 23.8683 51.7781 23.6217 51.6847 23.445C51.5947 23.265 51.4197 23.1267 51.1597 23.03C50.8997 22.9333 50.5314 22.885 50.0547 22.885ZM58.4055 24.35V26H57.9755V25.425H57.9555C57.8822 25.6083 57.7288 25.76 57.4955 25.88C57.2622 25.9967 56.9355 26.055 56.5155 26.055C55.6355 26.055 55.1955 25.7783 55.1955 25.225V25.19C55.1988 24.9433 55.2755 24.76 55.4255 24.64C55.5788 24.52 55.8122 24.455 56.1255 24.445L57.9755 24.38V24.345C57.9755 24.065 57.8872 23.8733 57.7105 23.77C57.5338 23.6667 57.2505 23.615 56.8605 23.615C56.5572 23.615 56.3205 23.65 56.1505 23.72C55.9805 23.79 55.8588 23.915 55.7855 24.095H55.3455C55.4188 23.8283 55.5722 23.63 55.8055 23.5C56.0388 23.3667 56.3805 23.3 56.8305 23.3H56.9555C57.4555 23.3 57.8222 23.38 58.0555 23.54C58.2888 23.7 58.4055 23.97 58.4055 24.35ZM55.6305 25.185V25.21C55.6305 25.5667 55.9572 25.745 56.6105 25.745C57.0305 25.745 57.3622 25.6683 57.6055 25.515C57.8522 25.3583 57.9755 25.13 57.9755 24.83V24.675L56.2555 24.735C56.0388 24.7417 55.8805 24.78 55.7805 24.85C55.6805 24.92 55.6305 25.0317 55.6305 25.185ZM63.0291 23.35H63.3541V23.705H62.9491C62.7891 23.705 62.6474 23.7167 62.5241 23.74C62.4041 23.76 62.2891 23.7983 62.1791 23.855C62.0691 23.9083 61.9841 23.99 61.9241 24.1C61.8641 24.21 61.8341 24.345 61.8341 24.505V26H61.3991V23.35H61.8341V23.85H61.8541C61.9974 23.5167 62.3891 23.35 63.0291 23.35ZM66.5505 25.2V26H66.1155V22.5H66.5505V24.75H66.5705L68.6505 23.35H69.2805L67.6305 24.465L69.4055 26H68.7805L67.2955 24.71H67.2755L66.5505 25.2Z" fill="white"/>
<g filter="url(#filter2_di_166_970)">
<ellipse cx="23.875" cy="24.0625" rx="16" ry="16" transform="rotate(90 23.875 24.0625)" fill="#F2F2F2"/>
</g>
<g opacity="0.5" filter="url(#filter3_f_166_970)">
<path d="M12.8974 33.0611C9.31866 29.0931 9.03933 25.9518 9.03933 25.9518C9.03933 25.9518 9.07529 30.7494 11.8909 34.2185C15.2458 38.3518 19.4393 38.3518 19.4393 38.3518C19.4393 38.3518 16.4761 37.0291 12.8974 33.0611Z" fill="white" fill-opacity="0.8"/>
</g>
<g opacity="0.5" filter="url(#filter4_f_166_970)">
<ellipse cx="27.875" cy="20.0625" rx="7.6" ry="7.6" transform="rotate(90 27.875 20.0625)" fill="white"/>
</g>
<g opacity="0.5" filter="url(#filter5_f_166_970)">
<ellipse cx="17.475" cy="28.4625" rx="4" ry="3.6" transform="rotate(90 17.475 28.4625)" fill="white"/>
</g>
</g>
<defs>
<filter id="filter0_dii_166_970" x="0.5" y="0.5625" width="88.5" height="52" filterUnits="userSpaceOnUse" color-interpolation-filters="sRGB">
<feFlood flood-opacity="0" result="BackgroundImageFix"/>
<feColorMatrix in="SourceAlpha" type="matrix" values="0 0 0 0 0 0 0 0 0 0 0 0 0 0 0 0 0 0 127 0" result="hardAlpha"/>
<feOffset dx="2.5" dy="2.5"/>
<feGaussianBlur stdDeviation="2.5"/>
<feComposite in2="hardAlpha" operator="out"/>
<feColorMatrix type="matrix" values="0 0 0 0 0 0 0 0 0 0 0 0 0 0 0 0 0 0 0.5 0"/>
<feBlend mode="normal" in2="BackgroundImageFix" result="effect1_dropShadow_166_970"/>
<feBlend mode="normal" in="SourceGraphic" in2="effect1_dropShadow_166_970" result="shape"/>
<feColorMatrix in="SourceAlpha" type="matrix" values="0 0 0 0 0 0 0 0 0 0 0 0 0 0 0 0 0 0 127 0" result="hardAlpha"/>
<feOffset dx="0.5" dy="0.5"/>
<feGaussianBlur stdDeviation="0.25"/>
<feComposite in2="hardAlpha" operator="arithmetic" k2="-1" k3="1"/>
<feColorMatrix type="matrix" values="0 0 0 0 1 0 0 0 0 1 0 0 0 0 1 0 0 0 0.21 0"/>
<feBlend mode="normal" in2="shape" result="effect2_innerShadow_166_970"/>
<feColorMatrix in="SourceAlpha" type="matrix" values="0 0 0 0 0 0 0 0 0 0 0 0 0 0 0 0 0 0 127 0" result="hardAlpha"/>
<feOffset dx="-0.5" dy="-0.5"/>
<feGaussianBlur stdDeviation="0.25"/>
<feComposite in2="hardAlpha" operator="arithmetic" k2="-1" k3="1"/>
<feColorMatrix type="matrix" values="0 0 0 0 0 0 0 0 0 0 0 0 0 0 0 0 0 0 0.23 0"/>
<feBlend mode="normal" in2="effect2_innerShadow_166_970" result="effect3_innerShadow_166_970"/>
</filter>
<filter id="filter1_ii_166_970" x="7" y="7.0625" width="72.875" height="36.625" filterUnits="userSpaceOnUse" color-interpolation-filters="sRGB">
<feFlood flood-opacity="0" result="BackgroundImageFix"/>
<feBlend mode="normal" in="SourceGraphic" in2="BackgroundImageFix" result="shape"/>
<feColorMatrix in="SourceAlpha" type="matrix" values="0 0 0 0 0 0 0 0 0 0 0 0 0 0 0 0 0 0 127 0" result="hardAlpha"/>
<feOffset dx="0.25" dy="0.25"/>
<feGaussianBlur stdDeviation="0.4375"/>
<feComposite in2="hardAlpha" operator="arithmetic" k2="-1" k3="1"/>
<feColorMatrix type="matrix" values="0 0 0 0 0.841667 0 0 0 0 0.841667 0 0 0 0 0.841667 0 0 0 0.52 0"/>
<feBlend mode="normal" in2="shape" result="effect1_innerShadow_166_970"/>
<feColorMatrix in="SourceAlpha" type="matrix" values="0 0 0 0 0 0 0 0 0 0 0 0 0 0 0 0 0 0 127 0" result="hardAlpha"/>
<feOffset dx="2.5" dy="2.5"/>
<feGaussianBlur stdDeviation="6.25"/>
<feComposite in2="hardAlpha" operator="arithmetic" k2="-1" k3="1"/>
<feColorMatrix type="matrix" values="0 0 0 0 0 0 0 0 0 0 0 0 0 0 0 0 0 0 0.55 0"/>
<feBlend mode="normal" in2="effect1_innerShadow_166_970" result="effect2_innerShadow_166_970"/>
</filter>
<filter id="filter2_di_166_970" x="4.625" y="4.8125" width="41.5" height="41.5" filterUnits="userSpaceOnUse" color-interpolation-filters="sRGB">
<feFlood flood-opacity="0" result="BackgroundImageFix"/>
<feColorMatrix in="SourceAlpha" type="matrix" values="0 0 0 0 0 0 0 0 0 0 0 0 0 0 0 0 0 0 127 0" result="hardAlpha"/>
<feOffset dx="1.5" dy="1.5"/>
<feGaussianBlur stdDeviation="2.375"/>
<feComposite in2="hardAlpha" operator="out"/>
<feColorMatrix type="matrix" values="0 0 0 0 0 0 0 0 0 0 0 0 0 0 0 0 0 0 0.25 0"/>
<feBlend mode="normal" in2="BackgroundImageFix" result="effect1_dropShadow_166_970"/>
<feBlend mode="normal" in="SourceGraphic" in2="effect1_dropShadow_166_970" result="shape"/>
<feColorMatrix in="SourceAlpha" type="matrix" values="0 0 0 0 0 0 0 0 0 0 0 0 0 0 0 0 0 0 127 0" result="hardAlpha"/>
<feOffset dx="2.5" dy="2.5"/>
<feGaussianBlur stdDeviation="1.6875"/>
<feComposite in2="hardAlpha" operator="arithmetic" k2="-1" k3="1"/>
<feColorMatrix type="matrix" values="0 0 0 0 0 0 0 0 0 0 0 0 0 0 0 0 0 0 0.24 0"/>
<feBlend mode="normal" in2="shape" result="effect2_innerShadow_166_970"/>
</filter>
<filter id="filter3_f_166_970" x="7.78931" y="24.7018" width="12.9" height="14.9" filterUnits="userSpaceOnUse" color-interpolation-filters="sRGB">
<feFlood flood-opacity="0" result="BackgroundImageFix"/>
<feBlend mode="normal" in="SourceGraphic" in2="BackgroundImageFix" result="shape"/>
<feGaussianBlur stdDeviation="0.625" result="effect1_foregroundBlur_166_970"/>
</filter>
<filter id="filter4_f_166_970" x="15.275" y="7.46252" width="25.2" height="25.2" filterUnits="userSpaceOnUse" color-interpolation-filters="sRGB">
<feFlood flood-opacity="0" result="BackgroundImageFix"/>
<feBlend mode="normal" in="SourceGraphic" in2="BackgroundImageFix" result="shape"/>
<feGaussianBlur stdDeviation="2.5" result="effect1_foregroundBlur_166_970"/>
</filter>
<filter id="filter5_f_166_970" x="8.875" y="19.4625" width="17.2" height="18" filterUnits="userSpaceOnUse" color-interpolation-filters="sRGB">
<feFlood flood-opacity="0" result="BackgroundImageFix"/>
<feBlend mode="normal" in="SourceGraphic" in2="BackgroundImageFix" result="shape"/>
<feGaussianBlur stdDeviation="2.5" result="effect1_foregroundBlur_166_970"/>
</filter>
</defs>
</svg>
