<svg width="21" height="20" viewBox="0 0 21 20" fill="none" xmlns="http://www.w3.org/2000/svg">
<mask id="mask0_5072_645" style="mask-type:alpha" maskUnits="userSpaceOnUse" x="0" y="0" width="21" height="20">
<rect x="0.5" width="20" height="20" fill="#D9D9D9"/>
</mask>
<g mask="url(#mask0_5072_645)">
<path d="M2.99984 5.83268V2.49935L6.33317 4.16602L2.99984 5.83268ZM15.4998 5.83268V2.49935L18.8332 4.16602L15.4998 5.83268ZM9.6665 4.99935V1.66602L12.9998 3.33268L9.6665 4.99935ZM9.6665 18.3327C8.61095 18.3049 7.62831 18.2181 6.71859 18.0723C5.80887 17.9264 5.0172 17.7424 4.34359 17.5202C3.66998 17.298 3.13873 17.041 2.74984 16.7493C2.36095 16.4577 2.1665 16.1521 2.1665 15.8327V8.33268C2.1665 7.98546 2.38525 7.66254 2.82275 7.36393C3.26025 7.06532 3.854 6.80143 4.604 6.57227C5.354 6.3431 6.23595 6.16254 7.24984 6.0306C8.26373 5.89865 9.34706 5.83268 10.4998 5.83268C11.6526 5.83268 12.7359 5.89865 13.7498 6.0306C14.7637 6.16254 15.6457 6.3431 16.3957 6.57227C17.1457 6.80143 17.7394 7.06532 18.1769 7.36393C18.6144 7.66254 18.8332 7.98546 18.8332 8.33268V15.8327C18.8332 16.1521 18.6387 16.4577 18.2498 16.7493C17.8609 17.041 17.3297 17.298 16.6561 17.5202C15.9825 17.7424 15.1908 17.9264 14.2811 18.0723C13.3714 18.2181 12.3887 18.3049 11.3332 18.3327V14.9993H9.6665V18.3327ZM10.4998 9.16602C11.8471 9.16602 13.0103 9.08615 13.9894 8.92643C14.9686 8.76671 15.7498 8.58268 16.3332 8.37435C16.3332 8.3049 15.8054 8.14171 14.7498 7.88477C13.6943 7.62782 12.2776 7.49935 10.4998 7.49935C8.72206 7.49935 7.30539 7.62782 6.24984 7.88477C5.19428 8.14171 4.6665 8.3049 4.6665 8.37435C5.24984 8.58268 6.03109 8.76671 7.01025 8.92643C7.98942 9.08615 9.15262 9.16602 10.4998 9.16602ZM7.99984 16.541V13.3327H12.9998V16.541C14.1109 16.4299 15.0207 16.2667 15.729 16.0514C16.4373 15.8362 16.9165 15.6452 17.1665 15.4785V9.83268C16.4026 10.1382 15.4443 10.3813 14.2915 10.5618C13.1387 10.7424 11.8748 10.8327 10.4998 10.8327C9.12484 10.8327 7.86095 10.7424 6.70817 10.5618C5.55539 10.3813 4.59706 10.1382 3.83317 9.83268V15.4785C4.08317 15.6452 4.56234 15.8362 5.27067 16.0514C5.979 16.2667 6.88873 16.4299 7.99984 16.541Z" fill="#ECF9F0" fill-opacity="0.8"/>
</g>
</svg>
