<svg width="158" height="159" viewBox="0 0 158 159" fill="none" xmlns="http://www.w3.org/2000/svg">
<path fill-rule="evenodd" clip-rule="evenodd" d="M78.9999 21.6826C60.5033 21.6826 45.5088 36.6771 45.5088 55.1737V58.5825C42.1147 59.1521 39.5285 62.104 39.5285 65.66V73.8619C39.5285 77.4898 42.2204 80.489 45.7159 80.9709C47.0229 92.716 54.4039 102.628 64.6464 107.493V118.503C39.3148 119.867 19.1943 140.839 19.1943 166.511H138.806C138.806 140.839 118.685 119.867 93.3531 118.503V107.494C103.596 102.628 110.977 92.7162 112.284 80.9709C115.779 80.489 118.471 77.4898 118.471 73.8619V65.6599C118.471 62.104 115.885 59.1521 112.491 58.5825V55.1737C112.491 36.6771 97.4966 21.6826 78.9999 21.6826Z" fill="#D0C6AC"/>
<mask id="mask0_117_3216" style="mask-type:luminance" maskUnits="userSpaceOnUse" x="19" y="21" width="120" height="146">
<path fill-rule="evenodd" clip-rule="evenodd" d="M78.9999 21.6826C60.5033 21.6826 45.5088 36.6771 45.5088 55.1737V58.5825C42.1147 59.1521 39.5285 62.104 39.5285 65.66V73.8619C39.5285 77.4898 42.2204 80.489 45.7159 80.9709C47.0229 92.716 54.4039 102.628 64.6464 107.493V118.503C39.3148 119.867 19.1943 140.839 19.1943 166.511H138.806C138.806 140.839 118.685 119.867 93.3531 118.503V107.494C103.596 102.628 110.977 92.7162 112.284 80.9709C115.779 80.489 118.471 77.4898 118.471 73.8619V65.6599C118.471 62.104 115.885 59.1521 112.491 58.5825V55.1737C112.491 36.6771 97.4966 21.6826 78.9999 21.6826Z" fill="white"/>
</mask>
<g mask="url(#mask0_117_3216)">
<rect x="0.0566406" y="21.6826" width="157.887" height="144.828" fill="#C9824B"/>
<path fill-rule="evenodd" clip-rule="evenodd" d="M45.5088 77.2254V81.9738C45.5088 100.47 60.5033 115.465 78.9999 115.465C97.4966 115.465 112.491 100.47 112.491 81.9739V77.2254C112.491 95.722 97.4966 110.717 78.9999 110.717C60.5033 110.717 45.5088 95.722 45.5088 77.2254Z" fill="black" fill-opacity="0.1"/>
</g>
<path fill-rule="evenodd" clip-rule="evenodd" d="M79.2992 131.982C90.3641 131.982 99.3341 126.274 99.3341 119.233C99.3341 119.231 99.3341 119.229 99.3341 119.227C121.778 123.271 138.806 142.903 138.806 166.511H19.1943C19.1943 142.693 36.5255 122.922 59.265 119.123C59.2645 119.159 59.2643 119.196 59.2643 119.233C59.2643 126.274 68.2342 131.982 79.2992 131.982Z" fill="#E6E6E6"/>
<mask id="mask1_117_3216" style="mask-type:luminance" maskUnits="userSpaceOnUse" x="19" y="119" width="120" height="48">
<path fill-rule="evenodd" clip-rule="evenodd" d="M79.2992 131.982C90.3641 131.982 99.3341 126.274 99.3341 119.233C99.3341 119.231 99.3341 119.229 99.3341 119.227C121.778 123.271 138.806 142.903 138.806 166.511H19.1943C19.1943 142.693 36.5255 122.922 59.265 119.123C59.2645 119.159 59.2643 119.196 59.2643 119.233C59.2643 126.274 68.2342 131.982 79.2992 131.982Z" fill="white"/>
</mask>
<g mask="url(#mask1_117_3216)">
<rect x="0.0566406" y="101.22" width="157.887" height="65.2915" fill="#C2FF5F"/>
<g opacity="0.6">
<ellipse cx="79.2992" cy="120.123" rx="23.704" ry="15.975" fill="black" fill-opacity="0.16"/>
</g>
</g>
<path d="M70.627 89.3484C70.627 92.5368 74.3099 94.6904 78.9997 94.6904C83.6896 94.6904 87.3725 92.5368 87.3725 89.3484C87.3725 88.6927 86.8045 88.1612 86.1764 88.1612C85.4033 88.1612 85.0582 88.6985 84.9803 89.3484C84.2373 91.0922 82.3986 92.1478 78.9997 92.3162C75.6008 92.1478 73.7622 91.0922 73.0192 89.3484C72.9413 88.6985 72.5962 88.1612 71.8231 88.1612C71.1949 88.1612 70.627 88.6927 70.627 89.3484Z" fill="#0C092A"/>
<path fill-rule="evenodd" clip-rule="evenodd" d="M71.8232 77.4772C71.8232 80.0997 75.0363 82.2257 78.9999 82.2257C82.9635 82.2257 86.1766 80.0997 86.1766 77.4772" fill="black" fill-opacity="0.16"/>
<ellipse cx="63.4501" cy="66.7931" rx="3.58834" ry="3.56136" fill="#0C092A"/>
<ellipse cx="94.5493" cy="66.7931" rx="3.58834" ry="3.56136" fill="#0C092A"/>
<path d="M55.0625 59.1528C55.9567 53.5002 63.4848 49.6444 68.93 52.1328C69.5301 52.407 70.2405 52.1466 70.5168 51.551C70.7931 50.9555 70.5306 50.2504 69.9306 49.9762C63.0603 46.8366 53.8424 51.5579 52.6992 58.7845C52.5968 59.4322 53.0427 60.0397 53.6953 60.1414C54.3479 60.2431 54.96 59.8005 55.0625 59.1528Z" fill="#0C092A"/>
<path d="M102.937 59.1528C102.042 53.5002 94.5143 49.6444 89.069 52.1328C88.469 52.407 87.7586 52.1466 87.4823 51.551C87.206 50.9555 87.4684 50.2504 88.0685 49.9762C94.9387 46.8366 104.157 51.5579 105.3 58.7845C105.402 59.4322 104.956 60.0397 104.304 60.1414C103.651 60.2431 103.039 59.8005 102.937 59.1528Z" fill="#0C092A"/>
<mask id="mask2_117_3216" style="mask-type:luminance" maskUnits="userSpaceOnUse" x="0" y="0" width="158" height="167">
<rect x="0.0566406" y="0.314468" width="157.887" height="166.197" fill="white"/>
</mask>
<g mask="url(#mask2_117_3216)">
<path fill-rule="evenodd" clip-rule="evenodd" d="M78.9991 87.4729C78.6756 87.9292 78.2595 88.3095 77.7744 88.5703C74.0325 90.5816 70.211 89.9542 67.232 89.465C65.9726 89.2582 64.8638 89.0762 63.9752 89.1287C63.5213 89.1555 63.026 89.27 62.5393 89.3826C61.4759 89.6284 60.4532 89.8648 59.9917 89.1579C59.2509 88.0229 61.6977 81.7631 67.4709 80.7206C71.6628 79.9638 77.5031 80.8024 78.9991 82.7821C80.4951 80.8024 86.3354 79.9638 90.5272 80.7206C96.3006 81.7631 98.7474 88.0229 98.0066 89.1579C97.5451 89.8648 96.5224 89.6284 95.459 89.3826C94.9722 89.27 94.4769 89.1555 94.0231 89.1287C93.1344 89.0762 92.0255 89.2582 90.7661 89.465C87.7871 89.9542 83.9658 90.5816 80.2239 88.5703C79.7388 88.3095 79.3227 87.9292 78.9991 87.4729Z" fill="#0C092A"/>
<mask id="mask3_117_3216" style="mask-type:luminance" maskUnits="userSpaceOnUse" x="59" y="80" width="40" height="10">
<path fill-rule="evenodd" clip-rule="evenodd" d="M78.9991 87.4729C78.6756 87.9292 78.2595 88.3095 77.7744 88.5703C74.0325 90.5816 70.211 89.9542 67.232 89.465C65.9726 89.2582 64.8638 89.0762 63.9752 89.1287C63.5213 89.1555 63.026 89.27 62.5393 89.3826C61.4759 89.6284 60.4532 89.8648 59.9917 89.1579C59.2509 88.0229 61.6977 81.7631 67.4709 80.7206C71.6628 79.9638 77.5031 80.8024 78.9991 82.7821C80.4951 80.8024 86.3354 79.9638 90.5272 80.7206C96.3006 81.7631 98.7474 88.0229 98.0066 89.1579C97.5451 89.8648 96.5224 89.6284 95.459 89.3826C94.9722 89.27 94.4769 89.1555 94.0231 89.1287C93.1344 89.0762 92.0255 89.2582 90.7661 89.465C87.7871 89.9542 83.9658 90.5816 80.2239 88.5703C79.7388 88.3095 79.3227 87.9292 78.9991 87.4729Z" fill="white"/>
</mask>
<g mask="url(#mask3_117_3216)">
<rect x="28.7637" y="43.0507" width="100.473" height="90.2211" fill="#0C092A"/>
</g>
<path fill-rule="evenodd" clip-rule="evenodd" d="M111.719 33.6274C112.253 35.5547 113.013 40.7204 111.676 42.4314C111.23 43.0026 108.183 41.3993 106.912 40.7026C106.169 40.2951 105.467 39.9069 104.8 39.5374C95.8794 34.6012 92.9968 33.006 77.3528 33.232C60.538 33.4749 49.018 41.2938 48.37 42.0936C47.9192 42.65 47.3436 44.1357 46.8703 48.2744C46.7205 49.5845 46.6787 51.2237 46.6371 52.852C46.5473 56.3675 46.4589 59.8324 45.2879 59.8263C43.8293 59.8186 43.5119 45.7081 44.1416 40.1105C44.1652 39.9011 44.2051 39.6516 44.2481 39.3826C44.3817 38.5474 44.5452 37.5254 44.3412 36.9406C44.2493 36.6773 44.0179 36.5168 43.7806 36.3524C43.4095 36.0951 43.0242 35.828 43.1365 35.1416C43.2631 34.3668 43.7893 34.2935 44.3108 34.221C44.6512 34.1736 44.9897 34.1265 45.2135 33.8846C45.8882 33.1554 45.4845 32.7761 45.0233 32.3428C44.7509 32.0869 44.4585 31.8121 44.3565 31.4352C43.9773 30.0336 44.9686 29.5983 45.9634 29.1616C46.0393 29.1283 46.1152 29.095 46.1905 29.0612C46.6014 28.8772 46.8501 28.8139 47.0404 28.7655C47.3949 28.6754 47.5472 28.6366 48.1681 27.9654C46.8933 27.038 46.4321 25.7746 48.1777 25.0967C48.512 24.9669 49.0876 24.9731 49.6723 24.9794C50.3843 24.9871 51.1096 24.9949 51.4285 24.7573C51.5172 24.6913 51.5745 24.4422 51.6255 24.2206C51.6616 24.0637 51.6945 23.9205 51.7332 23.8657C52.5406 22.7193 52.4717 21.8485 52.3783 20.6669C52.3644 20.4911 52.3499 20.3085 52.3378 20.1171C52.2604 18.9073 52.2708 17.7967 53.7302 17.6759C54.3312 17.6261 54.8628 17.9078 55.3869 18.1854C55.7122 18.3576 56.0345 18.5284 56.3686 18.6174C56.8917 18.7568 57.0259 18.8759 57.1585 18.8741C57.2713 18.8726 57.3828 18.7837 57.7314 18.5457C58.4414 18.0603 58.515 17.3294 58.5893 16.5925C58.6542 15.9476 58.7197 15.2981 59.2124 14.8045C60.1546 13.8604 60.8857 14.4302 61.6018 14.9884C61.9868 15.2884 62.3674 15.5851 62.7741 15.6413C64.2966 15.8518 64.6066 15.0102 64.9403 14.1042C65.1601 13.5075 65.3902 12.8828 65.9839 12.5124C67.0779 11.8304 67.5669 12.4843 68.0378 13.114C68.336 13.5127 68.6269 13.9018 69.0597 13.9356C69.66 13.9824 70.5586 13.2865 71.3555 12.6693C71.8425 12.2922 72.2914 11.9445 72.6112 11.8136C73.9679 11.2579 74.9534 11.8517 75.9511 12.4528C76.793 12.96 77.6436 13.4725 78.7333 13.3042C78.9114 13.2767 79.0762 13.2497 79.23 13.2245C80.5691 13.0051 81.0885 12.92 82.4872 13.7951C83.498 14.4276 83.9942 14.3357 84.7227 14.2009C85.0852 14.1338 85.5051 14.0561 86.0745 14.0516C86.7388 14.0466 87.2619 14.3467 87.7661 14.6358C88.1809 14.8737 88.5828 15.1042 89.0401 15.1515C89.2931 15.1778 89.5407 15.0599 89.793 14.9397C90.0444 14.82 90.3004 14.6981 90.571 14.7145C91.6639 14.7802 92.1789 15.6007 92.6969 16.4259C93.0965 17.0625 93.4978 17.702 94.1677 17.9999C95.1365 18.4308 96.2226 18.1474 97.2608 17.8765C97.7287 17.7543 98.1869 17.6348 98.6202 17.5843C100.988 17.3084 100.58 18.7523 100.145 20.2904C99.955 20.9627 99.7597 21.6529 99.7889 22.2255C100.476 22.3845 101.167 22.1349 101.858 21.8856C102.512 21.6499 103.164 21.4144 103.811 21.5251C105.843 21.8734 105.158 23.9121 104.673 25.3595C104.658 25.4036 104.643 25.4471 104.629 25.49C105.008 25.4832 105.548 25.3687 106.155 25.2401C107.867 24.8769 110.113 24.4005 110.808 25.91C111.094 26.5338 110.816 27.2812 110.545 28.0096C110.358 28.5121 110.174 29.0055 110.181 29.443C110.197 30.3493 110.606 31.1616 111.016 31.9753C111.289 32.516 111.562 33.0574 111.719 33.6274ZM110.913 44.0049C111.065 44.1098 111.168 44.181 111.194 44.1956C112.245 44.7824 113.077 50.6649 113.118 52.9143C113.143 54.3024 113.165 59.5956 111.686 59.1381C111.236 58.9988 110.548 56.1965 110.451 54.5564C110.353 52.9163 109.414 47.3363 107.974 44.7689C107.895 44.6287 107.781 44.4631 107.659 44.2856C107.271 43.7203 106.8 43.0336 107.109 42.6559C107.541 42.1298 107.963 42.3145 108.461 42.5331C108.546 42.5702 108.632 42.6083 108.722 42.644C109.241 42.8516 110.378 43.6363 110.913 44.0049Z" fill="#2E3257"/>
<mask id="mask4_117_3216" style="mask-type:luminance" maskUnits="userSpaceOnUse" x="43" y="11" width="71" height="49">
<path fill-rule="evenodd" clip-rule="evenodd" d="M111.719 33.6274C112.253 35.5547 113.013 40.7204 111.676 42.4314C111.23 43.0026 108.183 41.3993 106.912 40.7026C106.169 40.2951 105.467 39.9069 104.8 39.5374C95.8794 34.6012 92.9968 33.006 77.3528 33.232C60.538 33.4749 49.018 41.2938 48.37 42.0936C47.9192 42.65 47.3436 44.1357 46.8703 48.2744C46.7205 49.5845 46.6787 51.2237 46.6371 52.852C46.5473 56.3675 46.4589 59.8324 45.2879 59.8263C43.8293 59.8186 43.5119 45.7081 44.1416 40.1105C44.1652 39.9011 44.2051 39.6516 44.2481 39.3826C44.3817 38.5474 44.5452 37.5254 44.3412 36.9406C44.2493 36.6773 44.0179 36.5168 43.7806 36.3524C43.4095 36.0951 43.0242 35.828 43.1365 35.1416C43.2631 34.3668 43.7893 34.2935 44.3108 34.221C44.6512 34.1736 44.9897 34.1265 45.2135 33.8846C45.8882 33.1554 45.4845 32.7761 45.0233 32.3428C44.7509 32.0869 44.4585 31.8121 44.3565 31.4352C43.9773 30.0336 44.9686 29.5983 45.9634 29.1616C46.0393 29.1283 46.1152 29.095 46.1905 29.0612C46.6014 28.8772 46.8501 28.8139 47.0404 28.7655C47.3949 28.6754 47.5472 28.6366 48.1681 27.9654C46.8933 27.038 46.4321 25.7746 48.1777 25.0967C48.512 24.9669 49.0876 24.9731 49.6723 24.9794C50.3843 24.9871 51.1096 24.9949 51.4285 24.7573C51.5172 24.6913 51.5745 24.4422 51.6255 24.2206C51.6616 24.0637 51.6945 23.9205 51.7332 23.8657C52.5406 22.7193 52.4717 21.8485 52.3783 20.6669C52.3644 20.4911 52.3499 20.3085 52.3378 20.1171C52.2604 18.9073 52.2708 17.7967 53.7302 17.6759C54.3312 17.6261 54.8628 17.9078 55.3869 18.1854C55.7122 18.3576 56.0345 18.5284 56.3686 18.6174C56.8917 18.7568 57.0259 18.8759 57.1585 18.8741C57.2713 18.8726 57.3828 18.7837 57.7314 18.5457C58.4414 18.0603 58.515 17.3294 58.5893 16.5925C58.6542 15.9476 58.7197 15.2981 59.2124 14.8045C60.1546 13.8604 60.8857 14.4302 61.6018 14.9884C61.9868 15.2884 62.3674 15.5851 62.7741 15.6413C64.2966 15.8518 64.6066 15.0102 64.9403 14.1042C65.1601 13.5075 65.3902 12.8828 65.9839 12.5124C67.0779 11.8304 67.5669 12.4843 68.0378 13.114C68.336 13.5127 68.6269 13.9018 69.0597 13.9356C69.66 13.9824 70.5586 13.2865 71.3555 12.6693C71.8425 12.2922 72.2914 11.9445 72.6112 11.8136C73.9679 11.2579 74.9534 11.8517 75.9511 12.4528C76.793 12.96 77.6436 13.4725 78.7333 13.3042C78.9114 13.2767 79.0762 13.2497 79.23 13.2245C80.5691 13.0051 81.0885 12.92 82.4872 13.7951C83.498 14.4276 83.9942 14.3357 84.7227 14.2009C85.0852 14.1338 85.5051 14.0561 86.0745 14.0516C86.7388 14.0466 87.2619 14.3467 87.7661 14.6358C88.1809 14.8737 88.5828 15.1042 89.0401 15.1515C89.2931 15.1778 89.5407 15.0599 89.793 14.9397C90.0444 14.82 90.3004 14.6981 90.571 14.7145C91.6639 14.7802 92.1789 15.6007 92.6969 16.4259C93.0965 17.0625 93.4978 17.702 94.1677 17.9999C95.1365 18.4308 96.2226 18.1474 97.2608 17.8765C97.7287 17.7543 98.1869 17.6348 98.6202 17.5843C100.988 17.3084 100.58 18.7523 100.145 20.2904C99.955 20.9627 99.7597 21.6529 99.7889 22.2255C100.476 22.3845 101.167 22.1349 101.858 21.8856C102.512 21.6499 103.164 21.4144 103.811 21.5251C105.843 21.8734 105.158 23.9121 104.673 25.3595C104.658 25.4036 104.643 25.4471 104.629 25.49C105.008 25.4832 105.548 25.3687 106.155 25.2401C107.867 24.8769 110.113 24.4005 110.808 25.91C111.094 26.5338 110.816 27.2812 110.545 28.0096C110.358 28.5121 110.174 29.0055 110.181 29.443C110.197 30.3493 110.606 31.1616 111.016 31.9753C111.289 32.516 111.562 33.0574 111.719 33.6274ZM110.913 44.0049C111.065 44.1098 111.168 44.181 111.194 44.1956C112.245 44.7824 113.077 50.6649 113.118 52.9143C113.143 54.3024 113.165 59.5956 111.686 59.1381C111.236 58.9988 110.548 56.1965 110.451 54.5564C110.353 52.9163 109.414 47.3363 107.974 44.7689C107.895 44.6287 107.781 44.4631 107.659 44.2856C107.271 43.7203 106.8 43.0336 107.109 42.6559C107.541 42.1298 107.963 42.3145 108.461 42.5331C108.546 42.5702 108.632 42.6083 108.722 42.644C109.241 42.8516 110.378 43.6363 110.913 44.0049Z" fill="white"/>
</mask>
<g mask="url(#mask4_117_3216)">
<rect x="0.0571289" y="0.314468" width="157.887" height="166.197" fill="#0C092A"/>
</g>
</g>
</svg>
