<svg width="55" height="55" viewBox="0 0 55 55" fill="none" xmlns="http://www.w3.org/2000/svg">
<g clip-path="url(#clip0_18_8840)">
<path d="M14.3218 40.0025L9.82178 37.5275V31.9025" stroke="white" stroke-width="4.5" stroke-linecap="round" stroke-linejoin="round"/>
<path d="M9.82178 22.9025V17.2775L14.3218 14.8025" stroke="white" stroke-width="4.5" stroke-linecap="round" stroke-linejoin="round"/>
<path d="M23.3218 9.62753L27.8218 7.15253L32.3218 9.62753" stroke="white" stroke-width="4.5" stroke-linecap="round" stroke-linejoin="round"/>
<path d="M41.3218 14.8025L45.8218 17.2775V22.9025" stroke="white" stroke-width="4.5" stroke-linecap="round" stroke-linejoin="round"/>
<path d="M45.8218 31.9025V37.5275L41.3218 40.0475" stroke="white" stroke-width="4.5" stroke-linecap="round" stroke-linejoin="round"/>
<path d="M32.3218 45.1775L27.8218 47.6525L23.3218 45.1775" stroke="white" stroke-width="4.5" stroke-linecap="round" stroke-linejoin="round"/>
<path d="M27.8218 27.4025L32.3218 24.9275" stroke="white" stroke-width="4.5" stroke-linecap="round" stroke-linejoin="round"/>
<path d="M41.3218 19.7525L45.8218 17.2775" stroke="white" stroke-width="4.5" stroke-linecap="round" stroke-linejoin="round"/>
<path d="M27.8218 27.4025V33.0275" stroke="white" stroke-width="4.5" stroke-linecap="round" stroke-linejoin="round"/>
<path d="M27.8218 42.0275V47.6525" stroke="white" stroke-width="4.5" stroke-linecap="round" stroke-linejoin="round"/>
<path d="M27.8218 27.4025L23.3218 24.8825" stroke="white" stroke-width="4.5" stroke-linecap="round" stroke-linejoin="round"/>
<path d="M14.3218 19.7525L9.82178 17.2775" stroke="white" stroke-width="4.5" stroke-linecap="round" stroke-linejoin="round"/>
</g>
<defs>
<clipPath id="clip0_18_8840">
<rect width="54" height="54" fill="white" transform="translate(0.821777 0.402527)"/>
</clipPath>
</defs>
</svg>
